{"glyphs":{"0":{"ha":847,"x_min":67,"x_max":781,"o":"m 424 -15 q 158 109 249 -15 q 67 474 67 233 q 158 837 67 713 q 424 961 249 961 q 690 837 599 961 q 781 474 781 713 q 690 109 781 233 q 424 -15 599 -15 m 424 96 q 660 474 660 96 q 424 850 660 850 q 186 474 186 850 q 424 96 186 96 z "},"1":{"ha":528,"x_min":50,"x_max":372,"o":"m 247 676 l 50 676 l 50 783 q 179 799 135 783 q 240 848 224 814 q 257 944 257 882 l 372 944 l 372 0 l 247 0 l 247 676 z "},"2":{"ha":790,"x_min":74,"x_max":718,"o":"m 74 0 q 128 254 74 157 q 308 418 182 351 l 453 493 q 583 690 583 561 q 538 805 583 761 q 418 849 492 849 q 276 792 326 849 q 225 631 225 735 l 94 631 q 134 804 94 729 q 247 919 174 879 q 418 960 321 960 q 636 889 556 960 q 717 696 717 818 q 669 533 717 606 q 533 411 622 460 l 389 335 q 267 241 301 288 q 222 114 232 194 l 718 114 l 718 0 l 74 0 z "},"3":{"ha":782,"x_min":54,"x_max":713,"o":"m 392 -15 q 144 67 233 -15 q 54 297 54 150 l 183 297 q 238 147 183 200 q 392 93 293 93 q 531 140 478 93 q 585 264 585 188 q 533 392 585 347 q 385 438 482 438 l 315 438 l 315 547 l 386 547 q 517 588 472 547 q 563 704 563 628 q 515 813 563 771 q 389 854 467 854 q 251 806 303 854 q 200 676 200 758 l 76 676 q 161 883 76 806 q 389 960 246 960 q 548 928 479 960 q 654 838 617 896 q 692 704 692 781 q 647 570 692 624 q 519 494 603 517 q 658 419 604 483 q 713 264 713 356 q 672 119 713 182 q 558 20 631 56 q 392 -15 485 -15 z "},"4":{"ha":797,"x_min":90,"x_max":743,"o":"m 743 306 l 596 306 l 596 0 l 471 0 l 471 306 l 90 306 l 90 944 l 217 944 l 217 419 l 471 419 l 471 699 l 596 699 l 596 419 l 743 419 l 743 306 z "},"5":{"ha":801,"x_min":88,"x_max":739,"o":"m 407 -15 q 247 18 318 -15 q 134 110 176 51 q 88 246 92 169 l 215 246 q 273 138 219 178 q 408 97 326 97 q 561 157 506 97 q 617 319 617 217 q 565 478 617 419 q 425 536 514 536 q 299 508 347 536 q 224 415 251 479 l 106 415 l 106 944 l 681 944 l 681 832 l 221 832 l 221 542 q 314 615 257 590 q 442 639 371 639 q 658 553 578 639 q 739 324 739 468 q 698 149 739 226 q 581 28 657 72 q 407 -15 506 -15 z "},"6":{"ha":789,"x_min":60,"x_max":728,"o":"m 393 657 q 570 613 494 657 q 687 491 646 568 q 728 321 728 414 q 687 149 728 226 q 570 28 646 72 q 393 -17 494 -17 q 216 28 292 -17 q 100 149 140 72 q 60 321 60 226 q 121 525 60 436 l 418 944 l 569 944 l 357 656 q 393 657 368 657 m 393 92 q 549 156 492 92 q 607 321 607 221 q 549 484 607 419 q 393 549 492 549 q 238 484 294 549 q 181 321 181 419 q 238 156 181 221 q 393 92 294 92 z "},"7":{"ha":713,"x_min":63,"x_max":713,"o":"m 522 828 l 63 828 l 63 944 l 713 944 l 224 0 l 83 0 l 522 828 z "},"8":{"ha":804,"x_min":69,"x_max":735,"o":"m 401 -15 q 226 19 301 -15 q 110 115 151 53 q 69 260 69 178 q 113 406 69 346 q 236 489 157 467 q 124 572 165 511 q 83 710 83 632 q 124 840 83 783 q 236 928 164 897 q 401 960 308 960 q 567 928 494 960 q 681 840 640 897 q 721 710 721 783 q 678 572 721 632 q 567 489 636 513 q 690 406 646 467 q 735 260 735 346 q 694 115 735 178 q 577 19 653 53 q 401 -15 501 -15 m 401 540 q 540 583 489 540 q 590 697 590 626 q 539 814 590 771 q 401 857 488 857 q 265 814 315 857 q 214 697 214 771 q 266 583 214 626 q 401 540 318 540 m 401 93 q 549 140 493 93 q 606 267 606 188 q 550 393 606 346 q 401 440 494 440 q 256 392 313 440 q 199 267 199 344 q 254 140 199 188 q 401 93 310 93 z "},"9":{"ha":771,"x_min":43,"x_max":711,"o":"m 711 624 q 650 419 711 508 l 353 0 l 201 0 l 414 289 q 378 288 403 288 q 201 332 276 288 q 84 453 125 376 q 43 624 43 531 q 84 795 43 718 q 201 917 125 872 q 378 961 276 961 q 555 917 479 961 q 671 795 631 872 q 711 624 711 718 m 164 624 q 222 460 164 525 q 378 396 279 396 q 533 460 476 396 q 590 624 590 525 q 533 788 590 724 q 378 853 476 853 q 222 788 279 853 q 164 624 164 724 z "},"\r":{"ha":347,"x_min":0,"x_max":0,"o":""}," ":{"ha":351,"x_min":0,"x_max":0,"o":""},"A":{"ha":819,"x_min":25,"x_max":796,"o":"m 613 149 l 208 149 l 163 0 l 25 0 l 354 972 l 467 972 l 796 0 l 658 0 l 613 149 m 576 264 l 410 797 l 244 264 l 576 264 z "},"B":{"ha":808,"x_min":111,"x_max":746,"o":"m 550 497 q 690 426 633 488 q 746 265 746 364 q 665 72 746 143 q 444 0 585 0 l 111 0 l 111 972 l 431 972 q 652 906 571 972 q 733 721 733 839 q 685 569 733 625 q 550 497 636 514 m 238 860 l 238 549 l 435 549 q 560 590 514 549 q 607 704 607 632 q 559 819 607 779 q 426 860 511 860 l 238 860 m 443 113 q 572 156 525 113 q 619 278 619 200 q 573 393 619 349 q 453 438 526 438 l 238 438 l 238 113 l 443 113 z "},"C":{"ha":1071,"x_min":53,"x_max":1021,"o":"m 556 -22 q 288 44 401 -22 q 113 226 174 110 q 53 486 53 342 q 113 747 53 632 q 288 928 174 863 q 556 994 401 994 q 783 951 685 994 q 942 829 882 907 q 1021 653 1003 751 l 882 653 q 771 819 854 758 q 557 881 688 881 q 358 831 442 881 q 229 691 274 781 q 185 486 185 601 q 229 281 185 371 q 358 142 274 192 q 557 92 442 92 q 771 153 688 92 q 882 319 854 214 l 1021 319 q 942 143 1003 221 q 783 22 882 65 q 556 -22 685 -22 z "},"D":{"ha":960,"x_min":111,"x_max":915,"o":"m 111 972 l 421 972 q 688 905 575 972 q 858 726 800 838 q 915 486 915 615 q 858 246 915 357 q 688 67 800 135 q 421 0 575 0 l 111 0 l 111 972 m 411 114 q 617 166 532 114 q 743 303 701 218 q 785 486 785 389 q 743 669 785 585 q 617 806 701 754 q 411 858 532 858 l 238 858 l 238 114 l 411 114 z "},"E":{"ha":757,"x_min":111,"x_max":664,"o":"m 111 972 l 664 972 l 664 858 l 238 858 l 238 540 l 664 540 l 664 426 l 238 426 l 238 114 l 664 114 l 664 0 l 111 0 l 111 972 z "},"F":{"ha":739,"x_min":111,"x_max":664,"o":"m 111 972 l 664 972 l 664 858 l 238 858 l 238 507 l 664 507 l 664 393 l 238 393 l 238 0 l 111 0 l 111 972 z "},"G":{"ha":1151,"x_min":53,"x_max":1121,"o":"m 1121 358 l 1014 358 q 863 80 982 182 q 551 -22 743 -22 q 287 44 400 -22 q 113 224 174 110 q 53 478 53 338 q 111 736 53 618 q 283 924 169 854 q 558 994 397 994 q 760 956 669 994 q 908 848 851 917 q 976 694 964 779 l 838 694 q 742 829 817 778 q 558 881 668 881 q 353 828 438 881 q 227 684 269 775 q 185 481 185 593 q 229 283 185 372 q 356 143 274 194 q 551 92 439 92 q 772 160 688 92 q 882 358 856 229 l 646 358 l 646 472 l 1121 472 l 1121 358 z "},"H":{"ha":928,"x_min":111,"x_max":817,"o":"m 111 972 l 238 972 l 238 540 l 690 540 l 690 972 l 817 972 l 817 0 l 690 0 l 690 426 l 238 426 l 238 0 l 111 0 l 111 972 z "},"I":{"ha":349,"x_min":111,"x_max":238,"o":"m 111 972 l 238 972 l 238 0 l 111 0 l 111 972 z "},"J":{"ha":744,"x_min":32,"x_max":658,"o":"m 346 -22 q 117 67 201 -22 q 32 308 32 157 l 158 308 q 209 150 158 208 q 346 92 260 92 q 483 151 433 92 q 532 311 532 210 l 532 972 l 658 972 l 658 311 q 575 68 658 158 q 346 -22 492 -22 z "},"K":{"ha":826,"x_min":111,"x_max":808,"o":"m 357 492 l 808 0 l 644 0 l 238 453 l 238 0 l 111 0 l 111 972 l 238 972 l 238 517 l 646 972 l 808 972 l 357 492 z "},"L":{"ha":710,"x_min":111,"x_max":651,"o":"m 111 972 l 238 972 l 238 119 l 651 119 l 651 0 l 111 0 l 111 972 z "},"M":{"ha":1133,"x_min":111,"x_max":1022,"o":"m 111 972 l 233 972 l 567 179 l 900 972 l 1022 972 l 1022 0 l 900 0 l 900 710 l 615 0 l 518 0 l 233 714 l 233 0 l 111 0 l 111 972 z "},"N":{"ha":915,"x_min":111,"x_max":804,"o":"m 111 972 l 246 972 l 683 211 l 683 972 l 804 972 l 804 0 l 671 0 l 233 761 l 233 0 l 111 0 l 111 972 z "},"O":{"ha":1107,"x_min":53,"x_max":1056,"o":"m 554 -22 q 289 47 403 -22 q 114 231 175 115 q 53 486 53 347 q 114 741 53 625 q 289 926 175 857 q 554 994 403 994 q 819 926 706 994 q 994 741 933 857 q 1056 486 1056 625 q 994 231 1056 347 q 819 47 933 115 q 554 -22 706 -22 m 554 92 q 751 145 668 92 q 879 288 835 199 q 922 486 924 378 q 879 684 924 594 q 751 827 835 774 q 554 881 668 881 q 357 827 440 881 q 229 684 274 774 q 185 486 185 594 q 229 288 185 378 q 357 145 274 199 q 554 92 440 92 z "},"P":{"ha":806,"x_min":111,"x_max":786,"o":"m 460 972 q 628 929 554 972 q 744 810 703 886 q 786 636 786 733 q 744 464 786 540 q 628 344 703 388 q 460 301 554 301 l 238 301 l 238 0 l 111 0 l 111 972 l 460 972 m 453 415 q 558 444 511 415 q 633 523 606 472 q 660 636 660 574 q 633 751 660 700 q 558 830 606 801 q 453 858 511 858 l 238 858 l 238 415 l 453 415 z "},"Q":{"ha":1107,"x_min":53,"x_max":1056,"o":"m 1056 486 q 1013 270 1056 371 q 890 97 971 169 q 699 -4 810 25 l 807 -146 l 696 -203 l 557 -22 l 554 -22 q 289 47 403 -22 q 114 231 175 115 q 53 486 53 347 q 114 741 53 625 q 289 926 175 857 q 554 994 403 994 q 819 926 706 994 q 994 741 933 857 q 1056 486 1056 625 m 554 92 q 751 145 668 92 q 879 288 835 199 q 922 486 924 378 q 879 684 924 594 q 751 827 835 774 q 554 881 668 881 q 357 827 440 881 q 229 684 274 774 q 185 486 185 594 q 229 288 185 378 q 357 145 274 199 q 554 92 440 92 z "},"R":{"ha":842,"x_min":111,"x_max":786,"o":"m 786 636 q 729 438 786 522 q 575 319 672 353 l 772 0 l 628 0 l 440 301 l 238 301 l 238 0 l 111 0 l 111 972 l 460 972 q 628 929 554 972 q 744 810 703 886 q 786 636 786 733 m 238 415 l 453 415 q 558 444 511 415 q 633 523 606 472 q 660 636 660 574 q 633 751 660 700 q 558 830 606 801 q 453 858 511 858 l 238 858 l 238 415 z "},"S":{"ha":774,"x_min":49,"x_max":718,"o":"m 400 -22 q 142 65 235 -22 q 49 310 49 153 l 175 310 q 235 149 175 208 q 399 89 296 89 q 540 131 490 89 q 590 250 590 174 q 555 353 590 314 q 435 421 519 392 l 274 478 q 78 733 78 540 q 117 869 78 810 q 225 962 156 929 q 383 994 294 994 q 613 914 526 994 q 699 697 699 833 l 572 697 q 522 837 572 788 q 379 886 472 886 q 252 847 299 886 q 206 740 206 807 q 246 639 206 679 q 376 568 286 599 l 526 515 q 718 253 718 447 q 678 108 718 171 q 567 12 639 46 q 400 -22 496 -22 z "},"T":{"ha":724,"x_min":8,"x_max":715,"o":"m 299 853 l 8 853 l 8 972 l 715 972 l 715 853 l 425 853 l 425 0 l 299 0 l 299 853 z "},"U":{"ha":882,"x_min":88,"x_max":796,"o":"m 442 -22 q 183 67 278 -22 q 88 319 88 156 l 88 972 l 214 972 l 214 326 q 275 152 214 213 q 442 92 336 92 q 608 152 547 92 q 668 326 668 213 l 668 972 l 796 972 l 796 319 q 701 67 796 156 q 442 -22 606 -22 z "},"V":{"ha":785,"x_min":1,"x_max":783,"o":"m 1 972 l 139 972 l 393 197 l 646 972 l 783 972 l 454 0 l 332 0 l 1 972 z "},"W":{"ha":1331,"x_min":4,"x_max":1328,"o":"m 4 972 l 138 972 l 386 208 l 618 972 l 714 972 l 944 208 l 1194 972 l 1328 972 l 994 0 l 901 0 l 665 753 l 431 0 l 336 0 l 4 972 z "},"X":{"ha":839,"x_min":28,"x_max":811,"o":"m 347 486 l 28 972 l 171 972 l 419 590 l 668 972 l 811 972 l 492 486 l 811 0 l 668 0 l 419 381 l 171 0 l 28 0 l 347 486 z "},"Y":{"ha":767,"x_min":-14,"x_max":788,"o":"m 788 972 l 299 0 l 158 0 l 354 386 l -14 972 l 133 972 l 418 517 l 649 972 l 788 972 z "},"Z":{"ha":796,"x_min":32,"x_max":751,"o":"m 540 858 l 83 858 l 83 972 l 751 972 l 247 114 l 746 114 l 746 0 l 32 0 l 540 858 z "},"Á":{"ha":819,"x_min":25,"x_max":796,"o":"m 288 1015 l 243 1099 l 546 1242 l 589 1160 l 288 1015 m 613 149 l 208 149 l 163 0 l 25 0 l 354 972 l 467 972 l 796 0 l 658 0 l 613 149 m 576 264 l 410 797 l 244 264 l 576 264 z "},"Ă":{"ha":819,"x_min":25,"x_max":796,"o":"m 411 1019 q 251 1072 317 1019 q 179 1207 186 1125 l 279 1207 q 322 1132 286 1157 q 411 1107 358 1107 q 500 1132 464 1107 q 543 1207 536 1157 l 643 1207 q 571 1072 636 1125 q 411 1019 506 1019 m 613 149 l 208 149 l 163 0 l 25 0 l 354 972 l 467 972 l 796 0 l 658 0 l 613 149 m 576 264 l 410 797 l 244 264 l 576 264 z "},"Â":{"ha":819,"x_min":25,"x_max":796,"o":"m 283 1021 l 219 1078 l 408 1239 l 596 1078 l 532 1021 l 408 1133 l 283 1021 m 613 149 l 208 149 l 163 0 l 25 0 l 354 972 l 467 972 l 796 0 l 658 0 l 613 149 m 576 264 l 410 797 l 244 264 l 576 264 z "},"Ä":{"ha":819,"x_min":25,"x_max":796,"o":"m 246 1038 q 181 1065 207 1038 q 154 1131 154 1092 q 181 1197 154 1169 q 246 1224 207 1224 q 313 1197 286 1224 q 340 1131 340 1169 q 313 1065 340 1092 q 246 1038 285 1038 m 575 1038 q 509 1065 536 1038 q 482 1131 482 1092 q 509 1197 482 1169 q 575 1224 536 1224 q 641 1197 614 1224 q 668 1131 668 1169 q 641 1065 668 1092 q 575 1038 614 1038 m 613 149 l 208 149 l 163 0 l 25 0 l 354 972 l 467 972 l 796 0 l 658 0 l 613 149 m 576 264 l 410 797 l 244 264 l 576 264 z "},"Æ":{"ha":1168,"x_min":18,"x_max":1074,"o":"m 690 858 l 690 540 l 1074 540 l 1074 426 l 690 426 l 690 114 l 1074 114 l 1074 0 l 564 0 l 564 154 l 229 154 l 156 0 l 18 0 l 501 972 l 1074 972 l 1074 858 l 690 858 m 564 264 l 564 856 l 282 264 l 564 264 z "},"Ǽ":{"ha":1168,"x_min":18,"x_max":1074,"o":"m 694 1015 l 650 1099 l 953 1242 l 996 1160 l 694 1015 m 690 858 l 690 540 l 1074 540 l 1074 426 l 690 426 l 690 114 l 1074 114 l 1074 0 l 564 0 l 564 154 l 229 154 l 156 0 l 18 0 l 501 972 l 1074 972 l 1074 858 l 690 858 m 564 264 l 564 856 l 282 264 l 564 264 z "},"À":{"ha":819,"x_min":25,"x_max":796,"o":"m 533 1015 l 232 1160 l 275 1242 l 578 1099 l 533 1015 m 613 149 l 208 149 l 163 0 l 25 0 l 354 972 l 467 972 l 796 0 l 658 0 l 613 149 m 576 264 l 410 797 l 244 264 l 576 264 z "},"Ā":{"ha":819,"x_min":25,"x_max":796,"o":"m 669 1067 l 153 1067 l 153 1163 l 669 1163 l 669 1067 m 613 149 l 208 149 l 163 0 l 25 0 l 354 972 l 467 972 l 796 0 l 658 0 l 613 149 m 576 264 l 410 797 l 244 264 l 576 264 z "},"Ą":{"ha":819,"x_min":25,"x_max":832,"o":"m 613 149 l 208 149 l 163 0 l 25 0 l 354 972 l 467 972 l 796 0 l 658 0 l 613 149 m 576 264 l 410 797 l 244 264 l 576 264 m 721 -294 q 603 -256 647 -294 q 558 -158 558 -217 q 588 -72 558 -112 q 676 0 618 -32 l 797 0 q 700 -48 731 -14 q 669 -122 669 -82 q 692 -181 669 -158 q 753 -203 715 -203 q 832 -185 792 -203 l 831 -274 q 721 -294 776 -294 z "},"Å":{"ha":819,"x_min":25,"x_max":796,"o":"m 613 149 l 208 149 l 163 0 l 25 0 l 339 925 q 266 987 293 946 q 239 1078 239 1028 q 289 1199 239 1150 q 411 1249 339 1249 q 501 1225 460 1249 q 565 1163 542 1201 q 589 1078 589 1124 q 560 985 589 1028 q 483 924 531 943 l 796 0 l 658 0 l 613 149 m 411 1175 q 344 1147 372 1175 q 317 1078 317 1118 q 344 1012 317 1039 q 411 985 372 985 q 481 1012 453 985 q 508 1079 508 1039 q 481 1147 508 1119 q 411 1175 453 1175 m 576 264 l 410 797 l 244 264 l 576 264 z "},"Ã":{"ha":819,"x_min":25,"x_max":796,"o":"m 300 1113 q 248 1099 271 1113 q 197 1049 225 1086 l 146 1097 q 292 1204 210 1204 q 352 1192 324 1204 q 417 1157 381 1179 q 472 1128 451 1138 q 515 1118 493 1118 q 573 1132 547 1118 q 626 1185 599 1146 l 678 1131 q 524 1026 621 1029 q 458 1037 489 1024 q 390 1075 428 1050 q 339 1103 357 1094 q 300 1113 321 1113 m 613 149 l 208 149 l 163 0 l 25 0 l 354 972 l 467 972 l 796 0 l 658 0 l 613 149 m 576 264 l 410 797 l 244 264 l 576 264 z "},"Ć":{"ha":1071,"x_min":53,"x_max":1021,"o":"m 388 1099 l 690 1242 l 733 1160 l 432 1015 l 388 1099 m 556 -22 q 288 44 401 -22 q 113 226 174 110 q 53 486 53 342 q 113 747 53 632 q 288 928 174 863 q 556 994 401 994 q 783 951 685 994 q 942 829 882 907 q 1021 653 1003 751 l 882 653 q 771 819 854 758 q 557 881 688 881 q 358 831 442 881 q 229 691 274 781 q 185 486 185 601 q 229 281 185 371 q 358 142 274 192 q 557 92 442 92 q 771 153 688 92 q 882 319 854 214 l 1021 319 q 942 143 1003 221 q 783 22 882 65 q 556 -22 685 -22 z "},"Č":{"ha":1071,"x_min":53,"x_max":1021,"o":"m 368 1183 l 432 1240 l 556 1128 l 681 1240 l 744 1183 l 556 1022 l 368 1183 m 556 -22 q 288 44 401 -22 q 113 226 174 110 q 53 486 53 342 q 113 747 53 632 q 288 928 174 863 q 556 994 401 994 q 783 951 685 994 q 942 829 882 907 q 1021 653 1003 751 l 882 653 q 771 819 854 758 q 557 881 688 881 q 358 831 442 881 q 229 691 274 781 q 185 486 185 601 q 229 281 185 371 q 358 142 274 192 q 557 92 442 92 q 771 153 688 92 q 882 319 854 214 l 1021 319 q 942 143 1003 221 q 783 22 882 65 q 556 -22 685 -22 z "},"Ç":{"ha":1071,"x_min":53,"x_max":1021,"o":"m 557 92 q 771 153 688 92 q 882 319 854 214 l 1021 319 q 881 81 994 174 q 588 -21 767 -12 l 588 -87 q 613 -72 596 -78 q 651 -67 631 -67 q 726 -97 696 -67 q 757 -178 757 -126 q 724 -265 757 -231 q 631 -300 690 -300 q 547 -274 579 -300 q 511 -200 515 -247 l 575 -200 q 592 -232 576 -219 q 629 -244 607 -244 q 673 -228 657 -244 q 689 -179 689 -211 q 674 -132 689 -149 q 632 -115 658 -115 q 579 -143 596 -115 l 522 -143 l 522 -21 q 272 53 378 -14 q 109 233 165 121 q 53 486 53 346 q 113 747 53 632 q 288 928 174 863 q 556 994 401 994 q 783 951 685 994 q 942 829 882 907 q 1021 653 1003 751 l 882 653 q 771 819 854 758 q 557 881 688 881 q 358 831 442 881 q 229 691 274 781 q 185 486 185 601 q 229 281 185 371 q 358 142 274 192 q 557 92 442 92 z "},"Ĉ":{"ha":1071,"x_min":53,"x_max":1021,"o":"m 740 1078 l 676 1021 l 553 1133 l 428 1021 l 364 1078 l 553 1239 l 740 1078 m 556 -22 q 288 44 401 -22 q 113 226 174 110 q 53 486 53 342 q 113 747 53 632 q 288 928 174 863 q 556 994 401 994 q 783 951 685 994 q 942 829 882 907 q 1021 653 1003 751 l 882 653 q 771 819 854 758 q 557 881 688 881 q 358 831 442 881 q 229 691 274 781 q 185 486 185 601 q 229 281 185 371 q 358 142 274 192 q 557 92 442 92 q 771 153 688 92 q 882 319 854 214 l 1021 319 q 942 143 1003 221 q 783 22 882 65 q 556 -22 685 -22 z "},"Ċ":{"ha":1071,"x_min":53,"x_max":1021,"o":"m 556 1033 q 488 1060 514 1033 q 463 1128 463 1088 q 489 1194 463 1167 q 556 1221 515 1221 q 622 1194 596 1221 q 649 1128 649 1167 q 623 1060 649 1088 q 556 1033 597 1033 m 556 -22 q 288 44 401 -22 q 113 226 174 110 q 53 486 53 342 q 113 747 53 632 q 288 928 174 863 q 556 994 401 994 q 783 951 685 994 q 942 829 882 907 q 1021 653 1003 751 l 882 653 q 771 819 854 758 q 557 881 688 881 q 358 831 442 881 q 229 691 274 781 q 185 486 185 601 q 229 281 185 371 q 358 142 274 192 q 557 92 442 92 q 771 153 688 92 q 882 319 854 214 l 1021 319 q 942 143 1003 221 q 783 22 882 65 q 556 -22 685 -22 z "},"Ď":{"ha":960,"x_min":111,"x_max":915,"o":"m 261 1183 l 325 1240 l 449 1128 l 574 1240 l 638 1183 l 449 1022 l 261 1183 m 111 972 l 421 972 q 688 905 575 972 q 858 726 800 838 q 915 486 915 615 q 858 246 915 357 q 688 67 800 135 q 421 0 575 0 l 111 0 l 111 972 m 411 114 q 617 166 532 114 q 743 303 701 218 q 785 486 785 389 q 743 669 785 585 q 617 806 701 754 q 411 858 532 858 l 238 858 l 238 114 l 411 114 z "},"Đ":{"ha":960,"x_min":1,"x_max":915,"o":"m 421 972 q 688 905 575 972 q 858 726 800 838 q 915 486 915 615 q 858 246 915 357 q 688 67 800 135 q 421 0 575 0 l 111 0 l 111 435 l 1 435 l 1 543 l 111 543 l 111 972 l 421 972 m 411 114 q 617 166 532 114 q 743 303 701 218 q 785 486 785 389 q 743 669 785 585 q 617 806 701 754 q 411 858 532 858 l 238 858 l 238 543 l 422 543 l 422 435 l 238 435 l 238 114 l 411 114 z "},"É":{"ha":757,"x_min":111,"x_max":664,"o":"m 228 1099 l 531 1242 l 574 1160 l 272 1015 l 228 1099 m 111 972 l 664 972 l 664 858 l 238 858 l 238 540 l 664 540 l 664 426 l 238 426 l 238 114 l 664 114 l 664 0 l 111 0 l 111 972 z "},"Ĕ":{"ha":757,"x_min":111,"x_max":664,"o":"m 396 1019 q 236 1072 301 1019 q 164 1207 171 1125 l 264 1207 q 307 1132 271 1157 q 396 1107 343 1107 q 485 1132 449 1107 q 528 1207 521 1157 l 628 1207 q 556 1072 621 1125 q 396 1019 490 1019 m 111 972 l 664 972 l 664 858 l 238 858 l 238 540 l 664 540 l 664 426 l 238 426 l 238 114 l 664 114 l 664 0 l 111 0 l 111 972 z "},"Ě":{"ha":757,"x_min":111,"x_max":664,"o":"m 208 1183 l 272 1240 l 396 1128 l 521 1240 l 585 1183 l 396 1022 l 208 1183 m 111 972 l 664 972 l 664 858 l 238 858 l 238 540 l 664 540 l 664 426 l 238 426 l 238 114 l 664 114 l 664 0 l 111 0 l 111 972 z "},"Ê":{"ha":757,"x_min":111,"x_max":664,"o":"m 581 1078 l 517 1021 l 393 1133 l 268 1021 l 204 1078 l 393 1239 l 581 1078 m 111 972 l 664 972 l 664 858 l 238 858 l 238 540 l 664 540 l 664 426 l 238 426 l 238 114 l 664 114 l 664 0 l 111 0 l 111 972 z "},"Ë":{"ha":757,"x_min":111,"x_max":664,"o":"m 231 1038 q 165 1065 192 1038 q 139 1131 139 1092 q 165 1197 139 1169 q 231 1224 192 1224 q 298 1197 271 1224 q 325 1131 325 1169 q 297 1065 325 1092 q 231 1038 269 1038 m 560 1038 q 494 1065 521 1038 q 467 1131 467 1092 q 494 1197 467 1169 q 560 1224 521 1224 q 626 1197 599 1224 q 653 1131 653 1169 q 626 1065 653 1092 q 560 1038 599 1038 m 111 972 l 664 972 l 664 858 l 238 858 l 238 540 l 664 540 l 664 426 l 238 426 l 238 114 l 664 114 l 664 0 l 111 0 l 111 972 z "},"Ė":{"ha":757,"x_min":111,"x_max":664,"o":"m 396 1033 q 328 1060 354 1033 q 303 1128 303 1088 q 329 1194 303 1167 q 396 1221 356 1221 q 463 1194 436 1221 q 489 1128 489 1167 q 463 1060 489 1088 q 396 1033 438 1033 m 111 972 l 664 972 l 664 858 l 238 858 l 238 540 l 664 540 l 664 426 l 238 426 l 238 114 l 664 114 l 664 0 l 111 0 l 111 972 z "},"È":{"ha":757,"x_min":111,"x_max":664,"o":"m 217 1160 l 260 1242 l 563 1099 l 518 1015 l 217 1160 m 111 972 l 664 972 l 664 858 l 238 858 l 238 540 l 664 540 l 664 426 l 238 426 l 238 114 l 664 114 l 664 0 l 111 0 l 111 972 z "},"Ē":{"ha":757,"x_min":111,"x_max":664,"o":"m 138 1163 l 654 1163 l 654 1067 l 138 1067 l 138 1163 m 111 972 l 664 972 l 664 858 l 238 858 l 238 540 l 664 540 l 664 426 l 238 426 l 238 114 l 664 114 l 664 0 l 111 0 l 111 972 z "},"Ę":{"ha":757,"x_min":111,"x_max":700,"o":"m 111 972 l 664 972 l 664 858 l 238 858 l 238 540 l 664 540 l 664 426 l 238 426 l 238 114 l 664 114 l 664 0 l 111 0 l 111 972 m 589 -294 q 471 -256 515 -294 q 426 -158 426 -217 q 456 -72 426 -112 q 544 0 486 -32 l 665 0 q 568 -48 599 -14 q 538 -122 538 -82 q 560 -181 538 -158 q 621 -203 583 -203 q 700 -185 660 -203 l 699 -274 q 589 -294 644 -294 z "},"Ð":{"ha":960,"x_min":1,"x_max":915,"o":"m 421 972 q 688 905 575 972 q 858 726 800 838 q 915 486 915 615 q 858 246 915 357 q 688 67 800 135 q 421 0 575 0 l 111 0 l 111 435 l 1 435 l 1 543 l 111 543 l 111 972 l 421 972 m 411 114 q 617 166 532 114 q 743 303 701 218 q 785 486 785 389 q 743 669 785 585 q 617 806 701 754 q 411 858 532 858 l 238 858 l 238 543 l 422 543 l 422 435 l 238 435 l 238 114 l 411 114 z "},"Ğ":{"ha":1151,"x_min":53,"x_max":1121,"o":"m 561 1019 q 401 1072 467 1019 q 329 1207 336 1125 l 429 1207 q 472 1132 436 1157 q 561 1107 508 1107 q 650 1132 614 1107 q 693 1207 686 1157 l 793 1207 q 721 1072 786 1125 q 561 1019 656 1019 m 1121 358 l 1014 358 q 863 80 982 182 q 551 -22 743 -22 q 287 44 400 -22 q 113 224 174 110 q 53 478 53 338 q 111 736 53 618 q 283 924 169 854 q 558 994 397 994 q 760 956 669 994 q 908 848 851 917 q 976 694 964 779 l 838 694 q 742 829 817 778 q 558 881 668 881 q 353 828 438 881 q 227 684 269 775 q 185 481 185 593 q 229 283 185 372 q 356 143 274 194 q 551 92 439 92 q 772 160 688 92 q 882 358 856 229 l 646 358 l 646 472 l 1121 472 l 1121 358 z "},"Ĝ":{"ha":1151,"x_min":53,"x_max":1121,"o":"m 433 1021 l 369 1078 l 558 1239 l 746 1078 l 682 1021 l 558 1133 l 433 1021 m 1121 358 l 1014 358 q 863 80 982 182 q 551 -22 743 -22 q 287 44 400 -22 q 113 224 174 110 q 53 478 53 338 q 111 736 53 618 q 283 924 169 854 q 558 994 397 994 q 760 956 669 994 q 908 848 851 917 q 976 694 964 779 l 838 694 q 742 829 817 778 q 558 881 668 881 q 353 828 438 881 q 227 684 269 775 q 185 481 185 593 q 229 283 185 372 q 356 143 274 194 q 551 92 439 92 q 772 160 688 92 q 882 358 856 229 l 646 358 l 646 472 l 1121 472 l 1121 358 z "},"Ģ":{"ha":1151,"x_min":53,"x_max":1121,"o":"m 1121 358 l 1014 358 q 863 80 982 182 q 551 -22 743 -22 q 287 44 400 -22 q 113 224 174 110 q 53 478 53 338 q 111 736 53 618 q 283 924 169 854 q 558 994 397 994 q 760 956 669 994 q 908 848 851 917 q 976 694 964 779 l 838 694 q 742 829 817 778 q 558 881 668 881 q 353 828 438 881 q 227 684 269 775 q 185 481 185 593 q 229 283 185 372 q 356 143 274 194 q 551 92 439 92 q 772 160 688 92 q 882 358 856 229 l 646 358 l 646 472 l 1121 472 l 1121 358 m 500 -244 q 575 -208 558 -244 q 588 -167 588 -194 q 577 -176 585 -172 q 560 -179 569 -179 q 507 -160 528 -179 q 486 -111 486 -140 q 506 -62 486 -82 q 557 -42 526 -42 q 621 -69 597 -42 q 644 -140 644 -96 q 500 -286 644 -286 l 500 -244 z "},"Ġ":{"ha":1151,"x_min":53,"x_max":1121,"o":"m 561 1033 q 494 1060 519 1033 q 468 1128 468 1088 q 494 1194 468 1167 q 561 1221 521 1221 q 628 1194 601 1221 q 654 1128 654 1167 q 628 1060 654 1088 q 561 1033 603 1033 m 1121 358 l 1014 358 q 863 80 982 182 q 551 -22 743 -22 q 287 44 400 -22 q 113 224 174 110 q 53 478 53 338 q 111 736 53 618 q 283 924 169 854 q 558 994 397 994 q 760 956 669 994 q 908 848 851 917 q 976 694 964 779 l 838 694 q 742 829 817 778 q 558 881 668 881 q 353 828 438 881 q 227 684 269 775 q 185 481 185 593 q 229 283 185 372 q 356 143 274 194 q 551 92 439 92 q 772 160 688 92 q 882 358 856 229 l 646 358 l 646 472 l 1121 472 l 1121 358 z "},"Ħ":{"ha":928,"x_min":63,"x_max":865,"o":"m 865 703 l 817 703 l 817 0 l 690 0 l 690 426 l 238 426 l 238 0 l 111 0 l 111 703 l 63 703 l 63 785 l 111 785 l 111 972 l 238 972 l 238 785 l 690 785 l 690 972 l 817 972 l 817 785 l 865 785 l 865 703 m 690 703 l 238 703 l 238 540 l 690 540 l 690 703 z "},"Ĥ":{"ha":928,"x_min":111,"x_max":817,"o":"m 649 1078 l 585 1021 l 461 1133 l 336 1021 l 272 1078 l 461 1239 l 649 1078 m 111 972 l 238 972 l 238 540 l 690 540 l 690 972 l 817 972 l 817 0 l 690 0 l 690 426 l 238 426 l 238 0 l 111 0 l 111 972 z "},"Í":{"ha":349,"x_min":35,"x_max":314,"o":"m 35 1103 l 258 1242 l 314 1163 l 89 1024 l 35 1103 m 111 972 l 238 972 l 238 0 l 111 0 l 111 972 z "},"Ĭ":{"ha":349,"x_min":13,"x_max":339,"o":"m 175 1024 q 58 1065 104 1024 q 13 1204 13 1107 l 106 1204 q 126 1133 107 1157 q 175 1110 146 1110 q 224 1133 204 1110 q 244 1204 243 1157 l 339 1204 q 292 1065 338 1107 q 175 1024 246 1024 m 111 972 l 238 972 l 238 0 l 111 0 l 111 972 z "},"Î":{"ha":349,"x_min":21,"x_max":328,"o":"m 174 1117 l 76 1032 l 21 1094 l 174 1222 l 328 1094 l 271 1032 l 174 1117 m 111 972 l 238 972 l 238 0 l 111 0 l 111 972 z "},"Ï":{"ha":349,"x_min":-10,"x_max":361,"o":"m 76 1043 q 15 1067 39 1043 q -10 1129 -10 1092 q 15 1191 -10 1167 q 76 1215 39 1215 q 138 1191 114 1215 q 163 1129 163 1167 q 138 1067 163 1092 q 76 1043 114 1043 m 274 1043 q 213 1067 238 1043 q 188 1129 188 1092 q 213 1191 188 1167 q 274 1215 238 1215 q 336 1191 311 1215 q 361 1129 361 1167 q 336 1067 361 1092 q 274 1043 311 1043 m 111 972 l 238 972 l 238 0 l 111 0 l 111 972 z "},"İ":{"ha":349,"x_min":82,"x_max":268,"o":"m 175 1033 q 108 1060 133 1033 q 82 1128 82 1088 q 108 1194 82 1167 q 175 1221 135 1221 q 242 1194 215 1221 q 268 1128 268 1167 q 242 1060 268 1088 q 175 1033 217 1033 m 111 972 l 238 972 l 238 0 l 111 0 l 111 972 z "},"Ì":{"ha":349,"x_min":43,"x_max":306,"o":"m 43 1149 l 99 1231 l 306 1107 l 251 1025 l 43 1149 m 111 972 l 238 972 l 238 0 l 111 0 l 111 972 z "},"Ĳ":{"ha":1093,"x_min":111,"x_max":1007,"o":"m 111 972 l 238 972 l 238 0 l 111 0 l 111 972 m 694 -22 q 465 67 550 -22 q 381 308 381 157 l 507 308 q 558 150 507 208 q 694 92 608 92 q 831 151 782 92 q 881 311 881 210 l 881 972 l 1007 972 l 1007 311 q 924 68 1007 158 q 694 -22 840 -22 z "},"Ī":{"ha":349,"x_min":46,"x_max":306,"o":"m 46 1153 l 306 1153 l 306 1067 l 46 1067 l 46 1153 m 111 972 l 238 972 l 238 0 l 111 0 l 111 972 z "},"Į":{"ha":349,"x_min":-1,"x_max":272,"o":"m 111 972 l 238 972 l 238 0 l 111 0 l 111 972 m 161 -294 q 43 -256 88 -294 q -1 -158 -1 -217 q 28 -72 -1 -112 q 117 0 58 -32 l 238 0 q 140 -48 171 -14 q 110 -122 110 -82 q 133 -181 110 -158 q 193 -203 156 -203 q 272 -185 232 -203 l 271 -274 q 161 -294 217 -294 z "},"Ĩ":{"ha":349,"x_min":33,"x_max":317,"o":"m 231 1053 q 196 1060 210 1053 q 161 1083 182 1068 q 121 1104 138 1104 q 91 1095 104 1104 q 65 1063 78 1086 l 33 1118 q 122 1188 64 1188 q 157 1180 143 1188 q 189 1157 171 1172 q 210 1142 199 1149 q 232 1135 221 1135 q 286 1175 263 1135 l 317 1119 q 231 1053 288 1053 m 111 972 l 238 972 l 238 0 l 111 0 l 111 972 z "},"Ĵ":{"ha":744,"x_min":32,"x_max":749,"o":"m 594 1117 l 497 1032 l 442 1094 l 594 1222 l 749 1094 l 692 1032 l 594 1117 m 346 -22 q 117 67 201 -22 q 32 308 32 157 l 158 308 q 209 150 158 208 q 346 92 260 92 q 483 151 433 92 q 532 311 532 210 l 532 972 l 658 972 l 658 311 q 575 68 658 158 q 346 -22 492 -22 z "},"Ķ":{"ha":826,"x_min":111,"x_max":808,"o":"m 357 492 l 808 0 l 644 0 l 238 453 l 238 0 l 111 0 l 111 972 l 238 972 l 238 517 l 646 972 l 808 972 l 357 492 m 344 -244 q 419 -208 403 -244 q 432 -167 432 -194 q 422 -176 429 -172 q 404 -179 414 -179 q 351 -160 372 -179 q 331 -111 331 -140 q 351 -62 331 -82 q 401 -42 371 -42 q 465 -69 442 -42 q 489 -140 489 -96 q 344 -286 489 -286 l 344 -244 z "},"Ĺ":{"ha":710,"x_min":53,"x_max":651,"o":"m 53 1103 l 276 1242 l 332 1163 l 107 1024 l 53 1103 m 111 972 l 238 972 l 238 119 l 651 119 l 651 0 l 111 0 l 111 972 z "},"Ľ":{"ha":710,"x_min":111,"x_max":651,"o":"m 111 972 l 238 972 l 238 119 l 651 119 l 651 0 l 111 0 l 111 972 m 460 689 q 433 692 442 689 l 433 747 q 458 746 443 746 q 529 785 513 746 q 538 828 538 806 q 536 847 538 840 q 482 824 521 824 q 427 847 449 824 q 406 907 406 871 q 430 969 406 944 q 494 993 454 993 q 576 956 544 993 q 607 851 607 918 q 568 732 607 775 q 460 689 529 689 z "},"Ļ":{"ha":710,"x_min":111,"x_max":651,"o":"m 111 972 l 238 972 l 238 119 l 651 119 l 651 0 l 111 0 l 111 972 m 332 -244 q 407 -208 390 -244 q 419 -167 419 -194 q 409 -176 417 -172 q 392 -179 401 -179 q 339 -160 360 -179 q 318 -111 318 -140 q 338 -62 318 -82 q 389 -42 358 -42 q 453 -69 429 -42 q 476 -140 476 -96 q 332 -286 476 -286 l 332 -244 z "},"Ŀ":{"ha":710,"x_min":111,"x_max":651,"o":"m 111 972 l 238 972 l 238 119 l 651 119 l 651 0 l 111 0 l 111 972 m 481 446 q 408 476 438 446 q 379 547 379 506 q 408 619 379 589 q 481 649 438 649 q 552 619 522 649 q 582 547 582 589 q 552 476 582 506 q 481 446 522 446 z "},"Ł":{"ha":692,"x_min":33,"x_max":651,"o":"m 651 119 l 651 0 l 111 0 l 111 374 l 33 339 l 33 440 l 111 475 l 111 972 l 238 972 l 238 531 l 463 631 l 463 529 l 238 429 l 238 119 l 651 119 z "},"Ń":{"ha":915,"x_min":111,"x_max":804,"o":"m 290 1099 l 593 1242 l 636 1160 l 335 1015 l 290 1099 m 111 972 l 246 972 l 683 211 l 683 972 l 804 972 l 804 0 l 671 0 l 233 761 l 233 0 l 111 0 l 111 972 z "},"Ň":{"ha":915,"x_min":111,"x_max":804,"o":"m 271 1183 l 335 1240 l 458 1128 l 583 1240 l 647 1183 l 458 1022 l 271 1183 m 111 972 l 246 972 l 683 211 l 683 972 l 804 972 l 804 0 l 671 0 l 233 761 l 233 0 l 111 0 l 111 972 z "},"Ņ":{"ha":915,"x_min":111,"x_max":804,"o":"m 111 972 l 246 972 l 683 211 l 683 972 l 804 972 l 804 0 l 671 0 l 233 761 l 233 0 l 111 0 l 111 972 m 397 -244 q 472 -208 456 -244 q 485 -167 485 -194 q 474 -176 482 -172 q 457 -179 467 -179 q 404 -160 425 -179 q 383 -111 383 -140 q 403 -62 383 -82 q 454 -42 424 -42 q 518 -69 494 -42 q 542 -140 542 -96 q 397 -286 542 -286 l 397 -244 z "},"Ñ":{"ha":915,"x_min":111,"x_max":804,"o":"m 571 1026 q 506 1037 536 1024 q 438 1075 475 1050 q 386 1103 404 1094 q 347 1113 368 1113 q 295 1099 318 1113 q 244 1049 272 1086 l 193 1097 q 339 1204 257 1204 q 399 1192 371 1204 q 464 1157 428 1179 q 519 1128 499 1138 q 563 1118 540 1118 q 620 1132 594 1118 q 674 1185 646 1146 l 725 1131 q 571 1026 668 1029 m 111 972 l 246 972 l 683 211 l 683 972 l 804 972 l 804 0 l 671 0 l 233 761 l 233 0 l 111 0 l 111 972 z "},"Ŋ":{"ha":915,"x_min":111,"x_max":804,"o":"m 804 972 l 804 -114 q 753 -255 804 -206 q 608 -304 703 -304 q 517 -289 550 -304 l 517 -175 q 589 -185 546 -185 q 656 -159 635 -185 q 678 -76 678 -133 l 678 0 l 671 0 l 233 761 l 233 0 l 111 0 l 111 972 l 246 972 l 683 211 l 683 972 l 804 972 z "},"Ó":{"ha":1107,"x_min":53,"x_max":1056,"o":"m 386 1099 l 689 1242 l 732 1160 l 431 1015 l 386 1099 m 554 -22 q 289 47 403 -22 q 114 231 175 115 q 53 486 53 347 q 114 741 53 625 q 289 926 175 857 q 554 994 403 994 q 819 926 706 994 q 994 741 933 857 q 1056 486 1056 625 q 994 231 1056 347 q 819 47 933 115 q 554 -22 706 -22 m 554 92 q 751 145 668 92 q 879 288 835 199 q 922 486 924 378 q 879 684 924 594 q 751 827 835 774 q 554 881 668 881 q 357 827 440 881 q 229 684 274 774 q 185 486 185 594 q 229 288 185 378 q 357 145 274 199 q 554 92 440 92 z "},"Ŏ":{"ha":1107,"x_min":53,"x_max":1056,"o":"m 554 1019 q 394 1072 460 1019 q 322 1207 329 1125 l 422 1207 q 465 1132 429 1157 q 554 1107 501 1107 q 643 1132 607 1107 q 686 1207 679 1157 l 786 1207 q 714 1072 779 1125 q 554 1019 649 1019 m 554 -22 q 289 47 403 -22 q 114 231 175 115 q 53 486 53 347 q 114 741 53 625 q 289 926 175 857 q 554 994 403 994 q 819 926 706 994 q 994 741 933 857 q 1056 486 1056 625 q 994 231 1056 347 q 819 47 933 115 q 554 -22 706 -22 m 554 92 q 751 145 668 92 q 879 288 835 199 q 922 486 924 378 q 879 684 924 594 q 751 827 835 774 q 554 881 668 881 q 357 827 440 881 q 229 684 274 774 q 185 486 185 594 q 229 288 185 378 q 357 145 274 199 q 554 92 440 92 z "},"Ô":{"ha":1107,"x_min":53,"x_max":1056,"o":"m 739 1078 l 675 1021 l 551 1133 l 426 1021 l 363 1078 l 551 1239 l 739 1078 m 554 -22 q 289 47 403 -22 q 114 231 175 115 q 53 486 53 347 q 114 741 53 625 q 289 926 175 857 q 554 994 403 994 q 819 926 706 994 q 994 741 933 857 q 1056 486 1056 625 q 994 231 1056 347 q 819 47 933 115 q 554 -22 706 -22 m 554 92 q 751 145 668 92 q 879 288 835 199 q 922 486 924 378 q 879 684 924 594 q 751 827 835 774 q 554 881 668 881 q 357 827 440 881 q 229 684 274 774 q 185 486 185 594 q 229 288 185 378 q 357 145 274 199 q 554 92 440 92 z "},"Ö":{"ha":1107,"x_min":53,"x_max":1056,"o":"m 389 1038 q 324 1065 350 1038 q 297 1131 297 1092 q 324 1197 297 1169 q 389 1224 350 1224 q 456 1197 429 1224 q 483 1131 483 1169 q 456 1065 483 1092 q 389 1038 428 1038 m 718 1038 q 652 1065 679 1038 q 625 1131 625 1092 q 652 1197 625 1169 q 718 1224 679 1224 q 784 1197 757 1224 q 811 1131 811 1169 q 784 1065 811 1092 q 718 1038 757 1038 m 554 -22 q 289 47 403 -22 q 114 231 175 115 q 53 486 53 347 q 114 741 53 625 q 289 926 175 857 q 554 994 403 994 q 819 926 706 994 q 994 741 933 857 q 1056 486 1056 625 q 994 231 1056 347 q 819 47 933 115 q 554 -22 706 -22 m 554 92 q 751 145 668 92 q 879 288 835 199 q 922 486 924 378 q 879 684 924 594 q 751 827 835 774 q 554 881 668 881 q 357 827 440 881 q 229 684 274 774 q 185 486 185 594 q 229 288 185 378 q 357 145 274 199 q 554 92 440 92 z "},"Œ":{"ha":1221,"x_min":53,"x_max":1128,"o":"m 739 858 l 739 540 l 1128 540 l 1128 426 l 739 426 l 739 114 l 1128 114 l 1128 0 l 519 0 q 272 66 378 0 q 110 243 167 132 q 53 486 53 354 q 110 729 53 618 q 272 906 167 840 q 519 972 378 972 l 1128 972 l 1128 858 l 739 858 m 613 114 l 613 858 l 519 858 q 341 808 417 858 q 225 673 265 758 q 185 486 185 588 q 225 299 185 385 q 341 164 265 214 q 519 114 417 114 l 613 114 z "},"Ò":{"ha":1107,"x_min":53,"x_max":1056,"o":"m 375 1160 l 418 1242 l 721 1099 l 676 1015 l 375 1160 m 554 -22 q 289 47 403 -22 q 114 231 175 115 q 53 486 53 347 q 114 741 53 625 q 289 926 175 857 q 554 994 403 994 q 819 926 706 994 q 994 741 933 857 q 1056 486 1056 625 q 994 231 1056 347 q 819 47 933 115 q 554 -22 706 -22 m 554 92 q 751 145 668 92 q 879 288 835 199 q 922 486 924 378 q 879 684 924 594 q 751 827 835 774 q 554 881 668 881 q 357 827 440 881 q 229 684 274 774 q 185 486 185 594 q 229 288 185 378 q 357 145 274 199 q 554 92 440 92 z "},"Ő":{"ha":1107,"x_min":53,"x_max":1056,"o":"m 364 1051 l 540 1233 l 649 1192 l 432 1022 l 364 1051 m 613 1051 l 789 1233 l 896 1189 l 679 1021 l 613 1051 m 554 -22 q 289 47 403 -22 q 114 231 175 115 q 53 486 53 347 q 114 741 53 625 q 289 926 175 857 q 554 994 403 994 q 819 926 706 994 q 994 741 933 857 q 1056 486 1056 625 q 994 231 1056 347 q 819 47 933 115 q 554 -22 706 -22 m 554 92 q 751 145 668 92 q 879 288 835 199 q 922 486 924 378 q 879 684 924 594 q 751 827 835 774 q 554 881 668 881 q 357 827 440 881 q 229 684 274 774 q 185 486 185 594 q 229 288 185 378 q 357 145 274 199 q 554 92 440 92 z "},"Ō":{"ha":1107,"x_min":53,"x_max":1056,"o":"m 296 1163 l 813 1163 l 813 1067 l 296 1067 l 296 1163 m 554 -22 q 289 47 403 -22 q 114 231 175 115 q 53 486 53 347 q 114 741 53 625 q 289 926 175 857 q 554 994 403 994 q 819 926 706 994 q 994 741 933 857 q 1056 486 1056 625 q 994 231 1056 347 q 819 47 933 115 q 554 -22 706 -22 m 554 92 q 751 145 668 92 q 879 288 835 199 q 922 486 924 378 q 879 684 924 594 q 751 827 835 774 q 554 881 668 881 q 357 827 440 881 q 229 684 274 774 q 185 486 185 594 q 229 288 185 378 q 357 145 274 199 q 554 92 440 92 z "},"Ø":{"ha":1107,"x_min":53,"x_max":1056,"o":"m 800 938 q 988 753 921 874 q 1056 486 1056 632 q 994 231 1056 347 q 819 47 933 115 q 554 -22 706 -22 q 399 -1 469 -22 l 349 -117 l 263 -79 l 311 33 q 121 218 189 97 q 53 486 53 339 q 114 741 53 625 q 289 926 175 857 q 554 994 403 994 q 714 972 636 994 l 761 1083 l 846 1046 l 800 938 m 185 486 q 230 285 185 376 q 358 144 275 194 l 668 865 q 554 881 614 881 q 357 827 440 881 q 229 684 274 774 q 185 486 185 594 m 554 92 q 751 144 667 92 q 878 287 835 197 q 922 483 922 376 q 878 684 922 593 q 753 826 835 775 l 444 107 q 554 92 497 92 z "},"Ǿ":{"ha":1107,"x_min":53,"x_max":1056,"o":"m 435 1015 l 390 1099 l 693 1242 l 736 1160 l 435 1015 m 800 938 q 988 753 921 874 q 1056 486 1056 632 q 994 231 1056 347 q 819 47 933 115 q 554 -22 706 -22 q 399 -1 469 -22 l 349 -117 l 263 -79 l 311 33 q 121 218 189 97 q 53 486 53 339 q 114 741 53 625 q 289 926 175 857 q 554 994 403 994 q 714 972 636 994 l 761 1083 l 846 1046 l 800 938 m 185 486 q 230 285 185 376 q 358 144 275 194 l 668 865 q 554 881 614 881 q 357 827 440 881 q 229 684 274 774 q 185 486 185 594 m 554 92 q 751 144 667 92 q 878 287 835 197 q 922 483 922 376 q 878 684 922 593 q 753 826 835 775 l 444 107 q 554 92 497 92 z "},"Õ":{"ha":1107,"x_min":53,"x_max":1056,"o":"m 667 1026 q 601 1037 632 1024 q 533 1075 571 1050 q 482 1103 500 1094 q 443 1113 464 1113 q 391 1099 414 1113 q 340 1049 368 1086 l 289 1097 q 435 1204 353 1204 q 495 1192 467 1204 q 560 1157 524 1179 q 615 1128 594 1138 q 658 1118 636 1118 q 716 1132 690 1118 q 769 1185 742 1146 l 821 1131 q 667 1026 764 1029 m 554 -22 q 289 47 403 -22 q 114 231 175 115 q 53 486 53 347 q 114 741 53 625 q 289 926 175 857 q 554 994 403 994 q 819 926 706 994 q 994 741 933 857 q 1056 486 1056 625 q 994 231 1056 347 q 819 47 933 115 q 554 -22 706 -22 m 554 92 q 751 145 668 92 q 879 288 835 199 q 922 486 924 378 q 879 684 924 594 q 751 827 835 774 q 554 881 668 881 q 357 827 440 881 q 229 684 274 774 q 185 486 185 594 q 229 288 185 378 q 357 145 274 199 q 554 92 440 92 z "},"Ŕ":{"ha":842,"x_min":111,"x_max":786,"o":"m 294 1015 l 250 1099 l 553 1242 l 596 1160 l 294 1015 m 786 636 q 729 438 786 522 q 575 319 672 353 l 772 0 l 628 0 l 440 301 l 238 301 l 238 0 l 111 0 l 111 972 l 460 972 q 628 929 554 972 q 744 810 703 886 q 786 636 786 733 m 238 415 l 453 415 q 558 444 511 415 q 633 523 606 472 q 660 636 660 574 q 633 751 660 700 q 558 830 606 801 q 453 858 511 858 l 238 858 l 238 415 z "},"Ř":{"ha":842,"x_min":111,"x_max":786,"o":"m 418 1022 l 231 1183 l 294 1240 l 418 1128 l 543 1240 l 607 1183 l 418 1022 m 786 636 q 729 438 786 522 q 575 319 672 353 l 772 0 l 628 0 l 440 301 l 238 301 l 238 0 l 111 0 l 111 972 l 460 972 q 628 929 554 972 q 744 810 703 886 q 786 636 786 733 m 238 415 l 453 415 q 558 444 511 415 q 633 523 606 472 q 660 636 660 574 q 633 751 660 700 q 558 830 606 801 q 453 858 511 858 l 238 858 l 238 415 z "},"Ŗ":{"ha":842,"x_min":111,"x_max":786,"o":"m 786 636 q 729 438 786 522 q 575 319 672 353 l 772 0 l 628 0 l 440 301 l 238 301 l 238 0 l 111 0 l 111 972 l 460 972 q 628 929 554 972 q 744 810 703 886 q 786 636 786 733 m 238 415 l 453 415 q 558 444 511 415 q 633 523 606 472 q 660 636 660 574 q 633 751 660 700 q 558 830 606 801 q 453 858 511 858 l 238 858 l 238 415 m 357 -244 q 432 -208 415 -244 q 444 -167 444 -194 q 434 -176 442 -172 q 417 -179 426 -179 q 364 -160 385 -179 q 343 -111 343 -140 q 363 -62 343 -82 q 414 -42 383 -42 q 478 -69 454 -42 q 501 -140 501 -96 q 357 -286 501 -286 l 357 -244 z "},"Ś":{"ha":774,"x_min":49,"x_max":718,"o":"m 218 1099 l 521 1242 l 564 1160 l 263 1015 l 218 1099 m 400 -22 q 142 65 235 -22 q 49 310 49 153 l 175 310 q 235 149 175 208 q 399 89 296 89 q 540 131 490 89 q 590 250 590 174 q 555 353 590 314 q 435 421 519 392 l 274 478 q 78 733 78 540 q 117 869 78 810 q 225 962 156 929 q 383 994 294 994 q 613 914 526 994 q 699 697 699 833 l 572 697 q 522 837 572 788 q 379 886 472 886 q 252 847 299 886 q 206 740 206 807 q 246 639 206 679 q 376 568 286 599 l 526 515 q 718 253 718 447 q 678 108 718 171 q 567 12 639 46 q 400 -22 496 -22 z "},"Š":{"ha":774,"x_min":49,"x_max":718,"o":"m 199 1183 l 263 1240 l 386 1128 l 511 1240 l 575 1183 l 386 1022 l 199 1183 m 400 -22 q 142 65 235 -22 q 49 310 49 153 l 175 310 q 235 149 175 208 q 399 89 296 89 q 540 131 490 89 q 590 250 590 174 q 555 353 590 314 q 435 421 519 392 l 274 478 q 78 733 78 540 q 117 869 78 810 q 225 962 156 929 q 383 994 294 994 q 613 914 526 994 q 699 697 699 833 l 572 697 q 522 837 572 788 q 379 886 472 886 q 252 847 299 886 q 206 740 206 807 q 246 639 206 679 q 376 568 286 599 l 526 515 q 718 253 718 447 q 678 108 718 171 q 567 12 639 46 q 400 -22 496 -22 z "},"Ş":{"ha":774,"x_min":49,"x_max":718,"o":"m 718 253 q 638 58 718 133 q 422 -22 557 -17 l 422 -87 q 448 -72 431 -78 q 486 -67 465 -67 q 561 -97 531 -67 q 592 -178 592 -126 q 558 -265 592 -231 q 465 -300 525 -300 q 382 -274 414 -300 q 346 -200 350 -247 l 410 -200 q 426 -232 411 -219 q 464 -244 442 -244 q 508 -228 492 -244 q 524 -179 524 -211 q 508 -132 524 -149 q 467 -115 493 -115 q 414 -143 431 -115 l 357 -143 l 357 -21 q 130 77 211 -10 q 49 310 49 164 l 175 310 q 235 149 175 208 q 399 89 296 89 q 540 131 490 89 q 590 250 590 174 q 555 353 590 314 q 435 421 519 392 l 274 478 q 78 733 78 540 q 117 869 78 810 q 225 962 156 929 q 383 994 294 994 q 613 914 526 994 q 699 697 699 833 l 572 697 q 522 837 572 788 q 379 886 472 886 q 252 847 299 886 q 206 740 206 807 q 246 639 206 679 q 376 568 286 599 l 526 515 q 718 253 718 447 z "},"Ŝ":{"ha":774,"x_min":49,"x_max":718,"o":"m 571 1078 l 507 1021 l 383 1133 l 258 1021 l 194 1078 l 383 1239 l 571 1078 m 400 -22 q 142 65 235 -22 q 49 310 49 153 l 175 310 q 235 149 175 208 q 399 89 296 89 q 540 131 490 89 q 590 250 590 174 q 555 353 590 314 q 435 421 519 392 l 274 478 q 78 733 78 540 q 117 869 78 810 q 225 962 156 929 q 383 994 294 994 q 613 914 526 994 q 699 697 699 833 l 572 697 q 522 837 572 788 q 379 886 472 886 q 252 847 299 886 q 206 740 206 807 q 246 639 206 679 q 376 568 286 599 l 526 515 q 718 253 718 447 q 678 108 718 171 q 567 12 639 46 q 400 -22 496 -22 z "},"Ș":{"ha":774,"x_min":49,"x_max":718,"o":"m 400 -22 q 142 65 235 -22 q 49 310 49 153 l 175 310 q 235 149 175 208 q 399 89 296 89 q 540 131 490 89 q 590 250 590 174 q 555 353 590 314 q 435 421 519 392 l 274 478 q 78 733 78 540 q 117 869 78 810 q 225 962 156 929 q 383 994 294 994 q 613 914 526 994 q 699 697 699 833 l 572 697 q 522 837 572 788 q 379 886 472 886 q 252 847 299 886 q 206 740 206 807 q 246 639 206 679 q 376 568 286 599 l 526 515 q 718 253 718 447 q 678 108 718 171 q 567 12 639 46 q 400 -22 496 -22 m 329 -244 q 404 -208 388 -244 q 417 -167 417 -194 q 406 -176 414 -172 q 389 -179 399 -179 q 336 -160 357 -179 q 315 -111 315 -140 q 335 -62 315 -82 q 386 -42 356 -42 q 450 -69 426 -42 q 474 -140 474 -96 q 329 -286 474 -286 l 329 -244 z "},"Ŧ":{"ha":724,"x_min":8,"x_max":715,"o":"m 425 853 l 425 633 l 626 633 l 626 542 l 425 542 l 425 0 l 299 0 l 299 542 l 99 542 l 99 633 l 299 633 l 299 853 l 8 853 l 8 972 l 715 972 l 715 853 l 425 853 z "},"Ť":{"ha":724,"x_min":8,"x_max":715,"o":"m 175 1183 l 239 1240 l 363 1128 l 488 1240 l 551 1183 l 363 1022 l 175 1183 m 299 853 l 8 853 l 8 972 l 715 972 l 715 853 l 425 853 l 425 0 l 299 0 l 299 853 z "},"Ţ":{"ha":724,"x_min":8,"x_max":715,"o":"m 299 853 l 8 853 l 8 972 l 715 972 l 715 853 l 425 853 l 425 0 l 299 0 l 299 853 m 438 -300 q 354 -274 386 -300 q 318 -200 322 -247 l 382 -200 q 399 -232 383 -219 q 436 -244 414 -244 q 480 -228 464 -244 q 496 -179 496 -211 q 481 -132 496 -149 q 439 -115 465 -115 q 386 -143 403 -115 l 329 -143 l 329 0 l 394 0 l 394 -87 q 420 -72 403 -78 q 458 -67 438 -67 q 533 -97 503 -67 q 564 -178 564 -126 q 531 -265 564 -231 q 438 -300 497 -300 z "},"Ț":{"ha":724,"x_min":8,"x_max":715,"o":"m 299 853 l 8 853 l 8 972 l 715 972 l 715 853 l 425 853 l 425 0 l 299 0 l 299 853 m 301 -244 q 376 -208 360 -244 q 389 -167 389 -194 q 378 -176 386 -172 q 361 -179 371 -179 q 308 -160 329 -179 q 288 -111 288 -140 q 308 -62 288 -82 q 358 -42 328 -42 q 422 -69 399 -42 q 446 -140 446 -96 q 301 -286 446 -286 l 301 -244 z "},"Þ":{"ha":807,"x_min":111,"x_max":788,"o":"m 461 818 q 634 773 560 818 q 748 652 708 728 q 788 486 788 576 q 748 321 788 396 q 634 201 708 246 q 461 156 560 156 l 238 156 l 238 0 l 111 0 l 111 972 l 238 972 l 238 818 l 461 818 m 454 269 q 563 299 515 269 q 635 378 610 328 q 661 486 661 428 q 635 595 661 546 q 563 674 610 644 q 454 703 515 703 l 238 703 l 238 269 l 454 269 z "},"Ú":{"ha":882,"x_min":88,"x_max":796,"o":"m 274 1099 l 576 1242 l 619 1160 l 318 1015 l 274 1099 m 442 -22 q 183 67 278 -22 q 88 319 88 156 l 88 972 l 214 972 l 214 326 q 275 152 214 213 q 442 92 336 92 q 608 152 547 92 q 668 326 668 213 l 668 972 l 796 972 l 796 319 q 701 67 796 156 q 442 -22 606 -22 z "},"Ŭ":{"ha":882,"x_min":88,"x_max":796,"o":"m 442 1019 q 282 1072 347 1019 q 210 1207 217 1125 l 310 1207 q 353 1132 317 1157 q 442 1107 389 1107 q 531 1132 494 1107 q 574 1207 567 1157 l 674 1207 q 601 1072 667 1125 q 442 1019 536 1019 m 442 -22 q 183 67 278 -22 q 88 319 88 156 l 88 972 l 214 972 l 214 326 q 275 152 214 213 q 442 92 336 92 q 608 152 547 92 q 668 326 668 213 l 668 972 l 796 972 l 796 319 q 701 67 796 156 q 442 -22 606 -22 z "},"Û":{"ha":882,"x_min":88,"x_max":796,"o":"m 626 1078 l 563 1021 l 439 1133 l 314 1021 l 250 1078 l 439 1239 l 626 1078 m 442 -22 q 183 67 278 -22 q 88 319 88 156 l 88 972 l 214 972 l 214 326 q 275 152 214 213 q 442 92 336 92 q 608 152 547 92 q 668 326 668 213 l 668 972 l 796 972 l 796 319 q 701 67 796 156 q 442 -22 606 -22 z "},"Ü":{"ha":882,"x_min":88,"x_max":796,"o":"m 276 1038 q 211 1065 238 1038 q 185 1131 185 1092 q 211 1197 185 1169 q 276 1224 238 1224 q 344 1197 317 1224 q 371 1131 371 1169 q 343 1065 371 1092 q 276 1038 315 1038 m 606 1038 q 540 1065 567 1038 q 513 1131 513 1092 q 540 1197 513 1169 q 606 1224 567 1224 q 672 1197 644 1224 q 699 1131 699 1169 q 672 1065 699 1092 q 606 1038 644 1038 m 442 -22 q 183 67 278 -22 q 88 319 88 156 l 88 972 l 214 972 l 214 326 q 275 152 214 213 q 442 92 336 92 q 608 152 547 92 q 668 326 668 213 l 668 972 l 796 972 l 796 319 q 701 67 796 156 q 442 -22 606 -22 z "},"Ù":{"ha":882,"x_min":88,"x_max":796,"o":"m 263 1160 l 306 1242 l 608 1099 l 564 1015 l 263 1160 m 442 -22 q 183 67 278 -22 q 88 319 88 156 l 88 972 l 214 972 l 214 326 q 275 152 214 213 q 442 92 336 92 q 608 152 547 92 q 668 326 668 213 l 668 972 l 796 972 l 796 319 q 701 67 796 156 q 442 -22 606 -22 z "},"Ű":{"ha":882,"x_min":88,"x_max":796,"o":"m 251 1051 l 428 1233 l 536 1192 l 319 1022 l 251 1051 m 500 1051 l 676 1233 l 783 1189 l 567 1021 l 500 1051 m 442 -22 q 183 67 278 -22 q 88 319 88 156 l 88 972 l 214 972 l 214 326 q 275 152 214 213 q 442 92 336 92 q 608 152 547 92 q 668 326 668 213 l 668 972 l 796 972 l 796 319 q 701 67 796 156 q 442 -22 606 -22 z "},"Ū":{"ha":882,"x_min":88,"x_max":796,"o":"m 183 1163 l 700 1163 l 700 1067 l 183 1067 l 183 1163 m 442 -22 q 183 67 278 -22 q 88 319 88 156 l 88 972 l 214 972 l 214 326 q 275 152 214 213 q 442 92 336 92 q 608 152 547 92 q 668 326 668 213 l 668 972 l 796 972 l 796 319 q 701 67 796 156 q 442 -22 606 -22 z "},"Ų":{"ha":882,"x_min":88,"x_max":796,"o":"m 796 972 l 796 319 q 730 99 796 185 q 546 -11 664 14 q 478 -58 500 -29 q 457 -122 457 -87 q 480 -181 457 -158 q 540 -203 503 -203 q 619 -185 579 -203 l 618 -274 q 508 -294 564 -294 q 390 -256 435 -294 q 346 -158 346 -217 q 428 -22 346 -81 q 178 70 269 -18 q 88 319 88 158 l 88 972 l 214 972 l 214 326 q 275 152 214 213 q 442 92 336 92 q 608 152 547 92 q 668 326 668 213 l 668 972 l 796 972 z "},"Ů":{"ha":882,"x_min":88,"x_max":796,"o":"m 442 911 q 354 934 394 911 q 290 996 314 957 q 267 1081 267 1035 q 290 1165 267 1126 q 354 1226 314 1203 q 442 1249 394 1249 q 529 1226 489 1249 q 593 1165 569 1203 q 617 1081 617 1126 q 593 996 617 1035 q 529 934 569 957 q 442 911 489 911 m 442 985 q 510 1013 482 985 q 538 1081 538 1040 q 510 1148 538 1121 q 442 1175 482 1175 q 374 1148 401 1175 q 346 1081 346 1121 q 374 1013 346 1040 q 442 985 401 985 m 442 -22 q 183 67 278 -22 q 88 319 88 156 l 88 972 l 214 972 l 214 326 q 275 152 214 213 q 442 92 336 92 q 608 152 547 92 q 668 326 668 213 l 668 972 l 796 972 l 796 319 q 701 67 796 156 q 442 -22 606 -22 z "},"Ũ":{"ha":882,"x_min":88,"x_max":796,"o":"m 554 1026 q 489 1037 519 1024 q 421 1075 458 1050 q 369 1103 388 1094 q 331 1113 351 1113 q 278 1099 301 1113 q 228 1049 256 1086 l 176 1097 q 322 1204 240 1204 q 383 1192 354 1204 q 447 1157 411 1179 q 503 1128 482 1138 q 546 1118 524 1118 q 603 1132 578 1118 q 657 1185 629 1146 l 708 1131 q 554 1026 651 1029 m 442 -22 q 183 67 278 -22 q 88 319 88 156 l 88 972 l 214 972 l 214 326 q 275 152 214 213 q 442 92 336 92 q 608 152 547 92 q 668 326 668 213 l 668 972 l 796 972 l 796 319 q 701 67 796 156 q 442 -22 606 -22 z "},"Ẃ":{"ha":1331,"x_min":4,"x_max":1328,"o":"m 499 1099 l 801 1242 l 844 1160 l 543 1015 l 499 1099 m 4 972 l 138 972 l 386 208 l 618 972 l 714 972 l 944 208 l 1194 972 l 1328 972 l 994 0 l 901 0 l 665 753 l 431 0 l 336 0 l 4 972 z "},"Ŵ":{"ha":1331,"x_min":4,"x_max":1328,"o":"m 851 1078 l 788 1021 l 664 1133 l 539 1021 l 475 1078 l 664 1239 l 851 1078 m 4 972 l 138 972 l 386 208 l 618 972 l 714 972 l 944 208 l 1194 972 l 1328 972 l 994 0 l 901 0 l 665 753 l 431 0 l 336 0 l 4 972 z "},"Ẅ":{"ha":1331,"x_min":4,"x_max":1328,"o":"m 501 1038 q 436 1065 463 1038 q 410 1131 410 1092 q 436 1197 410 1169 q 501 1224 463 1224 q 569 1197 542 1224 q 596 1131 596 1169 q 568 1065 596 1092 q 501 1038 540 1038 m 831 1038 q 765 1065 792 1038 q 738 1131 738 1092 q 765 1197 738 1169 q 831 1224 792 1224 q 897 1197 869 1224 q 924 1131 924 1169 q 897 1065 924 1092 q 831 1038 869 1038 m 4 972 l 138 972 l 386 208 l 618 972 l 714 972 l 944 208 l 1194 972 l 1328 972 l 994 0 l 901 0 l 665 753 l 431 0 l 336 0 l 4 972 z "},"Ẁ":{"ha":1331,"x_min":4,"x_max":1328,"o":"m 488 1160 l 531 1242 l 833 1099 l 789 1015 l 488 1160 m 4 972 l 138 972 l 386 208 l 618 972 l 714 972 l 944 208 l 1194 972 l 1328 972 l 994 0 l 901 0 l 665 753 l 431 0 l 336 0 l 4 972 z "},"Ý":{"ha":767,"x_min":-14,"x_max":788,"o":"m 276 1015 l 232 1099 l 535 1242 l 578 1160 l 276 1015 m 788 972 l 299 0 l 158 0 l 354 386 l -14 972 l 133 972 l 418 517 l 649 972 l 788 972 z "},"Ŷ":{"ha":767,"x_min":-14,"x_max":788,"o":"m 272 1021 l 208 1078 l 397 1239 l 585 1078 l 521 1021 l 397 1133 l 272 1021 m 788 972 l 299 0 l 158 0 l 354 386 l -14 972 l 133 972 l 418 517 l 649 972 l 788 972 z "},"Ÿ":{"ha":767,"x_min":-14,"x_max":788,"o":"m 235 1038 q 169 1065 196 1038 q 143 1131 143 1092 q 169 1197 143 1169 q 235 1224 196 1224 q 302 1197 275 1224 q 329 1131 329 1169 q 301 1065 329 1092 q 235 1038 274 1038 m 564 1038 q 498 1065 525 1038 q 471 1131 471 1092 q 498 1197 471 1169 q 564 1224 525 1224 q 630 1197 603 1224 q 657 1131 657 1169 q 630 1065 657 1092 q 564 1038 603 1038 m 788 972 l 299 0 l 158 0 l 354 386 l -14 972 l 133 972 l 418 517 l 649 972 l 788 972 z "},"Ỳ":{"ha":767,"x_min":-14,"x_max":788,"o":"m 522 1015 l 221 1160 l 264 1242 l 567 1099 l 522 1015 m 788 972 l 299 0 l 158 0 l 354 386 l -14 972 l 133 972 l 418 517 l 649 972 l 788 972 z "},"Ź":{"ha":796,"x_min":32,"x_max":751,"o":"m 249 1099 l 551 1242 l 594 1160 l 293 1015 l 249 1099 m 540 858 l 83 858 l 83 972 l 751 972 l 247 114 l 746 114 l 746 0 l 32 0 l 540 858 z "},"Ž":{"ha":796,"x_min":32,"x_max":751,"o":"m 229 1183 l 293 1240 l 417 1128 l 542 1240 l 606 1183 l 417 1022 l 229 1183 m 540 858 l 83 858 l 83 972 l 751 972 l 247 114 l 746 114 l 746 0 l 32 0 l 540 858 z "},"Ż":{"ha":796,"x_min":32,"x_max":751,"o":"m 417 1033 q 349 1060 375 1033 q 324 1128 324 1088 q 350 1194 324 1167 q 417 1221 376 1221 q 483 1194 457 1221 q 510 1128 510 1167 q 484 1060 510 1088 q 417 1033 458 1033 m 540 858 l 83 858 l 83 972 l 751 972 l 247 114 l 746 114 l 746 0 l 32 0 l 540 858 z "},"a":{"ha":821,"x_min":53,"x_max":717,"o":"m 369 -17 q 199 27 271 -17 q 90 147 126 71 q 53 319 53 224 q 92 491 53 414 q 203 613 131 568 q 372 657 275 657 q 507 622 447 657 q 597 528 567 588 l 597 640 l 717 640 l 717 0 l 597 0 l 597 113 q 504 19 567 54 q 369 -17 442 -17 m 386 92 q 545 158 488 92 q 603 319 603 224 q 545 483 603 417 q 386 549 488 549 q 231 484 289 549 q 172 319 172 419 q 231 156 172 219 q 386 92 289 92 z "},"b":{"ha":821,"x_min":104,"x_max":769,"o":"m 460 657 q 621 615 550 657 q 731 495 692 572 q 769 319 769 418 q 729 146 769 222 q 617 26 689 69 q 453 -17 544 -17 q 317 18 379 -17 q 225 113 256 53 l 225 0 l 104 0 l 104 972 l 225 972 l 225 528 q 319 622 256 588 q 460 657 382 657 m 436 92 q 589 156 529 92 q 649 319 649 219 q 622 438 649 385 q 546 519 594 490 q 436 549 497 549 q 280 485 340 549 q 219 319 219 421 q 280 156 219 219 q 436 92 340 92 z "},"c":{"ha":722,"x_min":53,"x_max":669,"o":"m 371 -17 q 202 26 274 -17 q 92 144 131 68 q 53 319 53 221 q 92 494 53 418 q 202 613 131 571 q 371 656 274 656 q 579 591 500 656 q 669 418 658 526 l 549 418 q 491 515 536 482 q 371 547 446 547 q 225 487 278 547 q 172 319 172 426 q 225 152 172 213 q 371 92 278 92 q 491 124 446 92 q 549 217 536 156 l 669 217 q 579 47 658 110 q 371 -17 500 -17 z "},"d":{"ha":821,"x_min":53,"x_max":717,"o":"m 717 972 l 717 0 l 597 0 l 597 113 q 504 19 567 54 q 369 -17 442 -17 q 199 27 271 -17 q 90 147 126 71 q 53 319 53 224 q 92 491 53 414 q 203 613 131 568 q 372 657 275 657 q 507 622 447 657 q 597 528 567 588 l 597 594 l 596 594 l 596 972 l 717 972 m 386 92 q 545 158 488 92 q 603 319 603 224 q 545 483 603 417 q 386 549 488 549 q 231 484 289 549 q 172 319 172 419 q 231 156 172 219 q 386 92 289 92 z "},"e":{"ha":724,"x_min":53,"x_max":672,"o":"m 672 357 q 668 285 672 331 l 172 285 q 228 141 174 193 q 374 89 282 89 q 480 113 436 89 q 543 183 524 138 l 664 183 q 567 39 647 94 q 374 -17 486 -17 q 140 74 226 -17 q 53 321 53 165 q 92 498 53 422 q 202 615 131 574 q 368 657 274 657 q 527 619 458 657 q 634 513 596 581 q 672 357 672 444 m 553 378 q 503 511 553 463 q 367 560 454 560 q 228 510 281 560 q 172 378 176 460 l 553 378 z "},"f":{"ha":488,"x_min":29,"x_max":467,"o":"m 401 872 q 319 849 351 872 q 286 754 286 826 l 286 640 l 467 640 l 467 539 l 286 539 l 286 0 l 165 0 l 165 539 l 29 539 l 29 640 l 165 640 l 165 751 q 229 932 165 883 q 369 981 293 981 q 467 967 432 981 l 467 863 q 401 872 431 872 z "},"g":{"ha":821,"x_min":53,"x_max":717,"o":"m 717 640 l 717 17 q 606 -253 717 -167 q 385 -312 525 -312 q 259 -297 318 -312 q 158 -250 200 -281 q 89 -176 114 -219 q 63 -81 64 -132 l 189 -81 q 247 -175 197 -139 q 385 -211 296 -211 q 544 -158 490 -211 q 597 8 597 -104 l 597 113 q 504 18 568 53 q 369 -17 440 -17 q 202 28 274 -17 q 92 149 131 72 q 53 319 53 225 q 93 491 53 414 q 206 613 133 568 q 372 657 279 657 q 506 622 446 657 q 597 528 567 588 l 597 640 l 717 640 m 386 92 q 501 122 451 92 q 576 205 550 153 q 603 319 603 257 q 576 435 603 383 q 501 518 550 488 q 386 549 451 549 q 232 484 292 549 q 172 319 172 419 q 232 156 172 221 q 386 92 292 92 z "},"h":{"ha":786,"x_min":106,"x_max":689,"o":"m 450 657 q 628 590 568 657 q 689 394 689 524 l 689 0 l 568 0 l 568 342 q 530 501 568 450 q 407 553 492 553 q 273 496 319 553 q 226 339 226 439 l 226 0 l 106 0 l 106 972 l 226 972 l 226 522 q 310 621 253 585 q 450 657 368 657 z "},"i":{"ha":329,"x_min":67,"x_max":263,"o":"m 104 640 l 225 640 l 225 0 l 104 0 l 104 640 m 165 750 q 94 778 122 750 q 67 847 67 806 q 94 917 67 889 q 165 946 122 946 q 235 917 207 946 q 263 847 263 889 q 235 778 263 806 q 165 750 207 750 z "},"j":{"ha":333,"x_min":-28,"x_max":267,"o":"m 61 -304 q -28 -289 1 -304 l -28 -179 q 38 -189 -1 -189 q 108 -103 108 -189 l 108 640 l 229 640 l 229 -136 q 185 -260 229 -217 q 61 -304 142 -304 m 169 750 q 99 778 126 750 q 71 847 71 806 q 99 917 71 889 q 169 946 126 946 q 239 917 211 946 q 267 847 267 889 q 239 778 267 806 q 169 750 211 750 z "},"k":{"ha":701,"x_min":104,"x_max":664,"o":"m 353 331 l 664 0 l 504 0 l 225 301 l 225 0 l 104 0 l 104 972 l 225 972 l 225 349 l 508 640 l 664 640 l 353 331 z "},"l":{"ha":329,"x_min":104,"x_max":225,"o":"m 104 972 l 225 972 l 225 0 l 104 0 l 104 972 z "},"m":{"ha":1156,"x_min":104,"x_max":1058,"o":"m 104 640 l 225 640 l 225 524 q 294 619 244 581 q 417 657 344 657 q 551 621 499 657 q 622 519 603 585 q 700 618 644 579 q 828 657 756 657 q 1004 589 950 657 q 1058 406 1058 521 l 1058 0 l 938 0 l 938 382 q 799 553 938 553 q 683 499 725 553 q 642 333 642 446 l 642 0 l 521 0 l 521 374 q 485 512 521 471 q 383 553 449 553 q 267 498 308 553 q 225 333 225 443 l 225 0 l 104 0 l 104 640 z "},"n":{"ha":785,"x_min":104,"x_max":688,"o":"m 104 640 l 225 640 l 225 522 q 309 621 251 585 q 449 657 367 657 q 627 590 567 657 q 688 394 688 524 l 688 0 l 567 0 l 567 342 q 528 501 567 450 q 406 553 490 553 q 272 496 318 553 q 225 339 225 439 l 225 0 l 104 0 l 104 640 z "},"o":{"ha":772,"x_min":53,"x_max":719,"o":"m 386 -17 q 209 28 285 -17 q 93 149 133 72 q 53 321 53 226 q 93 491 53 414 q 209 613 133 568 q 386 657 285 657 q 563 613 488 657 q 678 491 638 568 q 719 321 719 414 q 679 149 719 226 q 563 28 639 72 q 386 -17 488 -17 m 386 92 q 542 156 485 92 q 599 321 599 221 q 542 484 599 419 q 386 549 485 549 q 230 484 288 549 q 172 319 172 419 q 230 156 172 221 q 386 92 288 92 z "},"p":{"ha":821,"x_min":104,"x_max":769,"o":"m 460 657 q 621 615 550 657 q 731 495 692 572 q 769 319 769 418 q 729 146 769 222 q 617 26 689 69 q 453 -17 544 -17 q 317 18 379 -17 q 225 113 256 53 l 225 -296 l 104 -296 l 104 640 l 225 640 l 225 528 q 319 622 256 588 q 460 657 382 657 m 436 92 q 589 156 529 92 q 649 319 649 219 q 622 438 649 385 q 546 519 594 490 q 436 549 497 549 q 280 485 340 549 q 219 319 219 421 q 280 156 219 219 q 436 92 340 92 z "},"q":{"ha":821,"x_min":53,"x_max":718,"o":"m 718 46 l 718 -296 l 597 -296 l 597 113 q 504 19 567 54 q 369 -17 442 -17 q 199 27 271 -17 q 90 147 126 71 q 53 319 53 224 q 92 491 53 414 q 203 613 131 568 q 372 657 275 657 q 507 622 447 657 q 597 528 567 588 l 597 640 l 717 640 l 717 46 l 718 46 m 386 92 q 545 158 488 92 q 603 319 603 224 q 545 483 603 417 q 386 549 488 549 q 231 484 289 549 q 172 319 172 419 q 231 156 172 219 q 386 92 289 92 z "},"r":{"ha":501,"x_min":104,"x_max":471,"o":"m 104 640 l 225 640 l 225 494 q 296 610 243 571 q 413 650 349 650 q 471 644 450 650 l 471 533 q 411 538 450 538 q 273 465 321 538 q 225 281 225 393 l 225 0 l 104 0 l 104 640 z "},"s":{"ha":625,"x_min":53,"x_max":565,"o":"m 319 -17 q 178 12 239 -17 q 85 88 118 40 q 53 192 53 135 l 172 192 q 214 112 172 143 q 325 81 256 81 q 411 106 379 81 q 443 174 443 131 q 428 226 443 203 q 381 257 413 249 l 210 301 q 106 366 140 321 q 72 474 72 411 q 103 568 72 526 q 188 633 133 610 q 313 657 242 657 q 494 603 429 657 q 558 464 558 550 l 439 464 q 404 537 439 510 q 307 564 369 564 q 224 541 257 564 q 192 479 192 518 q 263 397 192 414 l 422 353 q 528 289 490 335 q 565 185 565 243 q 500 38 565 93 q 319 -17 435 -17 z "},"t":{"ha":494,"x_min":33,"x_max":453,"o":"m 372 101 q 453 108 422 101 l 453 1 q 346 -8 411 -8 q 206 34 263 -8 q 149 213 149 76 l 149 539 l 33 539 l 33 640 l 149 640 l 149 843 l 269 843 l 269 640 l 431 640 l 431 539 l 269 539 l 269 239 q 282 151 269 181 q 316 111 294 121 q 372 101 338 101 z "},"u":{"ha":781,"x_min":97,"x_max":676,"o":"m 340 -17 q 163 51 229 -17 q 97 246 97 118 l 97 640 l 218 640 l 218 275 q 374 88 218 88 q 510 147 465 88 q 556 290 556 206 l 556 640 l 676 640 l 676 0 l 556 0 l 556 117 q 473 19 529 56 q 340 -17 417 -17 z "},"v":{"ha":671,"x_min":4,"x_max":667,"o":"m 4 640 l 133 640 l 335 161 l 538 640 l 667 640 l 385 0 l 286 0 l 4 640 z "},"w":{"ha":1035,"x_min":11,"x_max":1025,"o":"m 11 640 l 143 640 l 297 174 l 453 640 l 582 640 l 738 174 l 892 640 l 1025 640 l 788 0 l 685 0 l 517 492 l 350 0 l 247 0 l 11 640 z "},"x":{"ha":664,"x_min":21,"x_max":643,"o":"m 261 322 l 24 640 l 172 640 l 332 411 l 490 640 l 639 640 l 401 322 l 643 0 l 493 0 l 332 235 l 169 0 l 21 0 l 261 322 z "},"y":{"ha":788,"x_min":97,"x_max":683,"o":"m 683 640 l 683 -12 q 596 -243 683 -164 q 386 -312 518 -312 q 169 -246 247 -312 q 97 -81 99 -186 l 219 -81 q 385 -211 226 -211 q 516 -160 469 -211 q 563 -4 563 -110 l 563 115 q 476 19 533 54 q 340 -17 419 -17 q 158 58 219 -17 q 97 258 97 132 l 97 640 l 218 640 l 218 283 q 255 141 218 190 q 381 92 292 92 q 515 155 468 92 q 563 311 563 218 l 563 640 l 683 640 z "},"z":{"ha":611,"x_min":18,"x_max":596,"o":"m 393 538 l 44 538 l 44 640 l 596 640 l 219 101 l 578 101 l 578 0 l 18 0 l 393 538 z "},"á":{"ha":821,"x_min":53,"x_max":717,"o":"m 369 -17 q 199 27 271 -17 q 90 147 126 71 q 53 319 53 224 q 92 491 53 414 q 203 613 131 568 q 372 657 275 657 q 507 622 447 657 q 597 528 567 588 l 597 640 l 717 640 l 717 0 l 597 0 l 597 113 q 504 19 567 54 q 369 -17 442 -17 m 386 92 q 545 158 488 92 q 603 319 603 224 q 545 483 603 417 q 386 549 488 549 q 231 484 289 549 q 172 319 172 419 q 231 156 172 219 q 386 92 289 92 m 168 797 l 549 956 l 589 865 l 208 703 l 168 797 z "},"ă":{"ha":821,"x_min":53,"x_max":717,"o":"m 369 -17 q 199 27 271 -17 q 90 147 126 71 q 53 319 53 224 q 92 491 53 414 q 203 613 131 568 q 372 657 275 657 q 507 622 447 657 q 597 528 567 588 l 597 640 l 717 640 l 717 0 l 597 0 l 597 113 q 504 19 567 54 q 369 -17 442 -17 m 386 92 q 545 158 488 92 q 603 319 603 224 q 545 483 603 417 q 386 549 488 549 q 231 484 289 549 q 172 319 172 419 q 231 156 172 219 q 386 92 289 92 m 389 706 q 219 761 285 706 q 147 915 153 817 l 250 915 q 292 825 254 856 q 389 794 331 794 q 487 825 449 794 q 529 915 525 856 l 632 915 q 560 761 625 817 q 389 706 494 706 z "},"â":{"ha":821,"x_min":53,"x_max":717,"o":"m 369 -17 q 199 27 271 -17 q 90 147 126 71 q 53 319 53 224 q 92 491 53 414 q 203 613 131 568 q 372 657 275 657 q 507 622 447 657 q 597 528 567 588 l 597 640 l 717 640 l 717 0 l 597 0 l 597 113 q 504 19 567 54 q 369 -17 442 -17 m 386 92 q 545 158 488 92 q 603 319 603 224 q 545 483 603 417 q 386 549 488 549 q 231 484 289 549 q 172 319 172 419 q 231 156 172 219 q 386 92 289 92 m 633 767 l 568 694 l 390 850 l 213 696 l 147 767 l 390 969 l 633 767 z "},"ä":{"ha":821,"x_min":53,"x_max":717,"o":"m 369 -17 q 199 27 271 -17 q 90 147 126 71 q 53 319 53 224 q 92 491 53 414 q 203 613 131 568 q 372 657 275 657 q 507 622 447 657 q 597 528 567 588 l 597 640 l 717 640 l 717 0 l 597 0 l 597 113 q 504 19 567 54 q 369 -17 442 -17 m 386 92 q 545 158 488 92 q 603 319 603 224 q 545 483 603 417 q 386 549 488 549 q 231 484 289 549 q 172 319 172 419 q 231 156 172 219 q 386 92 289 92 m 250 749 q 184 776 211 749 q 157 842 157 803 q 184 908 157 881 q 250 935 211 935 q 316 908 289 935 q 343 842 343 882 q 316 776 343 803 q 250 749 289 749 m 528 749 q 462 776 489 749 q 435 842 435 803 q 462 908 435 881 q 528 935 489 935 q 594 908 567 935 q 621 842 621 882 q 594 776 621 803 q 528 749 567 749 z "},"æ":{"ha":1210,"x_min":60,"x_max":1157,"o":"m 1157 354 q 1154 282 1157 314 l 657 282 q 715 139 660 190 q 861 88 769 88 q 1028 190 988 88 l 1150 190 q 1053 39 1133 97 q 861 -19 972 -19 q 705 17 774 -19 q 596 121 636 54 q 314 -17 510 -17 q 130 34 200 -17 q 60 169 60 85 q 135 326 60 274 q 233 364 175 354 q 401 374 290 374 l 546 374 l 546 429 q 505 524 546 488 q 376 560 464 560 q 251 526 294 560 q 203 431 207 493 l 82 431 q 169 595 88 533 q 378 657 250 657 q 529 629 468 657 q 622 551 590 601 q 724 628 664 601 q 856 654 785 654 q 1012 616 943 654 q 1119 510 1081 578 q 1157 354 1157 442 m 1039 375 q 990 510 1039 460 q 856 560 940 560 q 715 509 769 560 q 658 375 660 458 l 1039 375 m 546 282 l 357 282 q 224 254 267 282 q 182 179 182 226 q 223 104 182 129 q 338 79 264 79 q 484 124 422 79 q 546 254 546 169 l 546 282 z "},"ǽ":{"ha":1210,"x_min":60,"x_max":1157,"o":"m 1157 354 q 1154 282 1157 314 l 657 282 q 715 139 660 190 q 861 88 769 88 q 1028 190 988 88 l 1150 190 q 1053 39 1133 97 q 861 -19 972 -19 q 705 17 774 -19 q 596 121 636 54 q 314 -17 510 -17 q 130 34 200 -17 q 60 169 60 85 q 135 326 60 274 q 233 364 175 354 q 401 374 290 374 l 546 374 l 546 429 q 505 524 546 488 q 376 560 464 560 q 251 526 294 560 q 203 431 207 493 l 82 431 q 169 595 88 533 q 378 657 250 657 q 529 629 468 657 q 622 551 590 601 q 724 628 664 601 q 856 654 785 654 q 1012 616 943 654 q 1119 510 1081 578 q 1157 354 1157 442 m 1039 375 q 990 510 1039 460 q 856 560 940 560 q 715 509 769 560 q 658 375 660 458 l 1039 375 m 546 282 l 357 282 q 224 254 267 282 q 182 179 182 226 q 223 104 182 129 q 338 79 264 79 q 484 124 422 79 q 546 254 546 169 l 546 282 m 396 797 l 776 956 l 817 865 l 436 703 l 396 797 z "},"à":{"ha":821,"x_min":53,"x_max":717,"o":"m 369 -17 q 199 27 271 -17 q 90 147 126 71 q 53 319 53 224 q 92 491 53 414 q 203 613 131 568 q 372 657 275 657 q 507 622 447 657 q 597 528 567 588 l 597 640 l 717 640 l 717 0 l 597 0 l 597 113 q 504 19 567 54 q 369 -17 442 -17 m 386 92 q 545 158 488 92 q 603 319 603 224 q 545 483 603 417 q 386 549 488 549 q 231 484 289 549 q 172 319 172 419 q 231 156 172 219 q 386 92 289 92 m 169 864 l 210 954 l 590 796 l 550 701 l 169 864 z "},"ā":{"ha":821,"x_min":53,"x_max":717,"o":"m 369 -17 q 199 27 271 -17 q 90 147 126 71 q 53 319 53 224 q 92 491 53 414 q 203 613 131 568 q 372 657 275 657 q 507 622 447 657 q 597 528 567 588 l 597 640 l 717 640 l 717 0 l 597 0 l 597 113 q 504 19 567 54 q 369 -17 442 -17 m 386 92 q 545 158 488 92 q 603 319 603 224 q 545 483 603 417 q 386 549 488 549 q 231 484 289 549 q 172 319 172 419 q 231 156 172 219 q 386 92 289 92 m 168 868 l 610 868 l 610 771 l 168 771 l 168 868 z "},"ą":{"ha":821,"x_min":53,"x_max":763,"o":"m 683 -203 q 763 -185 722 -203 l 761 -274 q 651 -294 707 -294 q 533 -256 578 -294 q 489 -158 489 -217 q 519 -72 489 -112 q 607 0 549 -32 l 597 0 l 597 113 q 504 19 567 54 q 369 -17 442 -17 q 199 27 271 -17 q 90 147 126 71 q 53 319 53 224 q 92 491 53 414 q 203 613 131 568 q 372 657 275 657 q 507 622 447 657 q 597 528 567 588 l 597 640 l 717 640 l 717 0 l 728 0 q 631 -48 661 -14 q 600 -122 600 -82 q 623 -181 600 -158 q 683 -203 646 -203 m 386 92 q 545 158 488 92 q 603 319 603 224 q 545 483 603 417 q 386 549 488 549 q 231 484 289 549 q 172 319 172 419 q 231 156 172 219 q 386 92 289 92 z "},"å":{"ha":821,"x_min":53,"x_max":717,"o":"m 369 -17 q 199 27 271 -17 q 90 147 126 71 q 53 319 53 224 q 92 491 53 414 q 203 613 131 568 q 372 657 275 657 q 507 622 447 657 q 597 528 567 588 l 597 640 l 717 640 l 717 0 l 597 0 l 597 113 q 504 19 567 54 q 369 -17 442 -17 m 386 92 q 545 158 488 92 q 603 319 603 224 q 545 483 603 417 q 386 549 488 549 q 231 484 289 549 q 172 319 172 419 q 231 156 172 219 q 386 92 289 92 m 389 694 q 279 738 324 694 q 235 846 235 781 q 279 954 235 911 q 389 997 324 997 q 499 954 454 997 q 543 846 543 911 q 499 738 543 781 q 389 694 454 694 m 389 757 q 449 782 425 757 q 474 846 474 807 q 449 910 474 885 q 389 935 425 935 q 328 910 353 935 q 304 846 304 885 q 328 782 304 807 q 389 757 353 757 z "},"ã":{"ha":821,"x_min":53,"x_max":717,"o":"m 369 -17 q 199 27 271 -17 q 90 147 126 71 q 53 319 53 224 q 92 491 53 414 q 203 613 131 568 q 372 657 275 657 q 507 622 447 657 q 597 528 567 588 l 597 640 l 717 640 l 717 0 l 597 0 l 597 113 q 504 19 567 54 q 369 -17 442 -17 m 386 92 q 545 158 488 92 q 603 319 603 224 q 545 483 603 417 q 386 549 488 549 q 231 484 289 549 q 172 319 172 419 q 231 156 172 219 q 386 92 289 92 m 493 738 q 444 747 467 738 q 385 779 422 757 q 335 808 356 799 q 294 817 315 817 q 246 804 269 817 q 196 758 222 792 l 150 824 q 289 917 207 917 q 338 906 314 917 q 394 875 363 896 q 446 847 426 856 q 486 838 465 838 q 535 851 513 838 q 582 894 557 864 l 629 831 q 493 738 574 738 z "},"ć":{"ha":722,"x_min":53,"x_max":669,"o":"m 371 -17 q 202 26 274 -17 q 92 144 131 68 q 53 319 53 221 q 92 494 53 418 q 202 613 131 571 q 371 656 274 656 q 579 591 500 656 q 669 418 658 526 l 549 418 q 491 515 536 482 q 371 547 446 547 q 225 487 278 547 q 172 319 172 426 q 225 152 172 213 q 371 92 278 92 q 491 124 446 92 q 549 217 536 156 l 669 217 q 579 47 658 110 q 371 -17 500 -17 m 147 797 l 528 956 l 568 865 l 188 703 l 147 797 z "},"č":{"ha":722,"x_min":53,"x_max":669,"o":"m 371 -17 q 202 26 274 -17 q 92 144 131 68 q 53 319 53 221 q 92 494 53 418 q 202 613 131 571 q 371 656 274 656 q 579 591 500 656 q 669 418 658 526 l 549 418 q 491 515 536 482 q 371 547 446 547 q 225 487 278 547 q 172 319 172 426 q 225 152 172 213 q 371 92 278 92 q 491 124 446 92 q 549 217 536 156 l 669 217 q 579 47 658 110 q 371 -17 500 -17 m 125 900 l 190 971 l 368 817 l 546 972 l 611 900 l 368 697 l 125 900 z "},"ç":{"ha":722,"x_min":53,"x_max":669,"o":"m 371 92 q 491 124 446 92 q 549 217 536 156 l 669 217 q 588 54 658 117 q 400 -15 517 -8 l 400 -87 q 426 -72 408 -78 q 464 -67 443 -67 q 539 -97 508 -67 q 569 -178 569 -126 q 536 -265 569 -231 q 443 -300 503 -300 q 360 -274 392 -300 q 324 -200 328 -247 l 388 -200 q 404 -232 389 -219 q 442 -244 419 -244 q 485 -228 469 -244 q 501 -179 501 -211 q 486 -132 501 -149 q 444 -115 471 -115 q 392 -143 408 -115 l 335 -143 l 335 -15 q 128 88 204 -3 q 53 319 53 179 q 92 494 53 418 q 202 613 131 571 q 371 656 274 656 q 579 591 500 656 q 669 418 658 526 l 549 418 q 491 515 536 482 q 371 547 446 547 q 225 487 278 547 q 172 319 172 426 q 225 152 172 213 q 371 92 278 92 z "},"ĉ":{"ha":722,"x_min":53,"x_max":669,"o":"m 371 -17 q 202 26 274 -17 q 92 144 131 68 q 53 319 53 221 q 92 494 53 418 q 202 613 131 571 q 371 656 274 656 q 579 591 500 656 q 669 418 658 526 l 549 418 q 491 515 536 482 q 371 547 446 547 q 225 487 278 547 q 172 319 172 426 q 225 152 172 213 q 371 92 278 92 q 491 124 446 92 q 549 217 536 156 l 669 217 q 579 47 658 110 q 371 -17 500 -17 m 613 767 l 547 694 l 369 850 l 192 696 l 126 767 l 369 969 l 613 767 z "},"ċ":{"ha":722,"x_min":53,"x_max":669,"o":"m 371 -17 q 202 26 274 -17 q 92 144 131 68 q 53 319 53 221 q 92 494 53 418 q 202 613 131 571 q 371 656 274 656 q 579 591 500 656 q 669 418 658 526 l 549 418 q 491 515 536 482 q 371 547 446 547 q 225 487 278 547 q 172 319 172 426 q 225 152 172 213 q 371 92 278 92 q 491 124 446 92 q 549 217 536 156 l 669 217 q 579 47 658 110 q 371 -17 500 -17 m 368 750 q 297 778 325 750 q 269 847 269 806 q 297 917 269 889 q 368 946 325 946 q 438 917 410 946 q 465 847 465 889 q 438 778 465 806 q 368 750 410 750 z "},"ď":{"ha":1001,"x_min":53,"x_max":993,"o":"m 717 972 l 717 0 l 597 0 l 597 113 q 504 19 567 54 q 369 -17 442 -17 q 199 27 271 -17 q 90 147 126 71 q 53 319 53 224 q 92 491 53 414 q 203 613 131 568 q 372 657 275 657 q 507 622 447 657 q 597 528 567 588 l 597 594 l 596 594 l 596 972 l 717 972 m 386 92 q 545 158 488 92 q 603 319 603 224 q 545 483 603 417 q 386 549 488 549 q 231 484 289 549 q 172 319 172 419 q 231 156 172 219 q 386 92 289 92 m 846 689 q 819 692 828 689 l 819 747 q 844 746 829 746 q 915 785 899 746 q 924 828 924 806 q 922 847 924 840 q 868 824 907 824 q 813 847 835 824 q 792 907 792 871 q 816 969 792 944 q 881 993 840 993 q 962 956 931 993 q 993 851 993 918 q 954 732 993 775 q 846 689 915 689 z "},"đ":{"ha":821,"x_min":53,"x_max":790,"o":"m 790 744 l 717 744 l 717 0 l 597 0 l 597 113 q 504 19 567 54 q 369 -17 442 -17 q 199 27 271 -17 q 90 147 126 71 q 53 319 53 224 q 92 491 53 414 q 203 613 131 568 q 372 657 275 657 q 507 622 447 657 q 597 528 567 588 l 597 594 l 596 594 l 596 744 l 381 744 l 381 826 l 596 826 l 596 972 l 717 972 l 717 826 l 790 826 l 790 744 m 386 92 q 545 158 488 92 q 603 319 603 224 q 545 483 603 417 q 386 549 488 549 q 231 484 289 549 q 172 319 172 419 q 231 156 172 219 q 386 92 289 92 z "},"é":{"ha":724,"x_min":53,"x_max":672,"o":"m 672 357 q 668 285 672 331 l 172 285 q 228 141 174 193 q 374 89 282 89 q 480 113 436 89 q 543 183 524 138 l 664 183 q 567 39 647 94 q 374 -17 486 -17 q 140 74 226 -17 q 53 321 53 165 q 92 498 53 422 q 202 615 131 574 q 368 657 274 657 q 527 619 458 657 q 634 513 596 581 q 672 357 672 444 m 553 378 q 503 511 553 463 q 367 560 454 560 q 228 510 281 560 q 172 378 176 460 l 553 378 m 149 797 l 529 956 l 569 865 l 189 703 l 149 797 z "},"ĕ":{"ha":724,"x_min":53,"x_max":672,"o":"m 672 357 q 668 285 672 331 l 172 285 q 228 141 174 193 q 374 89 282 89 q 480 113 436 89 q 543 183 524 138 l 664 183 q 567 39 647 94 q 374 -17 486 -17 q 140 74 226 -17 q 53 321 53 165 q 92 498 53 422 q 202 615 131 574 q 368 657 274 657 q 527 619 458 657 q 634 513 596 581 q 672 357 672 444 m 553 378 q 503 511 553 463 q 367 560 454 560 q 228 510 281 560 q 172 378 176 460 l 553 378 m 369 706 q 199 761 265 706 q 128 915 133 817 l 231 915 q 273 825 235 856 q 369 794 311 794 q 467 825 429 794 q 510 915 506 856 l 613 915 q 540 761 606 817 q 369 706 475 706 z "},"ě":{"ha":724,"x_min":53,"x_max":672,"o":"m 672 357 q 668 285 672 331 l 172 285 q 228 141 174 193 q 374 89 282 89 q 480 113 436 89 q 543 183 524 138 l 664 183 q 567 39 647 94 q 374 -17 486 -17 q 140 74 226 -17 q 53 321 53 165 q 92 498 53 422 q 202 615 131 574 q 368 657 274 657 q 527 619 458 657 q 634 513 596 581 q 672 357 672 444 m 553 378 q 503 511 553 463 q 367 560 454 560 q 228 510 281 560 q 172 378 176 460 l 553 378 m 126 900 l 192 971 l 369 817 l 547 972 l 613 900 l 369 697 l 126 900 z "},"ê":{"ha":724,"x_min":53,"x_max":672,"o":"m 672 357 q 668 285 672 331 l 172 285 q 228 141 174 193 q 374 89 282 89 q 480 113 436 89 q 543 183 524 138 l 664 183 q 567 39 647 94 q 374 -17 486 -17 q 140 74 226 -17 q 53 321 53 165 q 92 498 53 422 q 202 615 131 574 q 368 657 274 657 q 527 619 458 657 q 634 513 596 581 q 672 357 672 444 m 553 378 q 503 511 553 463 q 367 560 454 560 q 228 510 281 560 q 172 378 176 460 l 553 378 m 614 767 l 549 694 l 371 850 l 193 696 l 128 767 l 371 969 l 614 767 z "},"ë":{"ha":724,"x_min":53,"x_max":672,"o":"m 672 357 q 668 285 672 331 l 172 285 q 228 141 174 193 q 374 89 282 89 q 480 113 436 89 q 543 183 524 138 l 664 183 q 567 39 647 94 q 374 -17 486 -17 q 140 74 226 -17 q 53 321 53 165 q 92 498 53 422 q 202 615 131 574 q 368 657 274 657 q 527 619 458 657 q 634 513 596 581 q 672 357 672 444 m 553 378 q 503 511 553 463 q 367 560 454 560 q 228 510 281 560 q 172 378 176 460 l 553 378 m 231 749 q 165 776 192 749 q 138 842 138 803 q 165 908 138 881 q 231 935 192 935 q 297 908 269 935 q 324 842 324 882 q 297 776 324 803 q 231 749 269 749 m 508 749 q 442 776 469 749 q 415 842 415 803 q 442 908 415 881 q 508 935 469 935 q 574 908 547 935 q 601 842 601 882 q 574 776 601 803 q 508 749 547 749 z "},"ė":{"ha":724,"x_min":53,"x_max":672,"o":"m 672 357 q 668 285 672 331 l 172 285 q 228 141 174 193 q 374 89 282 89 q 480 113 436 89 q 543 183 524 138 l 664 183 q 567 39 647 94 q 374 -17 486 -17 q 140 74 226 -17 q 53 321 53 165 q 92 498 53 422 q 202 615 131 574 q 368 657 274 657 q 527 619 458 657 q 634 513 596 581 q 672 357 672 444 m 553 378 q 503 511 553 463 q 367 560 454 560 q 228 510 281 560 q 172 378 176 460 l 553 378 m 369 750 q 299 778 326 750 q 271 847 271 806 q 299 917 271 889 q 369 946 326 946 q 439 917 411 946 q 467 847 467 889 q 439 778 467 806 q 369 750 411 750 z "},"è":{"ha":724,"x_min":53,"x_max":672,"o":"m 672 357 q 668 285 672 331 l 172 285 q 228 141 174 193 q 374 89 282 89 q 480 113 436 89 q 543 183 524 138 l 664 183 q 567 39 647 94 q 374 -17 486 -17 q 140 74 226 -17 q 53 321 53 165 q 92 498 53 422 q 202 615 131 574 q 368 657 274 657 q 527 619 458 657 q 634 513 596 581 q 672 357 672 444 m 553 378 q 503 511 553 463 q 367 560 454 560 q 228 510 281 560 q 172 378 176 460 l 553 378 m 150 864 l 190 954 l 571 796 l 531 701 l 150 864 z "},"ē":{"ha":724,"x_min":53,"x_max":672,"o":"m 672 357 q 668 285 672 331 l 172 285 q 228 141 174 193 q 374 89 282 89 q 480 113 436 89 q 543 183 524 138 l 664 183 q 567 39 647 94 q 374 -17 486 -17 q 140 74 226 -17 q 53 321 53 165 q 92 498 53 422 q 202 615 131 574 q 368 657 274 657 q 527 619 458 657 q 634 513 596 581 q 672 357 672 444 m 553 378 q 503 511 553 463 q 367 560 454 560 q 228 510 281 560 q 172 378 176 460 l 553 378 m 149 868 l 590 868 l 590 771 l 149 771 l 149 868 z "},"ę":{"ha":724,"x_min":53,"x_max":672,"o":"m 672 357 q 668 285 672 331 l 172 285 q 228 141 174 193 q 374 89 282 89 q 480 113 436 89 q 543 183 524 138 l 664 183 q 604 71 651 119 q 486 0 557 22 l 485 0 q 460 -7 468 -6 q 383 -55 408 -24 q 358 -122 358 -86 q 381 -181 358 -158 q 442 -203 404 -203 q 521 -185 481 -203 l 519 -274 q 410 -294 465 -294 q 292 -256 336 -294 q 247 -158 247 -217 q 340 -15 247 -75 q 130 85 207 -4 q 53 321 53 175 q 92 498 53 422 q 202 615 131 574 q 368 657 274 657 q 527 619 458 657 q 634 513 596 581 q 672 357 672 444 m 553 378 q 503 511 553 463 q 367 560 454 560 q 228 510 281 560 q 172 378 176 460 l 553 378 z "},"ğ":{"ha":821,"x_min":53,"x_max":717,"o":"m 717 640 l 717 17 q 606 -253 717 -167 q 385 -312 525 -312 q 259 -297 318 -312 q 158 -250 200 -281 q 89 -176 114 -219 q 63 -81 64 -132 l 189 -81 q 247 -175 197 -139 q 385 -211 296 -211 q 544 -158 490 -211 q 597 8 597 -104 l 597 113 q 504 18 568 53 q 369 -17 440 -17 q 202 28 274 -17 q 92 149 131 72 q 53 319 53 225 q 93 491 53 414 q 206 613 133 568 q 372 657 279 657 q 506 622 446 657 q 597 528 567 588 l 597 640 l 717 640 m 386 92 q 501 122 451 92 q 576 205 550 153 q 603 319 603 257 q 576 435 603 383 q 501 518 550 488 q 386 549 451 549 q 232 484 292 549 q 172 319 172 419 q 232 156 172 221 q 386 92 292 92 m 394 706 q 224 761 290 706 q 153 915 158 817 l 256 915 q 298 825 260 856 q 394 794 336 794 q 492 825 454 794 q 535 915 531 856 l 638 915 q 565 761 631 817 q 394 706 500 706 z "},"ĝ":{"ha":821,"x_min":53,"x_max":717,"o":"m 717 640 l 717 17 q 606 -253 717 -167 q 385 -312 525 -312 q 259 -297 318 -312 q 158 -250 200 -281 q 89 -176 114 -219 q 63 -81 64 -132 l 189 -81 q 247 -175 197 -139 q 385 -211 296 -211 q 544 -158 490 -211 q 597 8 597 -104 l 597 113 q 504 18 568 53 q 369 -17 440 -17 q 202 28 274 -17 q 92 149 131 72 q 53 319 53 225 q 93 491 53 414 q 206 613 133 568 q 372 657 279 657 q 506 622 446 657 q 597 528 567 588 l 597 640 l 717 640 m 386 92 q 501 122 451 92 q 576 205 550 153 q 603 319 603 257 q 576 435 603 383 q 501 518 550 488 q 386 549 451 549 q 232 484 292 549 q 172 319 172 419 q 232 156 172 221 q 386 92 292 92 m 639 767 l 574 694 l 396 850 l 218 696 l 153 767 l 396 969 l 639 767 z "},"ģ":{"ha":821,"x_min":53,"x_max":717,"o":"m 717 640 l 717 17 q 606 -253 717 -167 q 385 -312 525 -312 q 259 -297 318 -312 q 158 -250 200 -281 q 89 -176 114 -219 q 63 -81 64 -132 l 189 -81 q 247 -175 197 -139 q 385 -211 296 -211 q 544 -158 490 -211 q 597 8 597 -104 l 597 113 q 504 18 568 53 q 369 -17 440 -17 q 202 28 274 -17 q 92 149 131 72 q 53 319 53 225 q 93 491 53 414 q 206 613 133 568 q 372 657 279 657 q 506 622 446 657 q 597 528 567 588 l 597 640 l 717 640 m 386 92 q 501 122 451 92 q 576 205 550 153 q 603 319 603 257 q 576 435 603 383 q 501 518 550 488 q 386 549 451 549 q 232 484 292 549 q 172 319 172 419 q 232 156 172 221 q 386 92 292 92 m 442 919 q 367 886 386 919 q 350 842 347 865 q 382 856 356 856 q 431 835 411 856 q 450 785 450 814 q 429 734 450 754 q 376 714 408 714 q 315 745 339 714 q 290 825 290 776 q 331 925 290 888 q 442 963 371 963 l 442 919 z "},"ġ":{"ha":821,"x_min":53,"x_max":717,"o":"m 717 640 l 717 17 q 606 -253 717 -167 q 385 -312 525 -312 q 259 -297 318 -312 q 158 -250 200 -281 q 89 -176 114 -219 q 63 -81 64 -132 l 189 -81 q 247 -175 197 -139 q 385 -211 296 -211 q 544 -158 490 -211 q 597 8 597 -104 l 597 113 q 504 18 568 53 q 369 -17 440 -17 q 202 28 274 -17 q 92 149 131 72 q 53 319 53 225 q 93 491 53 414 q 206 613 133 568 q 372 657 279 657 q 506 622 446 657 q 597 528 567 588 l 597 640 l 717 640 m 386 92 q 501 122 451 92 q 576 205 550 153 q 603 319 603 257 q 576 435 603 383 q 501 518 550 488 q 386 549 451 549 q 232 484 292 549 q 172 319 172 419 q 232 156 172 221 q 386 92 292 92 m 394 750 q 324 778 351 750 q 296 847 296 806 q 324 917 296 889 q 394 946 351 946 q 464 917 436 946 q 492 847 492 889 q 464 778 492 806 q 394 750 436 750 z "},"ħ":{"ha":786,"x_min":39,"x_max":689,"o":"m 450 657 q 628 590 568 657 q 689 394 689 524 l 689 0 l 568 0 l 568 342 q 530 501 568 450 q 407 553 492 553 q 273 496 319 553 q 226 339 226 439 l 226 0 l 106 0 l 106 744 l 39 744 l 39 826 l 106 826 l 106 972 l 226 972 l 226 826 l 450 826 l 450 744 l 226 744 l 226 522 q 310 621 253 585 q 450 657 368 657 z "},"ĥ":{"ha":786,"x_min":13,"x_max":689,"o":"m 165 1117 l 68 1032 l 13 1094 l 165 1222 l 319 1094 l 263 1032 l 165 1117 m 450 657 q 628 590 568 657 q 689 394 689 524 l 689 0 l 568 0 l 568 342 q 530 501 568 450 q 407 553 492 553 q 273 496 319 553 q 226 339 226 439 l 226 0 l 106 0 l 106 972 l 226 972 l 226 522 q 310 621 253 585 q 450 657 368 657 z "},"í":{"ha":329,"x_min":32,"x_max":296,"o":"m 32 800 l 240 939 l 296 856 l 88 717 l 32 800 m 104 640 l 225 640 l 225 0 l 104 0 l 104 640 z "},"ĭ":{"ha":329,"x_min":13,"x_max":317,"o":"m 164 713 q 54 754 96 713 q 13 890 13 796 l 96 890 q 164 790 100 790 q 233 890 229 790 l 317 890 q 275 754 317 796 q 164 713 233 713 m 104 640 l 225 640 l 225 0 l 104 0 l 104 640 z "},"î":{"ha":329,"x_min":-3,"x_max":333,"o":"m -3 789 l 165 943 l 333 789 l 268 718 l 165 817 l 64 719 l -3 789 m 104 640 l 225 640 l 225 0 l 104 0 l 104 640 z "},"ï":{"ha":329,"x_min":-7,"x_max":338,"o":"m 72 760 q 16 783 39 760 q -7 839 -7 807 q 16 895 -7 872 q 72 918 39 918 q 129 895 106 918 q 153 839 153 872 q 129 783 153 807 q 72 760 106 760 m 257 760 q 201 783 225 760 q 178 839 178 807 q 201 895 178 872 q 257 918 225 918 q 315 895 292 918 q 338 839 338 872 q 315 783 338 807 q 257 760 292 760 m 104 640 l 225 640 l 225 0 l 104 0 l 104 640 z "},"ı":{"ha":329,"x_min":104,"x_max":225,"o":"m 104 640 l 225 640 l 225 0 l 104 0 l 104 640 z "},"ì":{"ha":329,"x_min":32,"x_max":296,"o":"m 32 856 l 88 939 l 296 800 l 240 717 l 32 856 m 104 640 l 225 640 l 225 0 l 104 0 l 104 640 z "},"ĳ":{"ha":663,"x_min":67,"x_max":596,"o":"m 104 640 l 225 640 l 225 0 l 104 0 l 104 640 m 165 750 q 94 778 122 750 q 67 847 67 806 q 94 917 67 889 q 165 946 122 946 q 235 917 207 946 q 263 847 263 889 q 235 778 263 806 q 165 750 207 750 m 390 -304 q 301 -289 331 -304 l 301 -179 q 367 -189 328 -189 q 438 -103 438 -189 l 438 640 l 558 640 l 558 -136 q 515 -260 558 -217 q 390 -304 471 -304 m 499 750 q 428 778 456 750 q 400 847 400 806 q 428 917 400 889 q 499 946 456 946 q 568 917 540 946 q 596 847 596 889 q 568 778 596 806 q 499 750 540 750 z "},"ī":{"ha":329,"x_min":28,"x_max":303,"o":"m 28 868 l 303 868 l 303 771 l 28 771 l 28 868 m 104 640 l 225 640 l 225 0 l 104 0 l 104 640 z "},"į":{"ha":329,"x_min":-14,"x_max":263,"o":"m 104 640 l 225 640 l 225 0 l 104 0 l 104 640 m 165 750 q 94 778 122 750 q 67 847 67 806 q 94 917 67 889 q 165 946 122 946 q 235 917 207 946 q 263 847 263 889 q 235 778 263 806 q 165 750 207 750 m 149 -294 q 31 -256 75 -294 q -14 -158 -14 -217 q 16 -72 -14 -112 q 104 0 46 -32 l 225 0 q 128 -48 158 -14 q 97 -122 97 -82 q 120 -181 97 -158 q 181 -203 143 -203 q 260 -185 219 -203 l 258 -274 q 149 -294 204 -294 z "},"ĩ":{"ha":329,"x_min":21,"x_max":310,"o":"m 218 731 q 183 740 197 731 q 150 769 169 750 q 104 800 125 800 q 76 791 88 800 q 50 754 64 782 l 21 817 q 62 883 38 863 q 111 903 86 903 q 151 892 133 903 q 188 861 168 881 q 201 850 190 858 q 219 838 211 842 q 233 833 226 833 q 260 842 249 833 q 282 874 271 850 l 310 810 q 271 749 296 767 q 218 731 246 731 m 104 640 l 225 640 l 225 0 l 104 0 l 104 640 z "},"ĵ":{"ha":333,"x_min":-28,"x_max":338,"o":"m 1 789 l 169 943 l 338 789 l 272 718 l 169 817 l 68 719 l 1 789 m 61 -304 q -28 -289 1 -304 l -28 -179 q 38 -189 -1 -189 q 108 -103 108 -189 l 108 640 l 229 640 l 229 -136 q 185 -260 229 -217 q 61 -304 142 -304 z "},"ȷ":{"ha":333,"x_min":-28,"x_max":229,"o":"m 61 -304 q -28 -289 1 -304 l -28 -179 q 38 -189 -1 -189 q 108 -103 108 -189 l 108 640 l 229 640 l 229 -136 q 185 -260 229 -217 q 61 -304 142 -304 z "},"ķ":{"ha":701,"x_min":104,"x_max":664,"o":"m 353 331 l 664 0 l 504 0 l 225 301 l 225 0 l 104 0 l 104 972 l 225 972 l 225 349 l 508 640 l 664 640 l 353 331 m 304 -244 q 379 -208 363 -244 q 392 -167 392 -194 q 381 -176 389 -172 q 364 -179 374 -179 q 311 -160 332 -179 q 290 -111 290 -140 q 310 -62 290 -82 q 361 -42 331 -42 q 425 -69 401 -42 q 449 -140 449 -96 q 304 -286 449 -286 l 304 -244 z "},"ĸ":{"ha":701,"x_min":104,"x_max":664,"o":"m 353 331 l 664 0 l 504 0 l 225 301 l 225 0 l 104 0 l 104 640 l 225 640 l 225 349 l 508 640 l 664 640 l 353 331 z "},"ĺ":{"ha":329,"x_min":25,"x_max":304,"o":"m 25 1103 l 249 1242 l 304 1163 l 79 1024 l 25 1103 m 104 972 l 225 972 l 225 0 l 104 0 l 104 972 z "},"ľ":{"ha":521,"x_min":104,"x_max":519,"o":"m 104 972 l 225 972 l 225 0 l 104 0 l 104 972 m 372 689 q 346 692 354 689 l 346 747 q 371 746 356 746 q 442 785 425 746 q 450 828 450 806 q 449 847 450 840 q 394 824 433 824 q 340 847 361 824 q 318 907 318 871 q 342 969 318 944 q 407 993 367 993 q 488 956 457 993 q 519 851 519 918 q 481 732 519 775 q 372 689 442 689 z "},"ļ":{"ha":329,"x_min":90,"x_max":249,"o":"m 104 972 l 225 972 l 225 0 l 104 0 l 104 972 m 104 -244 q 179 -208 163 -244 q 192 -167 192 -194 q 181 -176 189 -172 q 164 -179 174 -179 q 111 -160 132 -179 q 90 -111 90 -140 q 110 -62 90 -82 q 161 -42 131 -42 q 225 -69 201 -42 q 249 -140 249 -96 q 104 -286 249 -286 l 104 -244 z "},"ŀ":{"ha":508,"x_min":104,"x_max":499,"o":"m 104 972 l 225 972 l 225 0 l 104 0 l 104 972 m 397 386 q 325 416 354 386 q 296 488 296 446 q 325 559 296 529 q 397 589 354 589 q 469 559 439 589 q 499 488 499 529 q 469 416 499 446 q 397 386 439 386 z "},"ł":{"ha":329,"x_min":7,"x_max":322,"o":"m 322 544 l 221 490 l 221 0 l 100 0 l 100 425 l 7 375 l 7 468 l 100 518 l 100 972 l 221 972 l 221 583 l 322 638 l 322 544 z "},"ń":{"ha":785,"x_min":104,"x_max":688,"o":"m 104 640 l 225 640 l 225 522 q 309 621 251 585 q 449 657 367 657 q 627 590 567 657 q 688 394 688 524 l 688 0 l 567 0 l 567 342 q 528 501 567 450 q 406 553 490 553 q 272 496 318 553 q 225 339 225 439 l 225 0 l 104 0 l 104 640 m 171 797 l 551 956 l 592 865 l 211 703 l 171 797 z "},"ŉ":{"ha":814,"x_min":22,"x_max":718,"o":"m 135 640 l 256 640 l 256 522 q 340 621 282 585 q 479 657 397 657 q 658 590 597 657 q 718 394 718 524 l 718 0 l 597 0 l 597 342 q 559 501 597 450 q 436 553 521 553 q 302 496 349 553 q 256 339 256 439 l 256 0 l 135 0 l 135 640 m 76 689 q 50 692 58 689 l 50 747 q 75 746 60 746 q 146 785 129 746 q 154 828 154 806 q 153 847 154 840 q 99 824 138 824 q 44 847 65 824 q 22 907 22 871 q 47 969 22 944 q 111 993 71 993 q 192 956 161 993 q 224 851 224 918 q 185 732 224 775 q 76 689 146 689 z "},"ň":{"ha":785,"x_min":104,"x_max":688,"o":"m 104 640 l 225 640 l 225 522 q 309 621 251 585 q 449 657 367 657 q 627 590 567 657 q 688 394 688 524 l 688 0 l 567 0 l 567 342 q 528 501 567 450 q 406 553 490 553 q 272 496 318 553 q 225 339 225 439 l 225 0 l 104 0 l 104 640 m 149 900 l 214 971 l 392 817 l 569 972 l 635 900 l 392 697 l 149 900 z "},"ņ":{"ha":785,"x_min":104,"x_max":688,"o":"m 104 640 l 225 640 l 225 522 q 309 621 251 585 q 449 657 367 657 q 627 590 567 657 q 688 394 688 524 l 688 0 l 567 0 l 567 342 q 528 501 567 450 q 406 553 490 553 q 272 496 318 553 q 225 339 225 439 l 225 0 l 104 0 l 104 640 m 331 -244 q 406 -208 389 -244 q 418 -167 418 -194 q 408 -176 415 -172 q 390 -179 400 -179 q 338 -160 358 -179 q 317 -111 317 -140 q 337 -62 317 -82 q 388 -42 357 -42 q 451 -69 428 -42 q 475 -140 475 -96 q 331 -286 475 -286 l 331 -244 z "},"ñ":{"ha":785,"x_min":104,"x_max":688,"o":"m 104 640 l 225 640 l 225 522 q 309 621 251 585 q 449 657 367 657 q 627 590 567 657 q 688 394 688 524 l 688 0 l 567 0 l 567 342 q 528 501 567 450 q 406 553 490 553 q 272 496 318 553 q 225 339 225 439 l 225 0 l 104 0 l 104 640 m 496 738 q 447 747 469 738 q 388 779 425 757 q 338 808 358 799 q 297 817 318 817 q 249 804 272 817 q 199 758 225 792 l 153 824 q 292 917 210 917 q 341 906 317 917 q 397 875 365 896 q 449 847 429 856 q 489 838 468 838 q 538 851 515 838 q 585 894 560 864 l 632 831 q 496 738 576 738 z "},"ŋ":{"ha":785,"x_min":104,"x_max":688,"o":"m 449 657 q 627 590 567 657 q 688 394 688 524 l 688 -136 q 644 -260 688 -217 q 519 -304 600 -304 q 432 -289 461 -304 l 432 -179 q 496 -189 457 -189 q 567 -103 567 -189 l 567 342 q 528 501 567 450 q 406 553 490 553 q 272 496 318 553 q 225 339 225 439 l 225 0 l 104 0 l 104 640 l 225 640 l 225 522 q 309 621 251 585 q 449 657 367 657 z "},"ó":{"ha":772,"x_min":53,"x_max":719,"o":"m 386 -17 q 209 28 285 -17 q 93 149 133 72 q 53 321 53 226 q 93 491 53 414 q 209 613 133 568 q 386 657 285 657 q 563 613 488 657 q 678 491 638 568 q 719 321 719 414 q 679 149 719 226 q 563 28 639 72 q 386 -17 488 -17 m 386 92 q 542 156 485 92 q 599 321 599 221 q 542 484 599 419 q 386 549 485 549 q 230 484 288 549 q 172 319 172 419 q 230 156 172 221 q 386 92 288 92 m 165 797 l 546 956 l 586 865 l 206 703 l 165 797 z "},"ŏ":{"ha":772,"x_min":53,"x_max":719,"o":"m 386 -17 q 209 28 285 -17 q 93 149 133 72 q 53 321 53 226 q 93 491 53 414 q 209 613 133 568 q 386 657 285 657 q 563 613 488 657 q 678 491 638 568 q 719 321 719 414 q 679 149 719 226 q 563 28 639 72 q 386 -17 488 -17 m 386 92 q 542 156 485 92 q 599 321 599 221 q 542 484 599 419 q 386 549 485 549 q 230 484 288 549 q 172 319 172 419 q 230 156 172 221 q 386 92 288 92 m 386 706 q 216 761 282 706 q 144 915 150 817 l 247 915 q 290 825 251 856 q 386 794 328 794 q 484 825 446 794 q 526 915 522 856 l 629 915 q 557 761 622 817 q 386 706 492 706 z "},"ô":{"ha":772,"x_min":53,"x_max":719,"o":"m 386 -17 q 209 28 285 -17 q 93 149 133 72 q 53 321 53 226 q 93 491 53 414 q 209 613 133 568 q 386 657 285 657 q 563 613 488 657 q 678 491 638 568 q 719 321 719 414 q 679 149 719 226 q 563 28 639 72 q 386 -17 488 -17 m 386 92 q 542 156 485 92 q 599 321 599 221 q 542 484 599 419 q 386 549 485 549 q 230 484 288 549 q 172 319 172 419 q 230 156 172 221 q 386 92 288 92 m 631 767 l 565 694 l 388 850 l 210 696 l 144 767 l 388 969 l 631 767 z "},"ö":{"ha":772,"x_min":53,"x_max":719,"o":"m 386 -17 q 209 28 285 -17 q 93 149 133 72 q 53 321 53 226 q 93 491 53 414 q 209 613 133 568 q 386 657 285 657 q 563 613 488 657 q 678 491 638 568 q 719 321 719 414 q 679 149 719 226 q 563 28 639 72 q 386 -17 488 -17 m 386 92 q 542 156 485 92 q 599 321 599 221 q 542 484 599 419 q 386 549 485 549 q 230 484 288 549 q 172 319 172 419 q 230 156 172 221 q 386 92 288 92 m 247 749 q 181 776 208 749 q 154 842 154 803 q 181 908 154 881 q 247 935 208 935 q 313 908 286 935 q 340 842 340 882 q 313 776 340 803 q 247 749 286 749 m 525 749 q 459 776 486 749 q 432 842 432 803 q 459 908 432 881 q 525 935 486 935 q 591 908 564 935 q 618 842 618 882 q 591 776 618 803 q 525 749 564 749 z "},"œ":{"ha":1271,"x_min":53,"x_max":1219,"o":"m 1219 357 q 1215 285 1219 331 l 719 285 q 775 141 721 193 q 921 89 829 89 q 1027 113 983 89 q 1090 183 1071 138 l 1211 183 q 1114 39 1194 94 q 921 -17 1033 -17 q 765 17 833 -17 q 656 113 697 50 q 542 17 611 51 q 386 -17 474 -17 q 209 28 285 -17 q 93 149 133 72 q 53 321 53 226 q 93 491 53 414 q 209 613 133 568 q 386 657 285 657 q 544 623 475 657 q 656 528 613 589 q 764 624 697 590 q 915 657 831 657 q 1074 619 1006 657 q 1181 513 1143 581 q 1219 357 1219 444 m 1100 378 q 1051 511 1100 463 q 914 560 1001 560 q 776 510 828 560 q 719 378 724 460 l 1100 378 m 386 92 q 542 156 485 92 q 599 321 599 221 q 542 484 599 419 q 386 549 485 549 q 230 484 288 549 q 172 319 172 419 q 230 156 172 221 q 386 92 288 92 z "},"ò":{"ha":772,"x_min":53,"x_max":719,"o":"m 386 -17 q 209 28 285 -17 q 93 149 133 72 q 53 321 53 226 q 93 491 53 414 q 209 613 133 568 q 386 657 285 657 q 563 613 488 657 q 678 491 638 568 q 719 321 719 414 q 679 149 719 226 q 563 28 639 72 q 386 -17 488 -17 m 386 92 q 542 156 485 92 q 599 321 599 221 q 542 484 599 419 q 386 549 485 549 q 230 484 288 549 q 172 319 172 419 q 230 156 172 221 q 386 92 288 92 m 167 864 l 207 954 l 588 796 l 547 701 l 167 864 z "},"ő":{"ha":772,"x_min":53,"x_max":719,"o":"m 386 -17 q 209 28 285 -17 q 93 149 133 72 q 53 321 53 226 q 93 491 53 414 q 209 613 133 568 q 386 657 285 657 q 563 613 488 657 q 678 491 638 568 q 719 321 719 414 q 679 149 719 226 q 563 28 639 72 q 386 -17 488 -17 m 386 92 q 542 156 485 92 q 599 321 599 221 q 542 484 599 419 q 386 549 485 549 q 230 484 288 549 q 172 319 172 419 q 230 156 172 221 q 386 92 288 92 m 175 722 l 349 953 l 454 900 l 235 690 l 175 722 m 439 722 l 613 953 l 718 900 l 499 690 l 439 722 z "},"ō":{"ha":772,"x_min":53,"x_max":719,"o":"m 386 -17 q 209 28 285 -17 q 93 149 133 72 q 53 321 53 226 q 93 491 53 414 q 209 613 133 568 q 386 657 285 657 q 563 613 488 657 q 678 491 638 568 q 719 321 719 414 q 679 149 719 226 q 563 28 639 72 q 386 -17 488 -17 m 386 92 q 542 156 485 92 q 599 321 599 221 q 542 484 599 419 q 386 549 485 549 q 230 484 288 549 q 172 319 172 419 q 230 156 172 221 q 386 92 288 92 m 165 868 l 607 868 l 607 771 l 165 771 l 165 868 z "},"ª":{"ha":513,"x_min":32,"x_max":460,"o":"m 221 547 q 83 602 135 547 q 32 742 32 657 q 85 883 32 826 q 222 939 138 939 q 308 918 271 939 q 361 863 344 897 l 361 928 l 460 928 l 460 556 l 361 556 l 361 621 q 307 567 344 588 q 221 547 269 547 m 247 628 q 333 661 300 628 q 365 742 365 694 q 333 823 365 790 q 247 856 300 856 q 164 823 196 856 q 132 742 132 790 q 164 660 132 693 q 247 628 196 628 z "},"º":{"ha":494,"x_min":33,"x_max":463,"o":"m 247 546 q 92 601 150 546 q 33 743 33 657 q 92 883 33 828 q 247 939 150 939 q 403 883 344 939 q 463 743 463 828 q 403 601 463 657 q 247 546 344 546 m 247 629 q 331 662 300 629 q 363 743 363 694 q 331 824 363 792 q 247 856 300 856 q 162 824 194 856 q 129 743 129 792 q 162 662 129 694 q 247 629 194 629 z "},"ø":{"ha":772,"x_min":53,"x_max":719,"o":"m 563 613 q 678 492 638 569 q 719 321 719 415 q 679 149 719 226 q 563 28 639 72 q 386 -17 488 -17 q 294 -6 342 -17 l 253 -104 l 182 -74 l 222 21 q 97 142 142 63 q 53 321 53 221 q 93 491 53 414 q 209 613 133 568 q 386 657 285 657 q 492 643 439 657 l 532 735 l 601 704 l 563 613 m 172 319 q 197 205 172 256 q 268 125 222 154 l 449 540 q 386 549 419 549 q 230 484 288 549 q 172 319 172 419 m 386 92 q 542 156 485 92 q 599 321 599 221 q 577 428 599 379 q 517 507 556 476 l 339 96 q 386 92 363 92 z "},"ǿ":{"ha":772,"x_min":53,"x_max":719,"o":"m 563 613 q 678 492 638 569 q 719 321 719 415 q 679 149 719 226 q 563 28 639 72 q 386 -17 488 -17 q 294 -6 342 -17 l 253 -104 l 182 -74 l 222 21 q 97 142 142 63 q 53 321 53 221 q 93 491 53 414 q 209 613 133 568 q 386 657 285 657 q 492 643 439 657 l 532 735 l 601 704 l 563 613 m 172 319 q 197 205 172 256 q 268 125 222 154 l 449 540 q 386 549 419 549 q 230 484 288 549 q 172 319 172 419 m 386 92 q 542 156 485 92 q 599 321 599 221 q 577 428 599 379 q 517 507 556 476 l 339 96 q 386 92 363 92 m 164 788 l 544 946 l 585 856 l 204 693 l 164 788 z "},"õ":{"ha":772,"x_min":53,"x_max":719,"o":"m 386 -17 q 209 28 285 -17 q 93 149 133 72 q 53 321 53 226 q 93 491 53 414 q 209 613 133 568 q 386 657 285 657 q 563 613 488 657 q 678 491 638 568 q 719 321 719 414 q 679 149 719 226 q 563 28 639 72 q 386 -17 488 -17 m 386 92 q 542 156 485 92 q 599 321 599 221 q 542 484 599 419 q 386 549 485 549 q 230 484 288 549 q 172 319 172 419 q 230 156 172 221 q 386 92 288 92 m 490 738 q 442 747 464 738 q 382 779 419 757 q 333 808 353 799 q 292 817 313 817 q 243 804 267 817 q 193 758 219 792 l 147 824 q 286 917 204 917 q 335 906 311 917 q 392 875 360 896 q 443 847 424 856 q 483 838 463 838 q 532 851 510 838 q 579 894 554 864 l 626 831 q 490 738 571 738 z "},"ŕ":{"ha":501,"x_min":18,"x_max":471,"o":"m 104 640 l 225 640 l 225 494 q 296 610 243 571 q 413 650 349 650 q 471 644 450 650 l 471 533 q 411 538 450 538 q 273 465 321 538 q 225 281 225 393 l 225 0 l 104 0 l 104 640 m 18 796 l 399 954 l 439 864 l 58 701 l 18 796 z "},"ř":{"ha":501,"x_min":-3,"x_max":483,"o":"m 104 640 l 225 640 l 225 494 q 296 610 243 571 q 413 650 349 650 q 471 644 450 650 l 471 533 q 411 538 450 538 q 273 465 321 538 q 225 281 225 393 l 225 0 l 104 0 l 104 640 m -3 899 l 63 969 l 240 815 l 418 971 l 483 899 l 240 696 l -3 899 z "},"ŗ":{"ha":501,"x_min":97,"x_max":471,"o":"m 104 640 l 225 640 l 225 494 q 296 610 243 571 q 413 650 349 650 q 471 644 450 650 l 471 533 q 411 538 450 538 q 273 465 321 538 q 225 281 225 393 l 225 0 l 104 0 l 104 640 m 111 -244 q 186 -208 169 -244 q 199 -167 199 -194 q 188 -176 196 -172 q 171 -179 181 -179 q 118 -160 139 -179 q 97 -111 97 -140 q 117 -62 97 -82 q 168 -42 138 -42 q 232 -69 208 -42 q 256 -140 256 -96 q 111 -286 256 -286 l 111 -244 z "},"ś":{"ha":625,"x_min":53,"x_max":565,"o":"m 319 -17 q 178 12 239 -17 q 85 88 118 40 q 53 192 53 135 l 172 192 q 214 112 172 143 q 325 81 256 81 q 411 106 379 81 q 443 174 443 131 q 428 226 443 203 q 381 257 413 249 l 210 301 q 106 366 140 321 q 72 474 72 411 q 103 568 72 526 q 188 633 133 610 q 313 657 242 657 q 494 603 429 657 q 558 464 558 550 l 439 464 q 404 537 439 510 q 307 564 369 564 q 224 541 257 564 q 192 479 192 518 q 263 397 192 414 l 422 353 q 528 289 490 335 q 565 185 565 243 q 500 38 565 93 q 319 -17 435 -17 m 88 797 l 468 956 l 508 865 l 128 703 l 88 797 z "},"š":{"ha":625,"x_min":53,"x_max":565,"o":"m 319 -17 q 178 12 239 -17 q 85 88 118 40 q 53 192 53 135 l 172 192 q 214 112 172 143 q 325 81 256 81 q 411 106 379 81 q 443 174 443 131 q 428 226 443 203 q 381 257 413 249 l 210 301 q 106 366 140 321 q 72 474 72 411 q 103 568 72 526 q 188 633 133 610 q 313 657 242 657 q 494 603 429 657 q 558 464 558 550 l 439 464 q 404 537 439 510 q 307 564 369 564 q 224 541 257 564 q 192 479 192 518 q 263 397 192 414 l 422 353 q 528 289 490 335 q 565 185 565 243 q 500 38 565 93 q 319 -17 435 -17 m 65 900 l 131 971 l 308 817 l 486 972 l 551 900 l 308 697 l 65 900 z "},"ş":{"ha":625,"x_min":53,"x_max":565,"o":"m 565 185 q 506 43 565 97 q 340 -17 446 -11 l 340 -87 q 366 -72 349 -78 q 404 -67 383 -67 q 479 -97 449 -67 q 510 -178 510 -126 q 476 -265 510 -231 q 383 -300 443 -300 q 300 -274 332 -300 q 264 -200 268 -247 l 328 -200 q 344 -232 329 -219 q 382 -244 360 -244 q 426 -228 410 -244 q 442 -179 442 -211 q 426 -132 442 -149 q 385 -115 411 -115 q 332 -143 349 -115 l 275 -143 l 275 -14 q 113 56 174 -3 q 53 192 53 114 l 172 192 q 214 112 172 143 q 325 81 256 81 q 411 106 379 81 q 443 174 443 131 q 428 226 443 203 q 381 257 413 249 l 210 301 q 106 366 140 321 q 72 474 72 411 q 103 568 72 526 q 188 633 133 610 q 313 657 242 657 q 494 603 429 657 q 558 464 558 550 l 439 464 q 404 537 439 510 q 307 564 369 564 q 224 541 257 564 q 192 479 192 518 q 263 397 192 414 l 422 353 q 528 289 490 335 q 565 185 565 243 z "},"ŝ":{"ha":625,"x_min":53,"x_max":565,"o":"m 319 -17 q 178 12 239 -17 q 85 88 118 40 q 53 192 53 135 l 172 192 q 214 112 172 143 q 325 81 256 81 q 411 106 379 81 q 443 174 443 131 q 428 226 443 203 q 381 257 413 249 l 210 301 q 106 366 140 321 q 72 474 72 411 q 103 568 72 526 q 188 633 133 610 q 313 657 242 657 q 494 603 429 657 q 558 464 558 550 l 439 464 q 404 537 439 510 q 307 564 369 564 q 224 541 257 564 q 192 479 192 518 q 263 397 192 414 l 422 353 q 528 289 490 335 q 565 185 565 243 q 500 38 565 93 q 319 -17 435 -17 m 553 767 l 488 694 l 310 850 l 132 696 l 67 767 l 310 969 l 553 767 z "},"ș":{"ha":625,"x_min":53,"x_max":565,"o":"m 319 -17 q 178 12 239 -17 q 85 88 118 40 q 53 192 53 135 l 172 192 q 214 112 172 143 q 325 81 256 81 q 411 106 379 81 q 443 174 443 131 q 428 226 443 203 q 381 257 413 249 l 210 301 q 106 366 140 321 q 72 474 72 411 q 103 568 72 526 q 188 633 133 610 q 313 657 242 657 q 494 603 429 657 q 558 464 558 550 l 439 464 q 404 537 439 510 q 307 564 369 564 q 224 541 257 564 q 192 479 192 518 q 263 397 192 414 l 422 353 q 528 289 490 335 q 565 185 565 243 q 500 38 565 93 q 319 -17 435 -17 m 247 -244 q 322 -208 306 -244 q 335 -167 335 -194 q 324 -176 332 -172 q 307 -179 317 -179 q 254 -160 275 -179 q 233 -111 233 -140 q 253 -62 233 -82 q 304 -42 274 -42 q 368 -69 344 -42 q 392 -140 392 -96 q 247 -286 392 -286 l 247 -244 z "},"ŧ":{"ha":500,"x_min":33,"x_max":458,"o":"m 378 101 q 458 108 428 101 l 458 1 q 351 -8 417 -8 q 211 34 268 -8 q 154 213 154 76 l 154 301 l 33 301 l 33 383 l 154 383 l 154 539 l 39 539 l 39 640 l 154 640 l 154 843 l 275 843 l 275 640 l 436 640 l 436 539 l 275 539 l 275 383 l 435 383 l 435 301 l 275 301 l 275 239 q 288 151 275 181 q 322 111 300 121 q 378 101 343 101 z "},"ť":{"ha":525,"x_min":33,"x_max":521,"o":"m 417 992 q 492 956 463 992 q 521 860 521 921 q 485 749 521 789 q 385 708 449 708 q 360 711 367 708 l 360 763 q 383 761 368 761 q 449 797 431 761 q 456 856 458 821 q 404 833 440 833 q 353 856 374 833 q 333 911 333 878 q 356 969 333 946 q 417 992 379 992 m 269 239 q 282 151 269 181 q 316 111 294 121 q 372 101 338 101 q 453 108 422 101 l 453 1 q 346 -8 411 -8 q 206 34 263 -8 q 149 213 149 76 l 149 539 l 33 539 l 33 640 l 149 640 l 149 843 l 269 843 l 269 640 l 431 640 l 431 539 l 269 539 l 269 239 z "},"ţ":{"ha":494,"x_min":33,"x_max":525,"o":"m 419 -67 q 494 -97 464 -67 q 525 -178 525 -126 q 492 -265 525 -231 q 399 -300 458 -300 q 315 -274 347 -300 q 279 -200 283 -247 l 343 -200 q 360 -232 344 -219 q 397 -244 375 -244 q 441 -228 425 -244 q 457 -179 457 -211 q 442 -132 457 -149 q 400 -115 426 -115 q 347 -143 364 -115 l 290 -143 l 290 -4 q 149 213 149 19 l 149 539 l 33 539 l 33 640 l 149 640 l 149 843 l 269 843 l 269 640 l 431 640 l 431 539 l 269 539 l 269 239 q 282 151 269 181 q 316 111 294 121 q 372 101 338 101 q 453 108 422 101 l 453 1 q 356 -8 414 -8 l 356 -87 q 381 -72 364 -78 q 419 -67 399 -67 z "},"ț":{"ha":494,"x_min":33,"x_max":453,"o":"m 372 101 q 453 108 422 101 l 453 1 q 346 -8 411 -8 q 206 34 263 -8 q 149 213 149 76 l 149 539 l 33 539 l 33 640 l 149 640 l 149 843 l 269 843 l 269 640 l 431 640 l 431 539 l 269 539 l 269 239 q 282 151 269 181 q 316 111 294 121 q 372 101 338 101 m 263 -244 q 338 -208 321 -244 q 350 -167 350 -194 q 340 -176 347 -172 q 322 -179 332 -179 q 269 -160 290 -179 q 249 -111 249 -140 q 269 -62 249 -82 q 319 -42 289 -42 q 383 -69 360 -42 q 407 -140 407 -96 q 263 -286 407 -286 l 263 -244 z "},"þ":{"ha":821,"x_min":104,"x_max":769,"o":"m 460 657 q 621 615 550 657 q 731 495 692 572 q 769 319 769 418 q 729 146 769 222 q 617 26 689 69 q 453 -17 544 -17 q 317 18 379 -17 q 225 113 256 53 l 225 -296 l 104 -296 l 104 972 l 225 972 l 225 528 q 319 622 256 588 q 460 657 382 657 m 436 92 q 589 156 529 92 q 649 319 649 219 q 622 438 649 385 q 546 519 594 490 q 436 549 497 549 q 280 485 340 549 q 219 319 219 421 q 280 156 219 219 q 436 92 340 92 z "},"ú":{"ha":781,"x_min":97,"x_max":676,"o":"m 340 -17 q 163 51 229 -17 q 97 246 97 118 l 97 640 l 218 640 l 218 275 q 374 88 218 88 q 510 147 465 88 q 556 290 556 206 l 556 640 l 676 640 l 676 0 l 556 0 l 556 117 q 473 19 529 56 q 340 -17 417 -17 m 171 797 l 551 956 l 592 865 l 211 703 l 171 797 z "},"ŭ":{"ha":781,"x_min":97,"x_max":676,"o":"m 340 -17 q 163 51 229 -17 q 97 246 97 118 l 97 640 l 218 640 l 218 275 q 374 88 218 88 q 510 147 465 88 q 556 290 556 206 l 556 640 l 676 640 l 676 0 l 556 0 l 556 117 q 473 19 529 56 q 340 -17 417 -17 m 392 706 q 222 761 288 706 q 150 915 156 817 l 253 915 q 295 825 257 856 q 392 794 333 794 q 490 825 451 794 q 532 915 528 856 l 635 915 q 563 761 628 817 q 392 706 497 706 z "},"û":{"ha":781,"x_min":97,"x_max":676,"o":"m 340 -17 q 163 51 229 -17 q 97 246 97 118 l 97 640 l 218 640 l 218 275 q 374 88 218 88 q 510 147 465 88 q 556 290 556 206 l 556 640 l 676 640 l 676 0 l 556 0 l 556 117 q 473 19 529 56 q 340 -17 417 -17 m 636 767 l 571 694 l 393 850 l 215 696 l 150 767 l 393 969 l 636 767 z "},"ü":{"ha":781,"x_min":97,"x_max":676,"o":"m 340 -17 q 163 51 229 -17 q 97 246 97 118 l 97 640 l 218 640 l 218 275 q 374 88 218 88 q 510 147 465 88 q 556 290 556 206 l 556 640 l 676 640 l 676 0 l 556 0 l 556 117 q 473 19 529 56 q 340 -17 417 -17 m 253 749 q 187 776 214 749 q 160 842 160 803 q 187 908 160 881 q 253 935 214 935 q 319 908 292 935 q 346 842 346 882 q 319 776 346 803 q 253 749 292 749 m 531 749 q 465 776 492 749 q 438 842 438 803 q 465 908 438 881 q 531 935 492 935 q 597 908 569 935 q 624 842 624 882 q 597 776 624 803 q 531 749 569 749 z "},"ù":{"ha":781,"x_min":97,"x_max":676,"o":"m 340 -17 q 163 51 229 -17 q 97 246 97 118 l 97 640 l 218 640 l 218 275 q 374 88 218 88 q 510 147 465 88 q 556 290 556 206 l 556 640 l 676 640 l 676 0 l 556 0 l 556 117 q 473 19 529 56 q 340 -17 417 -17 m 172 864 l 213 954 l 593 796 l 553 701 l 172 864 z "},"ű":{"ha":781,"x_min":97,"x_max":724,"o":"m 340 -17 q 163 51 229 -17 q 97 246 97 118 l 97 640 l 218 640 l 218 275 q 374 88 218 88 q 510 147 465 88 q 556 290 556 206 l 556 640 l 676 640 l 676 0 l 556 0 l 556 117 q 473 19 529 56 q 340 -17 417 -17 m 181 722 l 354 953 l 460 900 l 240 690 l 181 722 m 444 722 l 618 953 l 724 900 l 504 690 l 444 722 z "},"ū":{"ha":781,"x_min":97,"x_max":676,"o":"m 340 -17 q 163 51 229 -17 q 97 246 97 118 l 97 640 l 218 640 l 218 275 q 374 88 218 88 q 510 147 465 88 q 556 290 556 206 l 556 640 l 676 640 l 676 0 l 556 0 l 556 117 q 473 19 529 56 q 340 -17 417 -17 m 171 868 l 613 868 l 613 771 l 171 771 l 171 868 z "},"ų":{"ha":781,"x_min":97,"x_max":713,"o":"m 633 -203 q 713 -185 672 -203 l 711 -274 q 601 -294 657 -294 q 483 -256 528 -294 q 439 -158 439 -217 q 469 -72 439 -112 q 557 0 499 -32 l 556 0 l 556 117 q 473 19 529 56 q 340 -17 417 -17 q 163 51 229 -17 q 97 246 97 118 l 97 640 l 218 640 l 218 275 q 374 88 218 88 q 510 147 465 88 q 556 290 556 206 l 556 640 l 676 640 l 676 0 l 678 0 q 581 -48 611 -14 q 550 -122 550 -82 q 573 -181 550 -158 q 633 -203 596 -203 z "},"ů":{"ha":781,"x_min":97,"x_max":676,"o":"m 340 -17 q 163 51 229 -17 q 97 246 97 118 l 97 640 l 218 640 l 218 275 q 374 88 218 88 q 510 147 465 88 q 556 290 556 206 l 556 640 l 676 640 l 676 0 l 556 0 l 556 117 q 473 19 529 56 q 340 -17 417 -17 m 392 694 q 282 738 326 694 q 238 846 238 781 q 282 954 238 911 q 392 997 326 997 q 501 954 457 997 q 546 846 546 911 q 501 738 546 781 q 392 694 457 694 m 392 757 q 452 782 428 757 q 476 846 476 807 q 452 910 476 885 q 392 935 428 935 q 331 910 356 935 q 307 846 307 885 q 331 782 307 807 q 392 757 356 757 z "},"ũ":{"ha":781,"x_min":97,"x_max":676,"o":"m 340 -17 q 163 51 229 -17 q 97 246 97 118 l 97 640 l 218 640 l 218 275 q 374 88 218 88 q 510 147 465 88 q 556 290 556 206 l 556 640 l 676 640 l 676 0 l 556 0 l 556 117 q 473 19 529 56 q 340 -17 417 -17 m 496 738 q 447 747 469 738 q 388 779 425 757 q 338 808 358 799 q 297 817 318 817 q 249 804 272 817 q 199 758 225 792 l 153 824 q 292 917 210 917 q 341 906 317 917 q 397 875 365 896 q 449 847 429 856 q 489 838 468 838 q 538 851 515 838 q 585 894 560 864 l 632 831 q 496 738 576 738 z "},"ẃ":{"ha":1035,"x_min":11,"x_max":1025,"o":"m 11 640 l 143 640 l 297 174 l 453 640 l 582 640 l 738 174 l 892 640 l 1025 640 l 788 0 l 685 0 l 517 492 l 350 0 l 247 0 l 11 640 m 297 797 l 678 956 l 718 865 l 338 703 l 297 797 z "},"ŵ":{"ha":1035,"x_min":11,"x_max":1025,"o":"m 11 640 l 143 640 l 297 174 l 453 640 l 582 640 l 738 174 l 892 640 l 1025 640 l 788 0 l 685 0 l 517 492 l 350 0 l 247 0 l 11 640 m 763 767 l 697 694 l 519 850 l 342 696 l 276 767 l 519 969 l 763 767 z "},"ẅ":{"ha":1035,"x_min":11,"x_max":1025,"o":"m 11 640 l 143 640 l 297 174 l 453 640 l 582 640 l 738 174 l 892 640 l 1025 640 l 788 0 l 685 0 l 517 492 l 350 0 l 247 0 l 11 640 m 379 749 q 313 776 340 749 q 286 842 286 803 q 313 908 286 881 q 379 935 340 935 q 445 908 418 935 q 472 842 472 882 q 445 776 472 803 q 379 749 418 749 m 657 749 q 591 776 618 749 q 564 842 564 803 q 591 908 564 881 q 657 935 618 935 q 723 908 696 935 q 750 842 750 882 q 723 776 750 803 q 657 749 696 749 z "},"ẁ":{"ha":1035,"x_min":11,"x_max":1025,"o":"m 11 640 l 143 640 l 297 174 l 453 640 l 582 640 l 738 174 l 892 640 l 1025 640 l 788 0 l 685 0 l 517 492 l 350 0 l 247 0 l 11 640 m 299 864 l 339 954 l 719 796 l 679 701 l 299 864 z "},"ý":{"ha":788,"x_min":97,"x_max":683,"o":"m 683 640 l 683 -12 q 596 -243 683 -164 q 386 -312 518 -312 q 169 -246 247 -312 q 97 -81 99 -186 l 219 -81 q 385 -211 226 -211 q 516 -160 469 -211 q 563 -4 563 -110 l 563 115 q 476 19 533 54 q 340 -17 419 -17 q 158 58 219 -17 q 97 258 97 132 l 97 640 l 218 640 l 218 283 q 255 141 218 190 q 381 92 292 92 q 515 155 468 92 q 563 311 563 218 l 563 640 l 683 640 m 164 797 l 544 956 l 585 865 l 204 703 l 164 797 z "},"ŷ":{"ha":788,"x_min":97,"x_max":683,"o":"m 683 640 l 683 -12 q 596 -243 683 -164 q 386 -312 518 -312 q 169 -246 247 -312 q 97 -81 99 -186 l 219 -81 q 385 -211 226 -211 q 516 -160 469 -211 q 563 -4 563 -110 l 563 115 q 476 19 533 54 q 340 -17 419 -17 q 158 58 219 -17 q 97 258 97 132 l 97 640 l 218 640 l 218 283 q 255 141 218 190 q 381 92 292 92 q 515 155 468 92 q 563 311 563 218 l 563 640 l 683 640 m 629 767 l 564 694 l 386 850 l 208 696 l 143 767 l 386 969 l 629 767 z "},"ÿ":{"ha":788,"x_min":97,"x_max":683,"o":"m 683 640 l 683 -12 q 596 -243 683 -164 q 386 -312 518 -312 q 169 -246 247 -312 q 97 -81 99 -186 l 219 -81 q 385 -211 226 -211 q 516 -160 469 -211 q 563 -4 563 -110 l 563 115 q 476 19 533 54 q 340 -17 419 -17 q 158 58 219 -17 q 97 258 97 132 l 97 640 l 218 640 l 218 283 q 255 141 218 190 q 381 92 292 92 q 515 155 468 92 q 563 311 563 218 l 563 640 l 683 640 m 246 749 q 180 776 207 749 q 153 842 153 803 q 180 908 153 881 q 246 935 207 935 q 312 908 285 935 q 339 842 339 882 q 312 776 339 803 q 246 749 285 749 m 524 749 q 458 776 485 749 q 431 842 431 803 q 458 908 431 881 q 524 935 485 935 q 590 908 563 935 q 617 842 617 882 q 590 776 617 803 q 524 749 563 749 z "},"ỳ":{"ha":788,"x_min":97,"x_max":683,"o":"m 683 640 l 683 -12 q 596 -243 683 -164 q 386 -312 518 -312 q 169 -246 247 -312 q 97 -81 99 -186 l 219 -81 q 385 -211 226 -211 q 516 -160 469 -211 q 563 -4 563 -110 l 563 115 q 476 19 533 54 q 340 -17 419 -17 q 158 58 219 -17 q 97 258 97 132 l 97 640 l 218 640 l 218 283 q 255 141 218 190 q 381 92 292 92 q 515 155 468 92 q 563 311 563 218 l 563 640 l 683 640 m 165 864 l 206 954 l 586 796 l 546 701 l 165 864 z "},"ź":{"ha":611,"x_min":18,"x_max":596,"o":"m 393 538 l 44 538 l 44 640 l 596 640 l 219 101 l 578 101 l 578 0 l 18 0 l 393 538 m 81 797 l 461 956 l 501 865 l 121 703 l 81 797 z "},"ž":{"ha":611,"x_min":18,"x_max":596,"o":"m 393 538 l 44 538 l 44 640 l 596 640 l 219 101 l 578 101 l 578 0 l 18 0 l 393 538 m 58 900 l 124 971 l 301 817 l 479 972 l 544 900 l 301 697 l 58 900 z "},"ż":{"ha":611,"x_min":18,"x_max":596,"o":"m 393 538 l 44 538 l 44 640 l 596 640 l 219 101 l 578 101 l 578 0 l 18 0 l 393 538 m 301 750 q 231 778 258 750 q 203 847 203 806 q 231 917 203 889 q 301 946 258 946 q 371 917 343 946 q 399 847 399 889 q 371 778 399 806 q 301 750 343 750 z "},"ß":{"ha":786,"x_min":103,"x_max":724,"o":"m 421 -17 q 350 -12 385 -17 q 294 0 315 -7 l 294 106 q 410 92 342 92 q 550 138 497 92 q 603 268 603 183 q 582 355 603 313 q 516 425 561 397 q 401 453 471 453 l 321 453 l 321 561 l 388 561 q 531 606 483 561 q 579 724 579 650 q 532 841 579 796 q 404 886 485 886 q 271 832 318 886 q 224 692 224 778 l 224 0 l 103 0 l 103 692 q 139 848 103 779 q 243 956 175 917 q 404 994 311 994 q 622 923 543 994 q 700 735 700 851 q 647 584 700 644 q 511 511 594 524 q 622 468 574 506 q 697 374 671 431 q 724 253 724 317 q 683 105 724 165 q 574 14 643 44 q 421 -17 506 -17 z "},"&":{"ha":826,"x_min":63,"x_max":814,"o":"m 814 318 l 733 318 q 636 67 728 156 q 394 -21 544 -21 q 223 16 299 -21 q 105 119 147 53 q 63 269 63 185 q 119 426 63 361 q 256 510 175 492 q 129 588 175 532 q 83 726 83 644 q 122 866 83 806 q 233 960 161 926 q 399 993 304 993 q 625 917 538 993 q 713 701 713 842 l 581 701 q 534 834 581 783 q 399 885 488 885 q 267 842 318 885 q 215 726 215 800 q 259 607 215 650 q 394 564 303 564 l 431 564 l 431 449 l 396 449 q 242 400 292 449 q 193 268 193 351 q 247 142 193 193 q 394 90 301 90 q 544 150 488 90 q 601 318 600 210 l 500 318 l 500 431 l 814 431 l 814 318 z "},"`":{"ha":833,"x_min":15,"x_max":436,"o":"m 15 865 l 56 956 l 436 797 l 396 703 l 15 865 z "},"´":{"ha":833,"x_min":79,"x_max":500,"o":"m 79 797 l 460 956 l 500 865 l 119 703 l 79 797 z "},"ˆ":{"ha":833,"x_min":47,"x_max":533,"o":"m 533 767 l 468 694 l 290 850 l 113 696 l 47 767 l 290 969 l 533 767 z "},"˜":{"ha":833,"x_min":61,"x_max":540,"o":"m 404 738 q 356 747 378 738 q 296 779 333 757 q 247 808 267 799 q 206 817 226 817 q 157 804 181 817 q 107 758 133 792 l 61 824 q 200 917 118 917 q 249 906 225 917 q 306 875 274 896 q 357 847 338 856 q 397 838 376 838 q 446 851 424 838 q 493 894 468 864 l 540 831 q 404 738 485 738 z "},"ˇ":{"ha":833,"x_min":47,"x_max":533,"o":"m 47 900 l 113 971 l 290 817 l 468 972 l 533 900 l 290 697 l 47 900 z "},"¨":{"ha":833,"x_min":85,"x_max":549,"o":"m 178 749 q 112 776 139 749 q 85 842 85 803 q 112 908 85 881 q 178 935 139 935 q 244 908 217 935 q 271 842 271 882 q 244 776 271 803 q 178 749 217 749 m 456 749 q 390 776 417 749 q 363 842 363 803 q 390 908 363 881 q 456 935 417 935 q 522 908 494 935 q 549 842 549 882 q 522 776 549 803 q 456 749 494 749 z "},"¯":{"ha":833,"x_min":94,"x_max":536,"o":"m 94 868 l 536 868 l 536 771 l 94 771 l 94 868 z "},"˘":{"ha":833,"x_min":83,"x_max":568,"o":"m 325 706 q 155 761 221 706 q 83 915 89 817 l 186 915 q 228 825 190 856 q 325 794 267 794 q 423 825 385 794 q 465 915 461 856 l 568 915 q 496 761 561 817 q 325 706 431 706 z "},"˚":{"ha":833,"x_min":65,"x_max":374,"o":"m 219 668 q 110 711 154 668 q 65 819 65 754 q 110 928 65 885 q 219 971 154 971 q 329 928 285 971 q 374 819 374 885 q 329 711 374 754 q 219 668 285 668 m 219 731 q 280 756 256 731 q 304 819 304 781 q 280 883 304 858 q 219 908 256 908 q 159 883 183 908 q 135 819 135 858 q 159 756 135 781 q 219 731 183 731 z "},"˝":{"ha":833,"x_min":65,"x_max":608,"o":"m 65 722 l 239 953 l 344 900 l 125 690 l 65 722 m 329 722 l 503 953 l 608 900 l 389 690 l 329 722 z "},"˙":{"ha":833,"x_min":318,"x_max":514,"o":"m 417 750 q 346 778 374 750 q 318 847 318 806 q 346 917 318 889 q 417 946 374 946 q 486 917 458 946 q 514 847 514 889 q 486 778 514 806 q 417 750 458 750 z "},"¸":{"ha":833,"x_min":75,"x_max":321,"o":"m 194 -300 q 111 -274 143 -300 q 75 -200 79 -247 l 139 -200 q 156 -232 140 -219 q 193 -244 171 -244 q 237 -228 221 -244 q 253 -179 253 -211 q 238 -132 253 -149 q 196 -115 222 -115 q 143 -143 160 -115 l 86 -143 l 86 0 l 151 0 l 151 -87 q 177 -72 160 -78 q 215 -67 194 -67 q 290 -97 260 -67 q 321 -178 321 -126 q 288 -265 321 -231 q 194 -300 254 -300 z "},"˛":{"ha":833,"x_min":49,"x_max":322,"o":"m 211 -294 q 93 -256 138 -294 q 49 -158 49 -217 q 78 -72 49 -112 q 167 0 108 -32 l 288 0 q 190 -48 221 -14 q 160 -122 160 -82 q 183 -181 160 -158 q 243 -203 206 -203 q 322 -185 282 -203 l 321 -274 q 211 -294 267 -294 z "},",":{"ha":413,"x_min":97,"x_max":324,"o":"m 147 -167 q 100 -162 119 -167 l 100 -104 q 151 -107 117 -107 q 199 -94 179 -107 q 229 -60 219 -82 q 247 15 247 -31 q 190 -7 229 -7 q 124 19 150 -7 q 97 89 97 46 q 126 160 97 132 q 197 188 154 188 q 285 147 247 188 q 324 29 324 106 q 277 -112 324 -58 q 147 -167 231 -167 z "},";":{"ha":413,"x_min":97,"x_max":324,"o":"m 147 -167 q 100 -162 119 -167 l 100 -104 q 151 -107 117 -107 q 199 -94 179 -107 q 229 -60 219 -82 q 247 15 247 -31 q 190 -7 229 -7 q 124 19 150 -7 q 97 89 97 46 q 126 160 97 132 q 197 188 154 188 q 285 147 247 188 q 324 29 324 106 q 277 -112 324 -58 q 147 -167 231 -167 m 199 451 q 126 481 156 451 q 97 553 97 511 q 126 624 97 594 q 199 654 156 654 q 270 624 240 654 q 300 553 300 594 q 270 481 300 511 q 199 451 240 451 z "},":":{"ha":397,"x_min":97,"x_max":300,"o":"m 199 -10 q 126 20 156 -10 q 97 92 97 50 q 126 163 97 133 q 199 193 156 193 q 270 163 240 193 q 300 92 300 133 q 270 20 300 50 q 199 -10 240 -10 m 199 453 q 126 483 156 453 q 97 554 97 513 q 126 626 97 596 q 199 656 156 656 q 270 626 240 656 q 300 554 300 596 q 270 483 300 513 q 199 453 240 453 z "},".":{"ha":397,"x_min":97,"x_max":300,"o":"m 199 -10 q 126 20 156 -10 q 97 92 97 50 q 126 163 97 133 q 199 193 156 193 q 270 163 240 193 q 300 92 300 133 q 270 20 300 50 q 199 -10 240 -10 z "},"…":{"ha":1071,"x_min":97,"x_max":974,"o":"m 199 -15 q 126 15 156 -15 q 97 86 97 44 q 126 158 97 128 q 199 188 156 188 q 270 158 240 188 q 300 86 300 128 q 270 15 300 44 q 199 -15 240 -15 m 533 -15 q 461 15 490 -15 q 432 86 432 44 q 461 158 432 128 q 533 188 490 188 q 605 158 575 188 q 635 86 635 128 q 605 15 635 44 q 533 -15 575 -15 m 872 -15 q 800 15 829 -15 q 771 86 771 44 q 800 158 771 128 q 872 188 829 188 q 944 158 914 188 q 974 86 974 128 q 944 15 974 44 q 872 -15 914 -15 z "},"-":{"ha":569,"x_min":74,"x_max":497,"o":"m 74 418 l 497 418 l 497 310 l 74 310 l 74 418 z "},"!":{"ha":372,"x_min":85,"x_max":288,"o":"m 125 972 l 246 972 l 246 293 l 125 293 l 125 972 m 185 -10 q 114 20 143 -10 q 85 92 85 50 q 114 163 85 133 q 185 193 143 193 q 258 163 228 193 q 288 92 288 133 q 258 20 288 50 q 185 -10 228 -10 z "},"¡":{"ha":372,"x_min":85,"x_max":288,"o":"m 185 688 q 258 658 228 688 q 288 586 288 628 q 258 515 288 544 q 185 485 228 485 q 114 515 143 485 q 85 586 85 544 q 114 658 85 628 q 185 688 143 688 m 246 385 l 246 -294 l 125 -294 l 125 385 l 246 385 z "},"?":{"ha":656,"x_min":13,"x_max":621,"o":"m 235 314 q 253 425 235 383 q 325 507 271 467 l 396 556 q 465 631 442 589 q 489 729 489 672 q 445 842 489 799 q 326 885 401 885 q 190 833 240 885 q 139 686 139 782 l 13 686 q 98 914 13 832 q 332 996 183 996 q 544 924 468 996 q 621 733 621 851 q 584 593 621 650 q 481 483 547 536 l 421 440 q 369 385 382 411 q 356 315 356 360 l 356 293 l 235 293 l 235 314 m 294 -10 q 222 20 251 -10 q 193 92 193 50 q 222 163 193 133 q 294 193 251 193 q 367 163 338 193 q 396 92 396 133 q 367 20 396 50 q 294 -10 338 -10 z "},"¿":{"ha":656,"x_min":35,"x_max":643,"o":"m 361 717 q 433 687 404 717 q 463 615 463 657 q 433 544 463 574 q 361 514 404 514 q 289 544 318 514 q 260 615 260 574 q 289 687 260 657 q 361 717 318 717 m 421 393 q 403 282 421 324 q 331 200 385 240 l 260 151 q 190 76 214 118 q 167 -22 167 35 q 210 -135 167 -92 q 329 -178 254 -178 q 466 -126 415 -178 q 517 21 517 -75 l 643 21 q 558 -207 643 -125 q 324 -289 472 -289 q 111 -217 188 -289 q 35 -26 35 -144 q 72 114 35 57 q 175 224 108 171 l 235 267 q 287 322 274 296 q 300 392 300 347 l 300 414 l 421 414 l 421 393 z "},"‘":{"ha":383,"x_min":90,"x_max":304,"o":"m 208 692 q 126 731 163 692 q 90 842 90 769 q 135 975 90 924 q 258 1026 179 1026 q 301 1022 285 1026 l 301 967 q 258 969 286 969 q 212 957 232 969 q 182 924 192 944 q 163 854 163 894 q 215 875 179 875 q 278 850 253 875 q 304 785 304 825 q 278 718 304 744 q 208 692 251 692 z "},"’":{"ha":383,"x_min":79,"x_max":293,"o":"m 175 997 q 257 958 221 997 q 293 847 293 919 q 249 714 293 765 q 125 663 204 663 q 82 667 99 663 l 82 722 q 125 719 97 719 q 172 732 151 719 q 201 765 192 744 q 221 835 221 794 q 168 814 204 814 q 105 839 131 814 q 79 904 79 864 q 106 971 79 944 q 175 997 132 997 z "},"“":{"ha":639,"x_min":90,"x_max":560,"o":"m 208 692 q 126 731 163 692 q 90 842 90 769 q 135 975 90 924 q 258 1026 179 1026 q 301 1022 285 1026 l 301 967 q 258 969 286 969 q 212 957 232 969 q 182 924 192 944 q 163 854 163 894 q 215 875 179 875 q 278 850 253 875 q 304 785 304 825 q 278 718 304 744 q 208 692 251 692 m 464 692 q 382 731 418 692 q 346 842 346 769 q 390 975 346 924 q 514 1026 435 1026 q 557 1022 540 1026 l 557 967 q 514 969 542 969 q 467 957 488 969 q 438 924 447 944 q 418 854 418 894 q 471 875 435 875 q 534 850 508 875 q 560 785 560 825 q 533 718 560 744 q 464 692 507 692 z "},"”":{"ha":639,"x_min":79,"x_max":549,"o":"m 175 997 q 257 958 221 997 q 293 847 293 919 q 249 714 293 765 q 125 663 204 663 q 82 667 99 663 l 82 722 q 125 719 97 719 q 172 732 151 719 q 201 765 192 744 q 221 835 221 794 q 168 814 204 814 q 105 839 131 814 q 79 904 79 864 q 106 971 79 944 q 175 997 132 997 m 431 997 q 513 958 476 997 q 549 847 549 919 q 504 714 549 765 q 381 663 460 663 q 338 667 354 663 l 338 722 q 381 719 353 719 q 427 732 407 719 q 457 765 447 744 q 476 835 476 794 q 424 814 460 814 q 360 839 386 814 q 335 904 335 864 q 361 971 335 944 q 431 997 388 997 z "},"‚":{"ha":383,"x_min":79,"x_max":293,"o":"m 175 172 q 257 133 221 172 q 293 22 293 94 q 249 -111 293 -60 q 125 -162 204 -162 q 82 -158 99 -162 l 82 -103 q 125 -106 97 -106 q 172 -93 151 -106 q 201 -60 192 -81 q 221 10 221 -31 q 168 -11 204 -11 q 105 14 131 -11 q 79 79 79 39 q 106 146 79 119 q 175 172 132 172 z "},"„":{"ha":639,"x_min":79,"x_max":549,"o":"m 175 172 q 257 133 221 172 q 293 22 293 94 q 249 -111 293 -60 q 125 -162 204 -162 q 82 -158 99 -162 l 82 -103 q 125 -106 97 -106 q 172 -93 151 -106 q 201 -60 192 -81 q 221 10 221 -31 q 168 -11 204 -11 q 105 14 131 -11 q 79 79 79 39 q 106 146 79 119 q 175 172 132 172 m 431 172 q 513 133 476 172 q 549 22 549 94 q 504 -111 549 -60 q 381 -162 460 -162 q 338 -158 354 -162 l 338 -103 q 381 -106 353 -106 q 427 -93 407 -106 q 457 -60 447 -81 q 476 10 476 -31 q 424 -11 460 -11 q 360 14 386 -11 q 335 79 335 39 q 361 146 335 119 q 431 172 388 172 z "},"‹":{"ha":383,"x_min":8,"x_max":364,"o":"m 8 363 l 296 629 l 364 560 l 153 363 l 364 167 l 296 96 l 8 363 z "},"›":{"ha":383,"x_min":19,"x_max":375,"o":"m 19 167 l 231 363 l 19 560 l 88 629 l 375 363 l 88 96 l 19 167 z "},"/":{"ha":610,"x_min":18,"x_max":592,"o":"m 18 -47 l 494 1057 l 592 1014 l 115 -90 l 18 -47 z "},"|":{"ha":317,"x_min":111,"x_max":206,"o":"m 111 1018 l 206 1018 l 206 -267 l 111 -267 l 111 1018 z "},"–":{"ha":849,"x_min":74,"x_max":776,"o":"m 74 424 l 776 424 l 776 326 l 74 326 l 74 424 z "},"—":{"ha":1108,"x_min":74,"x_max":1035,"o":"m 74 426 l 1035 426 l 1035 329 l 74 329 l 74 426 z "},"•":{"ha":497,"x_min":88,"x_max":411,"o":"m 249 272 q 135 319 182 272 q 88 433 88 367 q 135 549 88 501 q 249 596 182 596 q 364 549 317 596 q 411 433 411 501 q 364 319 411 367 q 249 272 317 272 z "},"(":{"ha":442,"x_min":81,"x_max":458,"o":"m 385 -268 q 162 12 243 -146 q 81 378 81 169 q 162 744 81 588 q 385 1025 243 901 l 458 956 q 265 692 329 831 q 200 378 200 553 q 265 64 200 203 q 458 -200 329 -75 l 385 -268 z "},")":{"ha":442,"x_min":-17,"x_max":361,"o":"m -17 -200 q 177 64 113 -75 q 242 378 242 203 q 177 692 242 553 q -17 956 113 831 l 57 1025 q 280 744 199 901 q 361 378 361 588 q 280 12 361 169 q 57 -268 199 -146 l -17 -200 z "},"[":{"ha":400,"x_min":111,"x_max":385,"o":"m 111 1018 l 385 1018 l 385 921 l 221 921 l 221 -172 l 385 -172 l 385 -268 l 111 -268 l 111 1018 z "},"]":{"ha":400,"x_min":15,"x_max":289,"o":"m 15 -268 l 15 -172 l 179 -172 l 179 921 l 15 921 l 15 1018 l 289 1018 l 289 -268 l 15 -268 z "},"*":{"ha":585,"x_min":35,"x_max":550,"o":"m 94 546 l 236 721 l 35 775 l 64 861 l 258 785 l 246 996 l 340 996 l 326 785 l 521 861 l 550 775 l 349 721 l 490 546 l 411 490 l 293 679 l 174 490 l 94 546 z "},"†":{"ha":604,"x_min":69,"x_max":535,"o":"m 242 526 l 69 526 l 69 633 l 242 633 l 242 996 l 363 996 l 363 633 l 535 633 l 535 526 l 363 526 l 363 -253 l 242 -253 l 242 526 z "},"~":{"ha":754,"x_min":69,"x_max":685,"o":"m 531 276 q 462 289 497 276 q 378 325 426 301 q 213 371 286 371 q 138 350 175 371 q 69 297 100 329 l 69 404 q 140 461 100 443 q 218 479 179 479 q 292 467 253 479 q 382 435 331 456 l 411 422 q 532 385 497 385 q 685 461 606 385 l 685 356 q 612 296 653 315 q 531 276 571 276 z "},"¦":{"ha":317,"x_min":111,"x_max":206,"o":"m 111 1018 l 206 1018 l 206 449 l 111 449 l 111 1018 m 111 325 l 206 325 l 206 -267 l 111 -267 l 111 325 z "},"\\":{"ha":610,"x_min":18,"x_max":592,"o":"m 18 1014 l 115 1057 l 592 -47 l 494 -90 l 18 1014 z "},"_":{"ha":715,"x_min":0,"x_max":715,"o":"m 0 -210 l 715 -210 l 715 -296 l 0 -296 l 0 -210 z "},"'":{"ha":340,"x_min":76,"x_max":264,"o":"m 264 868 q 260 839 264 854 l 201 582 l 140 582 l 81 839 q 76 868 76 854 q 103 934 76 907 q 169 961 131 961 q 236 934 208 961 q 264 868 264 907 z "},"\"":{"ha":575,"x_min":76,"x_max":499,"o":"m 264 868 q 260 839 264 854 l 201 582 l 140 582 l 81 839 q 76 868 76 854 q 103 934 76 907 q 169 961 131 961 q 236 934 208 961 q 264 868 264 907 m 499 868 q 494 839 499 854 l 436 582 l 375 582 l 315 839 q 311 868 311 854 q 338 934 311 907 q 404 961 365 961 q 471 934 443 961 q 499 868 499 907 z "},"@":{"ha":1235,"x_min":53,"x_max":1183,"o":"m 635 -269 q 320 -196 451 -269 q 121 6 189 -122 q 53 300 53 135 q 124 598 53 471 q 324 794 194 725 q 626 864 454 864 q 918 801 793 864 q 1113 612 1043 739 q 1183 297 1183 485 q 1126 42 1183 132 q 958 -49 1069 -49 q 829 -7 874 -49 q 771 121 785 35 q 694 42 746 72 q 571 13 642 13 q 429 51 492 13 q 333 155 367 90 q 299 296 299 219 q 333 440 299 374 q 431 544 368 506 q 574 583 494 583 q 692 554 640 583 q 771 474 743 525 l 771 569 l 872 569 l 872 186 q 895 69 872 104 q 963 33 918 33 q 1051 94 1017 33 q 1086 288 1086 154 q 965 658 1086 538 q 626 778 843 778 q 374 719 482 778 q 207 551 265 660 q 149 299 149 443 q 206 49 149 157 q 372 -121 263 -60 q 636 -182 482 -182 q 913 -111 786 -182 l 950 -192 q 795 -252 872 -235 q 635 -269 718 -269 m 585 104 q 719 160 667 104 q 771 297 771 217 q 719 434 771 378 q 585 490 667 490 q 452 434 503 490 q 401 297 401 378 q 452 160 401 215 q 585 104 503 104 z "},"©":{"ha":1107,"x_min":53,"x_max":1054,"o":"m 553 -24 q 288 44 401 -24 q 114 227 175 111 q 53 486 53 343 q 114 745 53 629 q 288 928 175 861 q 553 996 401 996 q 818 928 704 996 q 993 744 932 861 q 1054 486 1054 628 q 993 228 1054 344 q 818 44 932 111 q 553 -24 704 -24 m 553 61 q 766 118 675 61 q 906 272 857 175 q 956 486 956 368 q 906 701 956 604 q 766 854 857 797 q 553 911 675 911 q 341 854 432 911 q 201 700 250 797 q 151 486 151 603 q 201 272 151 369 q 341 118 250 175 q 553 61 432 61 m 560 199 q 408 238 472 199 q 309 343 343 278 q 275 486 275 408 q 309 630 275 564 q 408 735 343 696 q 560 775 472 775 q 731 721 665 775 q 810 581 797 667 l 725 581 q 669 668 713 635 q 558 701 626 701 q 451 672 497 701 q 381 594 406 643 q 357 486 357 544 q 381 379 357 428 q 451 301 406 331 q 558 272 497 272 q 669 306 626 272 q 725 392 713 339 l 810 392 q 731 252 797 306 q 560 199 665 199 z "},"®":{"ha":836,"x_min":54,"x_max":785,"o":"m 419 251 q 226 301 308 251 q 99 435 143 350 q 54 624 54 519 q 99 813 54 728 q 226 947 143 897 q 419 996 308 996 q 613 947 529 996 q 740 813 696 897 q 785 624 785 728 q 740 435 785 519 q 613 301 696 350 q 419 251 529 251 m 419 313 q 575 354 508 313 q 677 467 642 396 q 713 624 713 538 q 677 779 713 708 q 575 892 642 850 q 419 933 508 933 q 264 892 331 933 q 162 779 197 850 q 126 624 126 708 q 162 467 126 538 q 264 354 197 396 q 419 313 331 313 m 289 825 l 440 825 q 536 785 499 825 q 574 690 574 746 q 551 613 574 647 q 486 565 528 579 l 571 432 l 503 432 l 425 558 l 349 558 l 349 432 l 289 432 l 289 825 m 436 611 q 492 634 471 611 q 513 690 513 657 q 492 748 513 725 q 436 771 471 771 l 350 771 l 350 611 l 436 611 z "},"™":{"ha":1156,"x_min":8,"x_max":1044,"o":"m 146 890 l 8 890 l 8 972 l 375 972 l 375 890 l 238 890 l 238 407 l 146 407 l 146 890 m 467 972 l 615 972 l 756 564 l 896 972 l 1044 972 l 1044 407 l 954 407 l 954 871 l 796 407 l 715 407 l 557 871 l 557 407 l 467 407 l 467 972 z "},"$":{"ha":756,"x_min":49,"x_max":700,"o":"m 700 246 q 628 63 700 135 q 435 -21 557 -8 l 435 -139 l 343 -139 l 343 -19 q 126 79 203 -7 q 49 307 49 165 l 175 307 q 232 148 175 207 q 390 89 289 89 q 526 129 478 89 q 574 243 574 169 q 540 338 574 301 q 432 399 506 375 l 275 442 q 128 536 179 469 q 78 701 78 603 q 110 823 78 767 q 203 915 143 879 q 343 958 264 951 l 343 1083 l 435 1083 l 435 956 q 613 863 547 939 q 679 668 678 786 l 553 668 q 504 803 551 756 q 372 851 457 851 q 249 812 293 851 q 206 708 206 772 q 242 606 206 646 q 360 542 278 565 l 522 492 q 654 403 608 465 q 700 246 700 340 z "},"¢":{"ha":722,"x_min":53,"x_max":669,"o":"m 371 243 q 491 275 446 243 q 549 368 536 307 l 669 368 q 593 210 658 272 q 419 138 528 149 l 419 0 l 326 0 l 326 138 q 126 242 199 151 q 53 471 53 332 q 126 700 53 610 q 326 804 199 790 l 326 944 l 419 944 l 419 804 q 593 731 528 793 q 669 569 658 668 l 549 569 q 491 666 536 633 q 371 699 446 699 q 225 638 278 699 q 172 471 172 578 q 225 303 172 364 q 371 243 278 243 z "},"£":{"ha":713,"x_min":50,"x_max":699,"o":"m 264 358 q 244 209 264 275 q 194 114 224 143 l 660 114 l 660 0 l 54 0 l 54 85 q 115 181 92 119 q 138 333 138 243 l 138 460 l 50 460 l 50 553 l 138 553 l 138 661 q 215 887 138 813 q 419 961 292 961 q 624 890 550 961 q 699 692 699 818 l 572 692 q 533 814 572 771 q 419 857 494 857 q 303 810 342 857 q 264 658 264 763 l 264 553 l 500 553 l 500 460 l 264 460 l 264 358 z "},"ƒ":{"ha":597,"x_min":-92,"x_max":610,"o":"m 522 853 q 434 824 465 853 q 389 718 403 794 l 374 631 l 553 631 l 535 529 l 356 529 l 247 -74 q 166 -247 226 -190 q 13 -304 106 -304 q -92 -287 -49 -304 l -75 -185 q -6 -196 -46 -196 q 83 -169 51 -196 q 126 -75 114 -143 l 235 529 l 97 529 l 115 631 l 253 631 l 269 719 q 353 903 292 847 q 515 960 415 960 q 610 944 576 960 l 592 842 q 522 853 558 853 z "},"¥":{"ha":763,"x_min":14,"x_max":749,"o":"m 449 383 l 647 383 l 647 299 l 446 299 l 446 204 l 647 204 l 647 119 l 446 119 l 446 0 l 317 0 l 317 119 l 115 119 l 115 204 l 317 204 l 317 299 l 115 299 l 115 383 l 314 383 l 14 944 l 156 944 l 382 486 l 607 944 l 749 944 l 449 383 z "},"€":{"ha":826,"x_min":29,"x_max":760,"o":"m 451 96 q 578 143 531 96 q 636 271 625 190 l 760 271 q 663 65 743 146 q 451 -15 583 -15 q 122 338 164 -15 l 29 338 l 53 422 l 115 422 q 114 474 114 439 q 115 524 114 507 l 32 524 l 54 608 l 121 608 q 451 961 165 961 q 663 881 583 961 q 760 675 743 801 l 636 675 q 577 803 624 756 q 451 850 531 850 q 306 788 354 850 q 243 608 257 725 l 529 608 l 507 524 l 238 524 q 236 474 236 507 q 238 422 236 439 l 528 422 l 506 338 l 243 338 q 306 158 257 221 q 451 96 356 96 z "},"₩":{"ha":1053,"x_min":22,"x_max":1031,"o":"m 911 529 l 889 417 l 1031 417 l 1031 324 l 871 324 l 806 0 l 686 0 l 526 750 l 367 0 l 247 0 l 182 324 l 22 324 l 22 417 l 164 417 l 142 529 l 22 529 l 22 621 l 124 621 l 58 944 l 188 944 l 313 186 l 476 944 l 576 944 l 740 186 l 865 944 l 994 944 l 929 621 l 1031 621 l 1031 529 l 911 529 z "},"₴":{"ha":781,"x_min":42,"x_max":739,"o":"m 414 424 l 739 424 l 715 354 l 272 354 q 215 303 232 331 q 197 233 197 276 q 244 131 197 168 q 375 94 290 94 q 528 136 472 94 q 583 250 583 178 l 700 250 q 661 110 700 171 q 549 17 622 50 q 374 -17 475 -17 q 158 48 239 -17 q 76 224 76 113 q 110 354 76 303 l 42 354 l 65 424 l 175 424 q 246 464 201 443 l 382 525 l 42 525 l 65 594 l 508 594 q 546 648 535 618 q 557 718 557 678 q 513 817 557 781 q 394 853 469 853 q 261 815 308 853 q 214 710 214 778 l 97 710 q 178 893 97 825 q 392 961 258 961 q 598 898 521 961 q 675 724 675 835 q 644 594 675 650 l 739 594 l 715 525 l 592 525 q 503 465 556 490 l 414 424 z "},"₸":{"ha":724,"x_min":8,"x_max":715,"o":"m 8 944 l 715 944 l 715 831 l 8 831 l 8 944 m 299 613 l 8 613 l 8 726 l 715 726 l 715 613 l 425 613 l 425 0 l 299 0 l 299 613 z "},"₮":{"ha":724,"x_min":8,"x_max":715,"o":"m 425 831 l 425 632 l 596 714 l 596 617 l 425 535 l 425 443 l 596 525 l 596 428 l 425 346 l 425 0 l 299 0 l 299 286 l 128 204 l 128 300 l 299 382 l 299 475 l 128 393 l 128 490 l 299 572 l 299 831 l 8 831 l 8 944 l 715 944 l 715 831 l 425 831 z "},"¤":{"ha":817,"x_min":42,"x_max":775,"o":"m 42 226 l 136 321 q 76 514 76 407 q 136 707 76 621 l 43 801 l 118 878 l 213 783 q 408 846 294 846 q 606 785 519 846 l 697 878 l 775 801 l 681 708 q 742 514 742 624 q 681 319 742 401 l 774 226 l 697 150 l 606 243 q 408 183 521 183 q 213 243 297 183 l 118 150 l 42 226 m 408 292 q 519 322 471 292 q 594 402 568 351 q 621 514 621 453 q 594 626 621 575 q 519 707 568 676 q 408 738 471 738 q 298 707 346 738 q 224 626 250 676 q 197 514 197 575 q 224 402 197 453 q 298 322 250 351 q 408 292 346 292 z "},"⁄":{"ha":215,"x_min":-261,"x_max":476,"o":"m -261 25 l 396 972 l 476 919 l -179 -28 l -261 25 z "},"¼":{"ha":1132,"x_min":43,"x_max":1083,"o":"m 171 768 l 43 768 l 43 847 q 154 869 125 847 q 183 944 183 892 l 271 944 l 271 397 l 171 397 l 171 768 m 118 25 l 775 972 l 856 919 l 200 -28 l 118 25 m 1083 167 l 1004 167 l 1004 0 l 901 0 l 901 167 l 664 167 l 664 547 l 767 547 l 767 256 l 901 256 l 901 407 l 1004 407 l 1004 256 l 1083 256 l 1083 167 z "},"½":{"ha":1104,"x_min":43,"x_max":1043,"o":"m 171 768 l 43 768 l 43 847 q 154 869 125 847 q 183 944 183 892 l 271 944 l 271 397 l 171 397 l 171 768 m 118 25 l 775 972 l 856 919 l 200 -28 l 118 25 m 624 0 q 657 155 624 97 q 769 253 690 213 l 863 297 q 935 397 935 331 q 911 455 935 433 q 849 476 888 476 q 772 448 799 476 q 744 367 744 419 l 638 367 q 695 506 638 454 q 847 558 753 558 q 990 517 938 558 q 1043 403 1043 475 q 1015 307 1043 349 q 931 238 986 265 l 843 193 q 778 147 797 171 q 753 86 758 124 l 1040 86 l 1040 0 l 624 0 z "},"¾":{"ha":1261,"x_min":53,"x_max":1213,"o":"m 265 386 q 108 435 164 386 q 53 569 53 483 l 158 569 q 188 496 158 522 q 268 469 217 469 q 342 492 315 469 q 369 554 369 515 q 342 619 369 596 q 263 642 315 642 l 210 642 l 210 722 l 264 722 q 338 742 313 722 q 363 801 363 763 q 336 857 363 836 q 268 878 310 878 q 195 854 222 878 q 168 789 168 831 l 64 789 q 119 910 64 865 q 271 956 175 956 q 414 915 360 956 q 468 807 468 875 q 440 727 468 760 q 357 682 411 694 q 444 639 411 675 q 476 550 476 603 q 419 431 476 476 q 265 386 361 386 m 247 25 l 904 972 l 985 919 l 329 -28 l 247 25 m 1213 167 l 1133 167 l 1133 0 l 1031 0 l 1031 167 l 793 167 l 793 547 l 896 547 l 896 256 l 1031 256 l 1031 407 l 1133 407 l 1133 256 l 1213 256 l 1213 167 z "},"%":{"ha":1082,"x_min":28,"x_max":1054,"o":"m 171 25 l 826 972 l 906 928 l 253 -21 l 171 25 m 272 483 q 142 516 197 483 q 57 602 86 549 q 28 719 28 656 q 57 837 28 783 q 142 923 86 890 q 272 956 197 956 q 403 923 347 956 q 488 837 458 890 q 517 719 517 783 q 488 602 517 656 q 403 516 458 549 q 272 483 347 483 m 272 578 q 374 618 336 578 q 411 719 411 658 q 374 821 411 781 q 272 861 336 861 q 172 821 208 861 q 135 719 135 781 q 172 618 135 658 q 272 578 208 578 m 810 -7 q 679 26 735 -7 q 594 112 624 58 q 565 229 565 165 q 594 347 565 293 q 679 433 624 400 q 810 465 735 465 q 940 433 885 465 q 1025 347 996 400 q 1054 229 1054 293 q 1025 112 1054 165 q 940 26 996 58 q 810 -7 885 -7 m 810 88 q 911 128 874 88 q 949 229 949 168 q 911 331 949 290 q 810 371 874 371 q 709 331 746 371 q 672 229 672 290 q 709 128 672 168 q 810 88 746 88 z "},"‰":{"ha":1610,"x_min":28,"x_max":1581,"o":"m 171 25 l 826 972 l 906 928 l 253 -21 l 171 25 m 272 483 q 142 516 197 483 q 57 602 86 549 q 28 719 28 656 q 57 837 28 783 q 142 923 86 890 q 272 956 197 956 q 403 923 347 956 q 488 837 458 890 q 517 719 517 783 q 488 602 517 656 q 403 516 458 549 q 272 483 347 483 m 272 578 q 374 618 336 578 q 411 719 411 658 q 374 821 411 781 q 272 861 336 861 q 172 821 208 861 q 135 719 135 781 q 172 618 135 658 q 272 578 208 578 m 810 -7 q 679 26 735 -7 q 594 112 624 58 q 565 229 565 165 q 594 347 565 293 q 679 433 624 400 q 810 465 735 465 q 940 433 885 465 q 1025 347 996 400 q 1054 229 1054 293 q 1025 112 1054 165 q 940 26 996 58 q 810 -7 885 -7 m 1336 -7 q 1206 26 1261 -7 q 1121 112 1150 58 q 1092 229 1092 165 q 1121 347 1092 293 q 1206 433 1150 400 q 1336 465 1261 465 q 1467 433 1411 465 q 1551 347 1522 400 q 1581 229 1581 293 q 1551 112 1581 165 q 1467 26 1522 58 q 1336 -7 1411 -7 m 810 88 q 911 128 874 88 q 949 229 949 168 q 911 331 949 290 q 810 371 874 371 q 709 331 746 371 q 672 229 672 290 q 709 128 672 168 q 810 88 746 88 m 1336 88 q 1438 128 1400 88 q 1475 229 1475 168 q 1438 331 1475 290 q 1336 371 1400 371 q 1235 331 1272 371 q 1199 229 1199 290 q 1235 128 1199 168 q 1336 88 1272 88 z "},"ﬁ":{"ha":817,"x_min":29,"x_max":750,"o":"m 401 872 q 319 849 351 872 q 286 754 286 826 l 286 640 l 467 640 l 467 539 l 286 539 l 286 0 l 165 0 l 165 539 l 29 539 l 29 640 l 165 640 l 165 751 q 229 932 165 883 q 369 981 293 981 q 467 967 432 981 l 467 863 q 401 872 431 872 m 592 640 l 713 640 l 713 0 l 592 0 l 592 640 m 653 750 q 582 778 610 750 q 554 847 554 806 q 582 917 554 889 q 653 946 610 946 q 722 917 694 946 q 750 847 750 889 q 722 778 750 806 q 653 750 694 750 z "},"ﬂ":{"ha":817,"x_min":29,"x_max":713,"o":"m 401 872 q 319 849 351 872 q 286 754 286 826 l 286 640 l 467 640 l 467 539 l 286 539 l 286 0 l 165 0 l 165 539 l 29 539 l 29 640 l 165 640 l 165 751 q 229 932 165 883 q 369 981 293 981 q 467 967 432 981 l 467 863 q 401 872 431 872 m 592 972 l 713 972 l 713 0 l 592 0 l 592 972 z "},"μ":{"ha":788,"x_min":104,"x_max":683,"o":"m 683 640 l 683 0 l 563 0 l 563 117 q 480 19 536 56 q 347 -17 424 -17 q 225 10 276 -17 l 225 -296 l 104 -296 l 104 640 l 225 640 l 225 275 q 381 88 225 88 q 517 147 472 88 q 563 290 563 206 l 563 640 l 683 640 z "},"ʼ":{"ha":383,"x_min":90,"x_max":304,"o":"m 186 1028 q 268 989 232 1028 q 304 878 304 950 q 260 744 304 796 q 136 693 215 693 q 93 697 110 693 l 93 753 q 136 750 108 750 q 183 763 163 750 q 213 796 203 775 q 232 865 232 825 q 179 844 215 844 q 116 869 142 844 q 90 935 90 894 q 117 1001 90 975 q 186 1028 143 1028 z "},"ð":{"ha":772,"x_min":53,"x_max":719,"o":"m 664 515 q 719 321 719 432 q 679 149 719 226 q 563 28 639 72 q 386 -17 488 -17 q 209 28 285 -17 q 93 149 133 72 q 53 321 53 226 q 93 491 53 414 q 209 613 133 568 q 386 657 285 657 q 421 656 410 657 l 344 764 l 225 699 l 189 765 l 301 826 l 200 972 l 351 972 l 411 885 l 524 946 l 560 882 l 453 824 l 665 515 l 664 515 m 386 92 q 542 156 485 92 q 599 321 599 221 q 542 484 599 419 q 386 549 485 549 q 230 484 288 549 q 172 319 172 419 q 230 156 172 221 q 386 92 288 92 z "},"#":{"ha":746,"x_min":32,"x_max":715,"o":"m 164 290 l 32 290 l 32 385 l 178 385 l 206 588 l 74 588 l 74 682 l 218 682 l 258 972 l 358 972 l 318 682 l 493 682 l 533 972 l 633 972 l 593 682 l 715 682 l 715 588 l 579 588 l 551 385 l 674 385 l 674 290 l 539 290 l 497 0 l 399 0 l 439 290 l 264 290 l 222 0 l 124 0 l 164 290 m 453 385 l 481 588 l 304 588 l 276 385 l 453 385 z "},"№":{"ha":1546,"x_min":111,"x_max":1435,"o":"m 111 972 l 246 972 l 683 211 l 683 972 l 804 972 l 804 0 l 671 0 l 233 761 l 233 0 l 111 0 l 111 972 m 1156 160 q 1010 196 1072 160 q 913 294 947 232 q 879 429 879 356 q 913 565 879 503 q 1010 663 947 626 q 1156 700 1072 700 q 1303 664 1240 700 q 1401 565 1367 628 q 1435 429 1435 503 q 1401 294 1435 356 q 1303 196 1367 232 q 1156 160 1240 160 m 1156 264 q 1271 312 1226 264 q 1315 429 1315 360 q 1271 547 1315 499 q 1156 594 1226 594 q 1042 547 1086 594 q 999 429 999 499 q 1042 312 999 360 q 1156 264 1086 264 m 879 108 l 1435 108 l 1435 0 l 879 0 l 879 108 z "},"Δ":{"ha":811,"x_min":25,"x_max":788,"o":"m 360 972 l 451 972 l 788 0 l 25 0 l 360 972 m 611 114 l 406 765 l 200 114 l 611 114 z "},"Ω":{"ha":975,"x_min":53,"x_max":922,"o":"m 81 114 l 335 114 l 335 153 q 129 306 206 197 q 53 554 53 415 q 106 772 53 672 q 257 930 158 871 q 488 989 356 989 q 718 930 619 989 q 869 772 817 871 q 922 554 922 672 q 846 306 922 415 q 640 153 769 196 l 640 114 l 894 114 l 894 0 l 540 0 l 540 222 q 729 340 663 246 q 796 560 796 435 q 760 718 796 646 q 654 833 724 790 q 488 875 585 875 q 321 833 390 875 q 215 718 251 790 q 179 560 179 646 q 246 340 179 435 q 435 222 313 246 l 435 0 l 81 0 l 81 114 z "},"π":{"ha":874,"x_min":104,"x_max":769,"o":"m 192 524 l 104 524 l 104 631 l 769 631 l 769 524 l 682 524 l 682 0 l 563 0 l 563 524 l 311 524 l 311 0 l 192 0 l 192 524 z "},"·":{"ha":397,"x_min":97,"x_max":300,"o":"m 199 333 q 126 363 156 333 q 97 435 97 393 q 126 506 97 476 q 199 536 156 536 q 270 506 240 536 q 300 435 300 476 q 270 363 300 393 q 199 333 240 333 z "},"{":{"ha":436,"x_min":32,"x_max":428,"o":"m 346 -268 q 256 -247 299 -268 q 187 -181 214 -225 q 160 -75 160 -137 l 160 199 q 138 270 160 242 q 87 312 117 299 q 32 325 57 325 l 32 425 q 87 439 57 425 q 138 481 117 453 q 160 553 160 510 l 160 825 q 187 931 160 888 q 256 997 214 975 q 346 1018 299 1018 l 428 1018 l 428 922 l 363 922 q 292 889 314 922 q 269 803 269 856 l 269 536 q 228 423 269 460 q 139 375 188 386 q 228 328 188 365 q 269 214 269 292 l 269 -53 q 292 -139 269 -106 q 363 -172 314 -172 l 428 -172 l 428 -268 l 346 -268 z "},"}":{"ha":436,"x_min":8,"x_max":404,"o":"m 8 -268 l 8 -172 l 74 -172 q 144 -139 122 -172 q 167 -53 167 -106 l 167 214 q 208 328 167 292 q 297 375 249 365 q 208 423 249 386 q 167 536 167 460 l 167 803 q 144 889 167 856 q 74 922 122 922 l 8 922 l 8 1018 l 90 1018 q 180 997 138 1018 q 249 931 222 975 q 276 825 276 888 l 276 553 q 298 481 276 510 q 349 439 319 453 q 404 425 379 425 l 404 325 q 349 312 379 325 q 298 270 319 299 q 276 199 276 242 l 276 -75 q 249 -181 276 -137 q 180 -247 222 -225 q 90 -268 138 -268 l 8 -268 z "},"­":{"ha":569,"x_min":74,"x_max":497,"o":"m 74 418 l 497 418 l 497 310 l 74 310 l 74 418 z "},"«":{"ha":692,"x_min":8,"x_max":672,"o":"m 8 363 l 296 629 l 364 560 l 153 363 l 364 167 l 296 96 l 8 363 m 317 363 l 604 629 l 672 560 l 461 363 l 672 167 l 604 96 l 317 363 z "},"»":{"ha":692,"x_min":19,"x_max":683,"o":"m 19 167 l 231 363 l 19 560 l 88 629 l 375 363 l 88 96 l 19 167 m 328 167 l 539 363 l 328 560 l 396 629 l 683 363 l 396 96 l 328 167 z "},"+":{"ha":700,"x_min":74,"x_max":628,"o":"m 293 383 l 74 383 l 74 490 l 293 490 l 293 715 l 408 715 l 408 490 l 628 490 l 628 383 l 408 383 l 408 161 l 293 161 l 293 383 z "},"−":{"ha":700,"x_min":74,"x_max":628,"o":"m 74 490 l 628 490 l 628 383 l 74 383 l 74 490 z "},"±":{"ha":700,"x_min":74,"x_max":628,"o":"m 289 540 l 74 540 l 74 649 l 289 649 l 289 803 l 410 803 l 410 649 l 628 649 l 628 540 l 410 540 l 410 388 l 289 388 l 289 540 m 74 304 l 628 304 l 628 197 l 74 197 l 74 304 z "},"×":{"ha":675,"x_min":74,"x_max":603,"o":"m 414 438 l 601 249 l 525 172 l 338 361 l 150 174 l 74 249 l 261 438 l 74 625 l 149 701 l 338 514 l 526 701 l 603 626 l 414 438 z "},"÷":{"ha":700,"x_min":74,"x_max":628,"o":"m 350 556 q 282 584 310 556 q 254 653 254 613 q 282 722 254 693 q 350 750 310 750 q 419 722 390 750 q 449 653 449 693 q 419 584 449 613 q 350 556 390 556 m 74 486 l 628 486 l 628 379 l 74 379 l 74 486 m 350 124 q 282 152 310 124 q 254 221 254 181 q 282 290 254 261 q 350 318 310 318 q 419 290 390 318 q 449 221 449 261 q 419 152 449 181 q 350 124 390 124 z "},"=":{"ha":735,"x_min":74,"x_max":663,"o":"m 74 613 l 663 613 l 663 504 l 74 504 l 74 613 m 74 367 l 663 367 l 663 258 l 74 258 l 74 367 z "},"<":{"ha":694,"x_min":74,"x_max":621,"o":"m 74 396 l 74 483 l 621 725 l 621 610 l 240 440 l 621 269 l 621 156 l 74 396 z "},">":{"ha":694,"x_min":74,"x_max":621,"o":"m 74 269 l 454 440 l 74 610 l 74 725 l 621 483 l 621 396 l 74 156 l 74 269 z "},"°":{"ha":497,"x_min":35,"x_max":463,"o":"m 249 533 q 140 562 189 533 q 63 640 92 590 q 35 747 35 689 q 63 856 35 807 q 140 933 92 904 q 249 961 189 961 q 357 933 308 961 q 434 856 406 904 q 463 747 463 807 q 434 640 463 689 q 357 562 406 590 q 249 533 308 533 m 249 626 q 335 661 303 626 q 367 747 367 696 q 335 833 367 799 q 249 868 303 868 q 163 833 194 868 q 131 747 131 799 q 163 661 131 696 q 249 626 194 626 z "},"≈":{"ha":736,"x_min":74,"x_max":664,"o":"m 511 443 q 445 454 475 443 q 371 489 415 465 q 290 526 322 514 q 218 538 258 538 q 74 464 147 538 l 74 569 q 144 627 104 608 q 224 646 183 646 q 292 633 256 646 q 382 594 329 619 q 459 562 429 572 q 513 551 489 551 q 663 626 585 551 l 663 521 q 590 462 629 481 q 511 443 550 443 m 511 222 q 447 233 476 222 q 372 268 417 244 q 292 305 324 293 q 219 317 260 317 q 75 243 149 317 l 75 349 q 145 406 106 388 q 224 425 185 425 q 292 412 256 425 q 383 374 328 399 q 460 341 432 351 q 513 331 489 331 q 664 406 583 331 l 664 300 q 592 241 632 260 q 511 222 551 222 z "},"≥":{"ha":700,"x_min":74,"x_max":628,"o":"m 76 415 l 436 510 l 76 601 l 76 717 l 624 553 l 624 465 l 76 301 l 76 415 m 74 221 l 628 221 l 628 113 l 74 113 l 74 221 z "},"∞":{"ha":1219,"x_min":69,"x_max":1150,"o":"m 353 121 q 199 160 263 121 q 102 264 135 200 q 69 401 69 328 q 102 540 69 475 q 199 643 135 604 q 353 682 263 682 q 491 640 424 682 q 610 517 558 599 q 728 640 660 599 q 867 682 796 682 q 1021 644 957 682 q 1117 542 1085 606 q 1150 401 1150 478 q 1117 261 1150 325 q 1021 159 1085 197 q 867 121 957 121 q 727 163 794 121 q 610 286 660 204 q 491 162 558 203 q 353 121 424 121 m 353 229 q 458 273 406 229 q 547 401 511 317 q 458 530 511 486 q 353 574 406 574 q 228 524 274 574 q 183 401 183 474 q 228 279 183 329 q 353 229 274 229 m 867 229 q 991 279 946 229 q 1036 401 1036 329 q 991 524 1036 474 q 867 574 946 574 q 761 530 814 574 q 672 401 708 486 q 760 273 708 317 q 867 229 813 229 z "},"≤":{"ha":700,"x_min":72,"x_max":626,"o":"m 76 465 l 76 553 l 624 717 l 624 601 l 264 510 l 624 415 l 624 301 l 76 465 m 72 113 l 72 221 l 626 221 l 626 113 l 72 113 z "},"¬":{"ha":700,"x_min":74,"x_max":628,"o":"m 507 483 l 74 483 l 74 592 l 628 592 l 628 276 l 507 276 l 507 483 z "},"≠":{"ha":735,"x_min":74,"x_max":663,"o":"m 449 504 l 388 367 l 663 367 l 663 258 l 338 258 l 272 114 l 172 114 l 238 258 l 74 258 l 74 367 l 286 367 l 349 504 l 74 504 l 74 613 l 397 613 l 463 757 l 564 757 l 499 613 l 663 613 l 663 504 l 449 504 z "},"∫":{"ha":508,"x_min":69,"x_max":439,"o":"m 179 -301 q 69 -285 110 -301 l 69 -183 q 131 -196 107 -196 q 194 -110 194 -196 l 194 919 q 233 1059 194 1015 q 329 1103 271 1103 q 439 1088 404 1103 l 439 985 q 378 997 403 997 q 314 911 314 997 l 314 -117 q 276 -257 314 -212 q 179 -301 238 -301 z "},"∂":{"ha":801,"x_min":69,"x_max":732,"o":"m 386 994 q 643 871 554 994 q 732 474 732 747 q 648 97 732 217 q 394 -24 564 -24 q 212 20 285 -24 q 104 135 139 64 q 69 290 69 206 q 109 456 69 382 q 219 572 149 529 q 383 614 290 614 q 508 590 449 614 q 611 518 568 567 q 583 734 608 654 q 510 849 557 814 q 390 883 463 883 q 248 831 296 883 q 200 696 200 778 l 74 696 q 110 847 74 779 q 218 955 147 915 q 386 994 289 994 m 390 89 q 553 165 503 89 q 610 404 603 242 q 516 478 572 454 q 397 503 460 503 q 240 442 293 503 q 188 290 188 382 q 237 147 188 204 q 390 89 286 89 z "},"∏":{"ha":1000,"x_min":69,"x_max":931,"o":"m 157 990 l 69 990 l 69 1103 l 931 1103 l 931 990 l 844 990 l 844 -296 l 718 -296 l 718 990 l 283 990 l 283 -296 l 157 -296 l 157 990 z "},"√":{"ha":1083,"x_min":69,"x_max":1014,"o":"m 233 244 l 69 244 l 69 353 l 322 353 l 469 -87 l 881 1103 l 1014 1103 l 515 -296 l 424 -296 l 233 244 z "},"∑":{"ha":861,"x_min":69,"x_max":792,"o":"m 69 -182 l 567 404 l 69 990 l 69 1103 l 792 1103 l 792 985 l 231 985 l 726 404 l 231 -176 l 792 -176 l 792 -296 l 69 -296 l 69 -182 z "},"◊":{"ha":785,"x_min":69,"x_max":715,"o":"m 69 550 l 339 1103 l 447 1103 l 715 550 l 447 0 l 339 0 l 69 550 m 590 550 l 393 972 l 194 550 l 392 128 l 590 550 z "},"¶":{"ha":928,"x_min":69,"x_max":858,"o":"m 369 457 q 152 524 235 457 q 69 722 69 592 q 176 940 69 883 q 415 996 282 996 l 858 996 l 858 896 l 785 896 l 785 -206 l 669 -206 l 669 894 l 483 894 l 483 -206 l 369 -206 l 369 457 z "},"§":{"ha":768,"x_min":71,"x_max":697,"o":"m 690 325 q 557 138 690 200 q 642 51 611 101 q 672 -75 672 0 q 591 -249 672 -186 q 375 -311 510 -311 q 149 -240 226 -311 q 71 -51 71 -168 l 201 -51 q 245 -163 201 -122 q 376 -204 289 -204 q 496 -171 453 -204 q 539 -76 539 -137 q 510 12 539 -24 q 440 70 482 47 q 325 121 397 93 q 194 179 243 153 q 111 252 146 206 q 76 369 76 299 q 206 554 76 493 q 125 638 154 589 q 96 758 96 688 q 133 882 96 828 q 237 966 169 936 q 390 996 304 996 q 619 924 540 996 q 697 735 697 853 l 564 735 q 521 849 564 807 q 392 890 478 890 q 271 856 314 890 q 228 761 228 822 q 256 674 228 710 q 327 617 285 639 q 442 568 369 596 q 572 511 522 538 q 656 440 621 485 q 690 325 690 394 m 453 190 q 565 318 565 232 q 540 388 565 360 q 478 435 515 417 q 374 478 440 453 q 311 501 353 485 q 203 376 203 463 q 228 306 203 335 q 291 257 253 276 q 396 213 329 238 l 453 190 z "},"^":{"ha":768,"x_min":69,"x_max":699,"o":"m 339 976 l 425 976 l 699 421 l 563 421 l 383 824 l 201 421 l 69 421 l 339 976 z "},"‡":{"ha":604,"x_min":69,"x_max":535,"o":"m 242 13 l 69 13 l 69 118 l 242 118 l 242 529 l 69 529 l 69 633 l 242 633 l 242 996 l 363 996 l 363 633 l 535 633 l 535 529 l 363 529 l 363 118 l 535 118 l 535 13 l 363 13 l 363 -253 l 242 -253 l 242 13 z "},"Ƀ":{"ha":808,"x_min":111,"x_max":746,"o":"m 746 258 q 682 86 746 153 q 506 4 618 19 l 506 -137 l 414 -137 l 414 0 l 331 0 l 331 -137 l 239 -137 l 239 0 l 111 0 l 111 946 l 239 946 l 239 1083 l 331 1083 l 331 946 l 414 946 l 414 1083 l 506 1083 l 506 940 q 674 861 614 924 q 733 700 733 799 q 685 551 733 607 q 550 482 636 496 q 690 413 633 474 q 746 258 746 353 m 238 835 l 238 535 l 435 535 q 560 575 514 535 q 607 685 607 615 q 559 795 607 756 q 426 835 511 835 l 238 835 m 443 113 q 572 154 525 113 q 619 271 619 196 q 573 382 619 339 q 453 425 526 425 l 238 425 l 238 113 l 443 113 z "},"А":{"ha":819,"x_min":25,"x_max":796,"o":"m 613 149 l 208 149 l 163 0 l 25 0 l 354 972 l 467 972 l 796 0 l 658 0 l 613 149 m 576 264 l 410 797 l 244 264 l 576 264 z "},"Б":{"ha":793,"x_min":111,"x_max":746,"o":"m 111 972 l 664 972 l 664 858 l 238 858 l 238 556 l 472 556 q 614 518 551 556 q 711 417 676 481 q 746 278 746 353 q 710 139 746 203 q 613 38 675 75 q 471 0 550 0 l 111 0 l 111 972 m 471 114 q 577 162 535 114 q 619 278 619 210 q 578 394 619 346 q 472 442 536 442 l 238 442 l 238 114 l 471 114 z "},"В":{"ha":808,"x_min":111,"x_max":746,"o":"m 550 497 q 690 426 633 488 q 746 265 746 364 q 665 72 746 143 q 444 0 585 0 l 111 0 l 111 972 l 431 972 q 652 906 571 972 q 733 721 733 839 q 685 569 733 625 q 550 497 636 514 m 238 860 l 238 549 l 435 549 q 560 590 514 549 q 607 704 607 632 q 559 819 607 779 q 426 860 511 860 l 238 860 m 443 113 q 572 156 525 113 q 619 278 619 200 q 573 393 619 349 q 453 438 526 438 l 238 438 l 238 113 l 443 113 z "},"Г":{"ha":665,"x_min":111,"x_max":657,"o":"m 657 972 l 657 853 l 238 853 l 238 0 l 111 0 l 111 972 l 657 972 z "},"Ѓ":{"ha":665,"x_min":111,"x_max":657,"o":"m 229 1099 l 532 1242 l 575 1160 l 274 1015 l 229 1099 m 657 972 l 657 853 l 238 853 l 238 0 l 111 0 l 111 972 l 657 972 z "},"Ґ":{"ha":665,"x_min":111,"x_max":657,"o":"m 657 1101 l 657 853 l 238 853 l 238 0 l 111 0 l 111 972 l 531 972 l 531 1101 l 657 1101 z "},"Д":{"ha":892,"x_min":28,"x_max":835,"o":"m 835 114 l 835 -167 l 714 -167 l 714 0 l 154 0 l 154 -167 l 28 -167 l 28 114 l 75 114 q 154 170 128 114 q 181 367 181 226 l 181 972 l 771 972 l 771 114 l 835 114 m 643 114 l 643 858 l 310 858 l 310 369 q 253 114 310 210 l 643 114 z "},"Е":{"ha":757,"x_min":111,"x_max":664,"o":"m 111 972 l 664 972 l 664 858 l 238 858 l 238 540 l 664 540 l 664 426 l 238 426 l 238 114 l 664 114 l 664 0 l 111 0 l 111 972 z "},"Ё":{"ha":757,"x_min":111,"x_max":664,"o":"m 231 1038 q 165 1065 192 1038 q 139 1131 139 1092 q 165 1197 139 1169 q 231 1224 192 1224 q 298 1197 271 1224 q 325 1131 325 1169 q 297 1065 325 1092 q 231 1038 269 1038 m 560 1038 q 494 1065 521 1038 q 467 1131 467 1092 q 494 1197 467 1169 q 560 1224 521 1224 q 626 1197 599 1224 q 653 1131 653 1169 q 626 1065 653 1092 q 560 1038 599 1038 m 111 972 l 664 972 l 664 858 l 238 858 l 238 540 l 664 540 l 664 426 l 238 426 l 238 114 l 664 114 l 664 0 l 111 0 l 111 972 z "},"Ж":{"ha":1310,"x_min":18,"x_max":1292,"o":"m 1292 0 l 1131 0 l 718 478 l 718 0 l 592 0 l 592 478 l 179 0 l 18 0 l 461 497 l 444 497 q 346 561 385 497 l 211 778 q 157 845 179 828 q 104 863 135 863 l 56 863 l 56 978 l 131 978 q 224 947 186 978 q 307 844 263 917 l 444 628 q 494 572 467 589 q 550 556 522 556 l 592 556 l 592 972 l 718 972 l 718 556 l 760 556 q 815 572 788 556 q 865 628 843 589 l 1003 844 q 1085 947 1047 917 q 1179 978 1124 978 l 1254 978 l 1254 863 l 1206 863 q 1153 845 1175 863 q 1099 778 1131 828 l 964 561 q 865 497 925 497 l 849 497 l 1292 0 z "},"З":{"ha":783,"x_min":60,"x_max":719,"o":"m 186 297 q 244 147 186 203 q 396 92 301 92 q 539 144 486 92 q 592 272 592 196 q 544 398 592 353 q 394 443 496 443 l 319 443 l 319 556 l 394 556 q 531 601 486 556 q 576 717 576 647 q 526 834 576 788 q 394 881 476 881 q 249 831 306 881 q 193 697 193 782 l 65 697 q 106 852 65 785 q 222 957 147 919 q 390 994 296 994 q 549 963 478 994 q 662 872 621 932 q 703 726 703 811 q 656 582 703 642 q 536 506 610 522 q 668 429 617 492 q 719 272 719 367 q 680 118 719 185 q 567 15 640 51 q 399 -22 494 -22 q 222 16 299 -22 q 103 126 146 54 q 60 297 60 199 l 186 297 z "},"И":{"ha":926,"x_min":111,"x_max":815,"o":"m 238 65 l 238 0 l 111 0 l 111 972 l 238 972 l 238 251 l 689 907 l 689 972 l 815 972 l 815 0 l 689 0 l 689 721 l 238 65 z "},"Й":{"ha":926,"x_min":111,"x_max":815,"o":"m 465 992 q 297 1035 364 992 q 224 1151 229 1078 l 324 1151 q 369 1093 331 1113 q 465 1074 408 1074 q 561 1093 522 1074 q 608 1151 600 1113 l 708 1151 q 634 1035 701 1078 q 465 992 567 992 m 238 65 l 238 0 l 111 0 l 111 972 l 238 972 l 238 251 l 689 907 l 689 972 l 815 972 l 815 0 l 689 0 l 689 721 l 238 65 z "},"Ҋ":{"ha":935,"x_min":111,"x_max":878,"o":"m 465 992 q 297 1035 364 992 q 224 1151 229 1078 l 324 1151 q 369 1093 331 1113 q 465 1074 408 1074 q 561 1093 522 1074 q 608 1151 600 1113 l 708 1151 q 634 1035 701 1078 q 465 992 567 992 m 878 114 l 878 -167 l 757 -167 l 757 0 l 689 0 l 689 721 l 238 65 l 238 0 l 111 0 l 111 972 l 238 972 l 238 251 l 689 907 l 689 972 l 815 972 l 815 114 l 878 114 z "},"К":{"ha":829,"x_min":111,"x_max":811,"o":"m 811 0 l 650 0 l 238 478 l 238 0 l 111 0 l 111 972 l 238 972 l 238 556 l 279 556 q 335 572 307 556 q 385 628 363 589 l 522 844 q 605 947 567 917 q 699 978 643 978 l 774 978 l 774 863 l 725 863 q 672 845 694 863 q 618 778 650 828 l 483 561 q 385 497 444 497 l 368 497 l 811 0 z "},"Ќ":{"ha":829,"x_min":111,"x_max":811,"o":"m 297 1015 l 253 1099 l 556 1242 l 599 1160 l 297 1015 m 811 0 l 650 0 l 238 478 l 238 0 l 111 0 l 111 972 l 238 972 l 238 556 l 279 556 q 335 572 307 556 q 385 628 363 589 l 522 844 q 605 947 567 917 q 699 978 643 978 l 774 978 l 774 863 l 725 863 q 672 845 694 863 q 618 778 650 828 l 483 561 q 385 497 444 497 l 368 497 l 811 0 z "},"Л":{"ha":936,"x_min":29,"x_max":825,"o":"m 65 111 q 172 169 136 111 q 208 367 208 226 l 208 972 l 825 972 l 825 0 l 699 0 l 699 860 l 335 860 l 335 364 q 85 -8 335 -8 l 29 -8 l 29 111 l 65 111 z "},"М":{"ha":1133,"x_min":111,"x_max":1022,"o":"m 111 972 l 233 972 l 567 179 l 900 972 l 1022 972 l 1022 0 l 900 0 l 900 710 l 615 0 l 518 0 l 233 714 l 233 0 l 111 0 l 111 972 z "},"Н":{"ha":928,"x_min":111,"x_max":817,"o":"m 111 972 l 238 972 l 238 540 l 690 540 l 690 972 l 817 972 l 817 0 l 690 0 l 690 426 l 238 426 l 238 0 l 111 0 l 111 972 z "},"О":{"ha":1107,"x_min":53,"x_max":1056,"o":"m 554 -22 q 289 47 403 -22 q 114 231 175 115 q 53 486 53 347 q 114 741 53 625 q 289 926 175 857 q 554 994 403 994 q 819 926 706 994 q 994 741 933 857 q 1056 486 1056 625 q 994 231 1056 347 q 819 47 933 115 q 554 -22 706 -22 m 554 92 q 751 145 668 92 q 879 288 835 199 q 922 486 924 378 q 879 684 924 594 q 751 827 835 774 q 554 881 668 881 q 357 827 440 881 q 229 684 274 774 q 185 486 185 594 q 229 288 185 378 q 357 145 274 199 q 554 92 440 92 z "},"П":{"ha":924,"x_min":111,"x_max":813,"o":"m 238 0 l 111 0 l 111 972 l 813 972 l 813 0 l 686 0 l 686 858 l 238 858 l 238 0 z "},"Р":{"ha":806,"x_min":111,"x_max":786,"o":"m 460 972 q 628 929 554 972 q 744 810 703 886 q 786 636 786 733 q 744 464 786 540 q 628 344 703 388 q 460 301 554 301 l 238 301 l 238 0 l 111 0 l 111 972 l 460 972 m 453 415 q 558 444 511 415 q 633 523 606 472 q 660 636 660 574 q 633 751 660 700 q 558 830 606 801 q 453 858 511 858 l 238 858 l 238 415 l 453 415 z "},"С":{"ha":1071,"x_min":53,"x_max":1021,"o":"m 556 -22 q 288 44 401 -22 q 113 226 174 110 q 53 486 53 342 q 113 747 53 632 q 288 928 174 863 q 556 994 401 994 q 783 951 685 994 q 942 829 882 907 q 1021 653 1003 751 l 882 653 q 771 819 854 758 q 557 881 688 881 q 358 831 442 881 q 229 691 274 781 q 185 486 185 601 q 229 281 185 371 q 358 142 274 192 q 557 92 442 92 q 771 153 688 92 q 882 319 854 214 l 1021 319 q 942 143 1003 221 q 783 22 882 65 q 556 -22 685 -22 z "},"Т":{"ha":724,"x_min":8,"x_max":715,"o":"m 299 853 l 8 853 l 8 972 l 715 972 l 715 853 l 425 853 l 425 0 l 299 0 l 299 853 z "},"У":{"ha":767,"x_min":-14,"x_max":788,"o":"m 788 972 l 299 0 l 158 0 l 354 386 l -14 972 l 133 972 l 418 517 l 649 972 l 788 972 z "},"Ў":{"ha":767,"x_min":-14,"x_max":788,"o":"m 400 1019 q 240 1072 306 1019 q 168 1207 175 1125 l 268 1207 q 311 1132 275 1157 q 400 1107 347 1107 q 489 1132 453 1107 q 532 1207 525 1157 l 632 1207 q 560 1072 625 1125 q 400 1019 494 1019 m 788 972 l 299 0 l 158 0 l 354 386 l -14 972 l 133 972 l 418 517 l 649 972 l 788 972 z "},"Ф":{"ha":979,"x_min":19,"x_max":961,"o":"m 621 840 q 799 792 721 840 q 919 664 876 744 q 961 486 961 583 q 919 308 961 389 q 799 180 876 228 q 621 132 721 132 l 553 132 l 553 0 l 426 0 l 426 132 l 358 132 q 181 180 258 132 q 62 308 104 228 q 19 486 19 389 q 62 664 19 583 q 181 792 104 744 q 358 840 258 840 l 426 840 l 426 972 l 553 972 l 553 840 l 621 840 m 146 486 q 172 365 146 419 q 247 278 199 310 q 358 246 296 246 l 426 246 l 426 726 l 358 726 q 247 694 296 726 q 172 608 199 663 q 146 486 146 553 m 621 246 q 732 278 683 246 q 807 365 781 310 q 833 486 833 419 q 807 608 833 553 q 732 694 781 663 q 621 726 683 726 l 553 726 l 553 246 l 621 246 z "},"Х":{"ha":839,"x_min":28,"x_max":811,"o":"m 347 486 l 28 972 l 171 972 l 419 590 l 668 972 l 811 972 l 492 486 l 811 0 l 668 0 l 419 381 l 171 0 l 28 0 l 347 486 z "},"Ч":{"ha":804,"x_min":63,"x_max":693,"o":"m 567 360 q 467 319 519 331 q 356 308 415 308 q 140 393 217 308 q 63 611 63 478 l 63 972 l 189 972 l 189 643 q 389 422 189 422 q 486 432 444 422 q 567 474 528 442 l 567 972 l 693 972 l 693 0 l 567 0 l 567 360 z "},"Ц":{"ha":907,"x_min":111,"x_max":849,"o":"m 849 114 l 849 -167 l 728 -167 l 728 0 l 111 0 l 111 972 l 238 972 l 238 114 l 660 114 l 660 972 l 786 972 l 786 114 l 849 114 z "},"Ш":{"ha":1268,"x_min":111,"x_max":1157,"o":"m 111 972 l 238 972 l 238 114 l 571 114 l 571 972 l 697 972 l 697 114 l 1031 114 l 1031 972 l 1157 972 l 1157 0 l 111 0 l 111 972 z "},"Щ":{"ha":1278,"x_min":111,"x_max":1221,"o":"m 1221 114 l 1221 -167 l 1100 -167 l 1100 0 l 111 0 l 111 972 l 238 972 l 238 114 l 571 114 l 571 972 l 697 972 l 697 114 l 1031 114 l 1031 972 l 1157 972 l 1157 114 l 1221 114 z "},"Џ":{"ha":897,"x_min":111,"x_max":786,"o":"m 786 0 l 511 0 l 511 -167 l 385 -167 l 385 0 l 111 0 l 111 972 l 238 972 l 238 114 l 660 114 l 660 972 l 786 972 l 786 0 z "},"Ь":{"ha":793,"x_min":111,"x_max":746,"o":"m 111 972 l 238 972 l 238 556 l 472 556 q 614 518 551 556 q 711 417 676 481 q 746 278 746 353 q 710 139 746 203 q 613 38 675 75 q 471 0 550 0 l 111 0 l 111 972 m 471 114 q 577 162 535 114 q 619 278 619 210 q 578 394 619 346 q 472 442 536 442 l 238 442 l 238 114 l 471 114 z "},"Ъ":{"ha":965,"x_min":8,"x_max":918,"o":"m 644 556 q 786 518 724 556 q 883 417 849 481 q 918 278 918 353 q 883 139 918 203 q 785 38 847 75 q 643 0 722 0 l 283 0 l 283 858 l 8 858 l 8 972 l 410 972 l 410 556 l 644 556 m 643 114 q 749 162 707 114 q 792 278 792 210 q 750 394 792 346 q 644 442 708 442 l 410 442 l 410 114 l 643 114 z "},"Ы":{"ha":1076,"x_min":111,"x_max":965,"o":"m 111 972 l 238 972 l 238 556 l 472 556 q 614 518 551 556 q 711 417 676 481 q 746 278 746 353 q 710 139 746 203 q 613 38 675 75 q 471 0 550 0 l 111 0 l 111 972 m 471 114 q 577 162 535 114 q 619 278 619 210 q 578 394 619 346 q 472 442 536 442 l 238 442 l 238 114 l 471 114 m 839 972 l 965 972 l 965 0 l 839 0 l 839 972 z "},"Љ":{"ha":1381,"x_min":29,"x_max":1333,"o":"m 1060 556 q 1201 518 1139 556 q 1299 417 1264 481 q 1333 278 1333 353 q 1298 139 1333 203 q 1200 38 1263 75 q 1058 0 1138 0 l 699 0 l 699 860 l 335 860 l 335 364 q 85 -8 335 -8 l 29 -8 l 29 111 l 65 111 q 172 169 136 111 q 208 367 208 226 l 208 972 l 825 972 l 825 556 l 1060 556 m 1058 114 q 1165 162 1122 114 q 1207 278 1207 210 q 1165 394 1207 346 q 1060 442 1124 442 l 825 442 l 825 114 l 1058 114 z "},"Њ":{"ha":1372,"x_min":111,"x_max":1325,"o":"m 1051 556 q 1193 518 1131 556 q 1290 417 1256 481 q 1325 278 1325 353 q 1290 139 1325 203 q 1192 38 1254 75 q 1050 0 1129 0 l 690 0 l 690 426 l 238 426 l 238 0 l 111 0 l 111 972 l 238 972 l 238 540 l 690 540 l 690 972 l 817 972 l 817 556 l 1051 556 m 1050 114 q 1156 162 1114 114 q 1199 278 1199 210 q 1157 394 1199 346 q 1051 442 1115 442 l 817 442 l 817 114 l 1050 114 z "},"Ѕ":{"ha":774,"x_min":49,"x_max":718,"o":"m 400 -22 q 142 65 235 -22 q 49 310 49 153 l 175 310 q 235 149 175 208 q 399 89 296 89 q 540 131 490 89 q 590 250 590 174 q 555 353 590 314 q 435 421 519 392 l 274 478 q 78 733 78 540 q 117 869 78 810 q 225 962 156 929 q 383 994 294 994 q 613 914 526 994 q 699 697 699 833 l 572 697 q 522 837 572 788 q 379 886 472 886 q 252 847 299 886 q 206 740 206 807 q 246 639 206 679 q 376 568 286 599 l 526 515 q 718 253 718 447 q 678 108 718 171 q 567 12 639 46 q 400 -22 496 -22 z "},"Є":{"ha":1026,"x_min":53,"x_max":976,"o":"m 539 92 q 738 150 657 92 q 839 304 818 208 l 976 304 q 899 134 958 208 q 747 19 840 60 q 539 -22 654 -22 q 285 42 396 -22 q 114 221 175 106 q 53 486 53 336 q 114 751 53 636 q 285 931 175 867 q 539 994 396 994 q 827 907 708 994 q 976 671 946 819 l 839 671 q 736 823 817 765 q 539 881 656 881 q 299 790 394 881 q 188 544 204 699 l 668 544 l 668 429 l 188 429 q 299 183 204 274 q 539 92 393 92 z "},"Э":{"ha":1026,"x_min":50,"x_max":974,"o":"m 488 994 q 741 931 631 994 q 913 751 851 867 q 974 486 974 636 q 913 221 974 336 q 741 42 851 106 q 488 -22 631 -22 q 279 19 372 -22 q 127 134 186 60 q 50 304 68 208 l 188 304 q 289 150 208 208 q 488 92 369 92 q 728 183 633 92 q 839 429 822 274 l 358 429 l 358 544 l 839 544 q 727 790 822 699 q 488 881 632 881 q 290 823 371 881 q 188 671 210 765 l 50 671 q 199 907 81 819 q 488 994 318 994 z "},"І":{"ha":349,"x_min":111,"x_max":238,"o":"m 111 972 l 238 972 l 238 0 l 111 0 l 111 972 z "},"Ї":{"ha":349,"x_min":-10,"x_max":361,"o":"m 76 1043 q 15 1067 39 1043 q -10 1129 -10 1092 q 15 1191 -10 1167 q 76 1215 39 1215 q 138 1191 114 1215 q 163 1129 163 1167 q 138 1067 163 1092 q 76 1043 114 1043 m 274 1043 q 213 1067 238 1043 q 188 1129 188 1092 q 213 1191 188 1167 q 274 1215 238 1215 q 336 1191 311 1215 q 361 1129 361 1167 q 336 1067 361 1092 q 274 1043 311 1043 m 111 972 l 238 972 l 238 0 l 111 0 l 111 972 z "},"Ј":{"ha":744,"x_min":32,"x_max":658,"o":"m 346 -22 q 117 67 201 -22 q 32 308 32 157 l 158 308 q 209 150 158 208 q 346 92 260 92 q 483 151 433 92 q 532 311 532 210 l 532 972 l 658 972 l 658 311 q 575 68 658 158 q 346 -22 492 -22 z "},"Ћ":{"ha":1026,"x_min":8,"x_max":929,"o":"m 636 664 q 852 579 775 664 q 929 361 929 494 l 929 0 l 803 0 l 803 329 q 603 550 803 550 q 506 540 547 550 q 425 499 464 531 l 425 0 l 299 0 l 299 853 l 8 853 l 8 972 l 715 972 l 715 853 l 425 853 l 425 613 q 524 653 472 643 q 636 664 575 664 z "},"Ю":{"ha":1435,"x_min":111,"x_max":1383,"o":"m 882 994 q 1147 926 1033 994 q 1322 741 1261 857 q 1383 486 1383 625 q 1322 231 1383 347 q 1147 47 1261 115 q 882 -22 1033 -22 q 633 38 742 -22 q 460 199 524 97 q 383 426 396 301 l 238 426 l 238 0 l 111 0 l 111 972 l 238 972 l 238 540 l 383 540 q 458 770 394 667 q 631 934 522 874 q 882 994 740 994 m 882 92 q 1079 145 996 92 q 1207 288 1163 199 q 1250 486 1251 378 q 1207 684 1251 594 q 1079 827 1163 774 q 882 881 996 881 q 685 827 768 881 q 557 684 601 774 q 513 486 513 594 q 557 288 513 378 q 685 145 601 199 q 882 92 768 92 z "},"Я":{"ha":842,"x_min":56,"x_max":731,"o":"m 731 972 l 731 0 l 604 0 l 604 301 l 401 301 l 214 0 l 69 0 l 267 319 q 113 438 169 353 q 56 636 56 522 q 97 810 56 733 q 213 929 139 886 q 382 972 288 972 l 731 972 m 604 415 l 604 858 l 389 858 q 283 830 331 858 q 209 751 236 801 q 182 636 182 700 q 209 523 182 574 q 283 444 236 472 q 389 415 331 415 l 604 415 z "},"Ђ":{"ha":988,"x_min":8,"x_max":935,"o":"m 624 669 q 781 631 710 669 q 893 516 851 592 q 935 336 935 440 q 849 72 935 160 q 601 -15 763 -15 q 531 -8 560 -15 l 531 103 q 560 99 544 100 q 586 97 576 97 q 751 157 694 97 q 808 329 808 217 q 751 499 808 444 q 600 554 694 554 q 507 544 549 554 q 425 506 465 533 l 425 0 l 299 0 l 299 853 l 8 853 l 8 972 l 715 972 l 715 853 l 425 853 l 425 619 q 624 669 507 669 z "},"Ѣ":{"ha":981,"x_min":8,"x_max":933,"o":"m 660 556 q 801 518 739 556 q 899 417 864 481 q 933 278 933 353 q 898 139 933 203 q 800 38 863 75 q 658 0 738 0 l 299 0 l 299 853 l 8 853 l 8 972 l 715 972 l 715 853 l 425 853 l 425 556 l 660 556 m 658 114 q 765 162 722 114 q 807 278 807 210 q 765 394 807 346 q 660 442 724 442 l 425 442 l 425 114 l 658 114 z "},"Ѳ":{"ha":1107,"x_min":53,"x_max":1056,"o":"m 554 994 q 819 926 706 994 q 994 741 933 857 q 1056 486 1056 625 q 994 231 1056 347 q 819 47 933 115 q 554 -22 706 -22 q 289 47 403 -22 q 114 231 175 115 q 53 486 53 347 q 114 741 53 625 q 289 926 175 857 q 554 994 403 994 m 554 881 q 367 834 447 881 q 241 707 288 788 q 186 528 194 626 l 921 528 q 867 707 913 626 q 741 834 821 788 q 554 881 661 881 m 554 92 q 741 139 661 92 q 867 267 821 186 q 921 446 913 347 l 186 446 q 241 267 194 347 q 367 139 288 186 q 554 92 447 92 z "},"Ѵ":{"ha":831,"x_min":1,"x_max":826,"o":"m 342 0 l 1 972 l 135 972 l 389 197 l 593 824 q 660 944 621 908 q 774 979 700 979 l 826 979 l 826 865 l 800 865 q 745 847 767 865 q 707 782 724 828 l 433 0 l 342 0 z "},"Ғ":{"ha":665,"x_min":17,"x_max":657,"o":"m 238 853 l 238 579 l 472 579 l 472 482 l 238 482 l 238 0 l 111 0 l 111 482 l 17 482 l 17 579 l 111 579 l 111 972 l 657 972 l 657 853 l 238 853 z "},"Ҕ":{"ha":839,"x_min":111,"x_max":742,"o":"m 450 601 q 665 517 589 601 q 742 299 742 433 l 742 -114 q 691 -255 742 -206 q 546 -304 640 -304 q 454 -289 488 -304 l 454 -175 q 526 -185 483 -185 q 594 -159 572 -185 q 615 -76 615 -133 l 615 267 q 415 488 615 488 q 319 478 361 488 q 238 436 276 468 l 238 0 l 111 0 l 111 972 l 657 972 l 657 853 l 238 853 l 238 550 q 337 591 286 581 q 450 601 388 601 z "},"Җ":{"ha":1331,"x_min":18,"x_max":1311,"o":"m 1311 114 l 1311 -167 l 1190 -167 l 1190 0 l 1131 0 l 718 478 l 718 0 l 592 0 l 592 478 l 179 0 l 18 0 l 461 497 l 444 497 q 346 561 385 497 l 211 778 q 157 845 179 828 q 104 863 135 863 l 56 863 l 56 978 l 131 978 q 224 947 186 978 q 307 844 263 917 l 444 628 q 494 572 467 589 q 550 556 522 556 l 592 556 l 592 972 l 718 972 l 718 556 l 760 556 q 815 572 788 556 q 865 628 843 589 l 1003 844 q 1085 947 1047 917 q 1179 978 1124 978 l 1254 978 l 1254 863 l 1206 863 q 1153 845 1175 863 q 1099 778 1131 828 l 964 561 q 865 497 925 497 l 849 497 l 1190 114 l 1311 114 z "},"Ҙ":{"ha":783,"x_min":60,"x_max":719,"o":"m 719 272 q 642 69 719 149 q 433 -21 564 -11 l 433 -87 q 459 -72 442 -78 q 497 -67 476 -67 q 572 -97 542 -67 q 603 -178 603 -126 q 569 -265 603 -231 q 476 -300 536 -300 q 393 -274 425 -300 q 357 -200 361 -247 l 421 -200 q 438 -232 422 -219 q 475 -244 453 -244 q 519 -228 503 -244 q 535 -179 535 -211 q 519 -132 535 -149 q 478 -115 504 -115 q 425 -143 442 -115 l 368 -143 l 368 -21 q 144 72 229 -12 q 60 297 60 157 l 186 297 q 244 147 186 203 q 396 92 301 92 q 539 144 486 92 q 592 272 592 196 q 544 398 592 353 q 394 443 496 443 l 319 443 l 319 556 l 394 556 q 531 601 486 556 q 576 717 576 647 q 526 834 576 788 q 394 881 476 881 q 249 831 306 881 q 193 697 193 782 l 65 697 q 106 852 65 785 q 222 957 147 919 q 390 994 296 994 q 549 963 478 994 q 662 872 621 932 q 703 726 703 811 q 656 582 703 642 q 536 506 610 522 q 668 429 617 492 q 719 272 719 367 z "},"Қ":{"ha":843,"x_min":111,"x_max":824,"o":"m 824 114 l 824 -167 l 703 -167 l 703 0 l 650 0 l 238 478 l 238 0 l 111 0 l 111 972 l 238 972 l 238 556 l 279 556 q 335 572 307 556 q 385 628 363 589 l 522 844 q 605 947 567 917 q 699 978 643 978 l 774 978 l 774 863 l 725 863 q 672 845 694 863 q 618 778 650 828 l 483 561 q 385 497 444 497 l 368 497 l 710 114 l 824 114 z "},"Ҝ":{"ha":913,"x_min":111,"x_max":894,"o":"m 733 0 l 338 453 l 338 261 l 289 261 l 289 471 l 238 471 l 238 0 l 111 0 l 111 972 l 238 972 l 238 556 l 289 556 l 289 768 l 338 768 l 338 556 l 356 556 q 415 573 385 556 q 468 628 446 590 l 606 844 q 689 947 651 917 q 782 978 726 978 l 857 978 l 857 863 l 808 863 q 756 845 778 863 q 701 778 733 828 l 567 561 q 519 513 547 528 q 461 497 492 497 l 444 497 l 894 0 l 733 0 z "},"Ҟ":{"ha":906,"x_min":111,"x_max":888,"o":"m 888 0 l 726 0 l 314 478 l 314 0 l 188 0 l 188 742 l 111 742 l 111 839 l 188 839 l 188 972 l 314 972 l 314 839 l 463 839 l 463 742 l 314 742 l 314 556 l 356 556 q 411 572 383 556 q 461 628 439 589 l 599 844 q 681 947 643 917 q 775 978 719 978 l 850 978 l 850 863 l 801 863 q 749 845 771 863 q 694 778 726 828 l 560 561 q 461 497 521 497 l 444 497 l 888 0 z "},"Ҡ":{"ha":1001,"x_min":8,"x_max":983,"o":"m 983 0 l 822 0 l 410 478 l 410 0 l 283 0 l 283 858 l 8 858 l 8 972 l 410 972 l 410 556 l 451 556 q 507 572 479 556 q 557 628 535 589 l 694 844 q 777 947 739 917 q 871 978 815 978 l 946 978 l 946 863 l 897 863 q 844 845 867 863 q 790 778 822 828 l 656 561 q 557 497 617 497 l 540 497 l 983 0 z "},"Ң":{"ha":936,"x_min":111,"x_max":879,"o":"m 879 114 l 879 -167 l 758 -167 l 758 0 l 690 0 l 690 426 l 238 426 l 238 0 l 111 0 l 111 972 l 238 972 l 238 540 l 690 540 l 690 972 l 817 972 l 817 114 l 879 114 z "},"Ҥ":{"ha":1243,"x_min":111,"x_max":1235,"o":"m 1235 853 l 817 853 l 817 0 l 689 0 l 689 426 l 238 426 l 238 0 l 111 0 l 111 972 l 238 972 l 238 540 l 689 540 l 689 972 l 1235 972 l 1235 853 z "},"Ҧ":{"ha":1414,"x_min":111,"x_max":1317,"o":"m 1025 654 q 1240 569 1164 654 q 1317 351 1317 485 l 1317 -114 q 1266 -255 1317 -206 q 1121 -304 1215 -304 q 1029 -289 1063 -304 l 1029 -175 q 1101 -185 1058 -185 q 1169 -159 1147 -185 q 1190 -76 1190 -133 l 1190 319 q 990 539 1190 539 q 892 530 933 539 q 813 488 851 521 l 813 0 l 686 0 l 686 858 l 238 858 l 238 0 l 111 0 l 111 972 l 813 972 l 813 601 q 913 643 861 632 q 1025 654 964 654 z "},"Ԥ":{"ha":924,"x_min":111,"x_max":876,"o":"m 876 114 l 876 -167 l 756 -167 l 756 0 l 686 0 l 686 858 l 238 858 l 238 0 l 111 0 l 111 972 l 813 972 l 813 114 l 876 114 z "},"Ҩ":{"ha":1081,"x_min":53,"x_max":1022,"o":"m 871 82 q 951 90 908 81 q 1022 114 993 99 l 1022 6 q 874 -24 951 -24 q 704 8 772 -24 q 525 -24 639 -24 q 274 39 381 -24 q 110 215 167 101 q 53 476 53 328 q 119 749 53 632 q 313 931 186 867 q 617 996 440 996 q 817 965 725 996 l 817 847 q 615 879 722 879 q 390 828 488 879 q 240 687 293 778 q 186 479 186 596 q 228 277 186 367 q 350 136 269 188 q 540 85 431 85 q 579 86 567 85 q 469 227 506 142 q 433 417 433 313 q 471 594 433 519 q 575 707 508 668 q 728 746 642 746 q 935 664 857 746 q 1013 442 1013 582 q 969 239 1013 338 q 844 83 925 140 q 871 82 854 82 m 561 411 q 603 238 561 313 q 715 122 644 164 q 847 245 800 165 q 893 428 893 325 q 849 575 893 522 q 728 628 804 628 q 605 572 649 628 q 561 411 561 515 z "},"Ҫ":{"ha":1071,"x_min":53,"x_max":1021,"o":"m 557 92 q 771 153 688 92 q 882 319 854 214 l 1021 319 q 881 81 994 174 q 588 -21 767 -12 l 588 -87 q 613 -72 596 -78 q 651 -67 631 -67 q 726 -97 696 -67 q 757 -178 757 -126 q 724 -265 757 -231 q 631 -300 690 -300 q 547 -274 579 -300 q 511 -200 515 -247 l 575 -200 q 592 -232 576 -219 q 629 -244 607 -244 q 673 -228 657 -244 q 689 -179 689 -211 q 674 -132 689 -149 q 632 -115 658 -115 q 579 -143 596 -115 l 522 -143 l 522 -21 q 272 53 378 -14 q 109 233 165 121 q 53 486 53 346 q 113 747 53 632 q 288 928 174 863 q 556 994 401 994 q 783 951 685 994 q 942 829 882 907 q 1021 653 1003 751 l 882 653 q 771 819 854 758 q 557 881 688 881 q 358 831 442 881 q 229 691 274 781 q 185 486 185 601 q 229 281 185 371 q 358 142 274 192 q 557 92 442 92 z "},"Ҭ":{"ha":724,"x_min":8,"x_max":715,"o":"m 425 853 l 425 114 l 489 114 l 489 -167 l 368 -167 l 368 0 l 299 0 l 299 853 l 8 853 l 8 972 l 715 972 l 715 853 l 425 853 z "},"Ү":{"ha":829,"x_min":-6,"x_max":833,"o":"m 350 396 l -6 972 l 142 972 l 414 517 l 688 972 l 833 972 l 479 396 l 479 0 l 350 0 l 350 396 z "},"Ұ":{"ha":829,"x_min":-6,"x_max":833,"o":"m 479 322 l 640 322 l 640 225 l 479 225 l 479 0 l 350 0 l 350 225 l 190 225 l 190 322 l 350 322 l 350 396 l -6 972 l 142 972 l 414 517 l 688 972 l 833 972 l 479 396 l 479 322 z "},"Ҳ":{"ha":883,"x_min":28,"x_max":826,"o":"m 826 114 l 826 -167 l 706 -167 l 706 0 l 668 0 l 419 381 l 171 0 l 28 0 l 347 486 l 28 972 l 171 972 l 419 590 l 668 972 l 811 972 l 492 486 l 736 114 l 826 114 z "},"Ҵ":{"ha":1054,"x_min":8,"x_max":997,"o":"m 997 114 l 997 -167 l 876 -167 l 876 0 l 258 0 l 258 853 l 8 853 l 8 972 l 639 972 l 639 853 l 386 853 l 386 114 l 807 114 l 807 972 l 933 972 l 933 114 l 997 114 z "},"Ҷ":{"ha":811,"x_min":63,"x_max":754,"o":"m 754 114 l 754 -167 l 633 -167 l 633 0 l 567 0 l 567 360 q 467 319 519 331 q 356 308 415 308 q 140 393 217 308 q 63 611 63 478 l 63 972 l 189 972 l 189 643 q 389 422 189 422 q 486 432 444 422 q 567 474 528 442 l 567 972 l 693 972 l 693 114 l 754 114 z "},"Ҹ":{"ha":804,"x_min":63,"x_max":693,"o":"m 693 972 l 693 0 l 567 0 l 567 360 q 429 313 504 322 l 429 172 l 347 172 l 347 308 q 137 395 211 311 q 63 611 63 479 l 63 972 l 189 972 l 189 643 q 229 491 189 546 q 347 425 269 436 l 347 588 l 429 588 l 429 424 q 567 474 510 428 l 567 972 l 693 972 z "},"Һ":{"ha":804,"x_min":111,"x_max":742,"o":"m 238 613 q 337 653 285 642 q 449 664 389 664 q 665 579 588 664 q 742 361 742 494 l 742 0 l 615 0 l 615 329 q 415 550 615 550 q 318 540 360 550 q 238 499 276 531 l 238 0 l 111 0 l 111 972 l 238 972 l 238 613 z "},"Ԧ":{"ha":863,"x_min":111,"x_max":806,"o":"m 806 114 l 806 -167 l 685 -167 l 685 0 l 615 0 l 615 329 q 415 550 615 550 q 319 540 361 550 q 238 499 276 531 l 238 0 l 111 0 l 111 972 l 238 972 l 238 613 q 337 653 286 643 q 450 664 388 664 q 665 580 589 664 q 742 361 742 496 l 742 114 l 806 114 z "},"Ҽ":{"ha":1275,"x_min":49,"x_max":1222,"o":"m 751 989 q 993 926 885 989 q 1162 753 1101 864 q 1222 504 1222 642 l 1222 429 l 388 429 q 487 188 399 281 q 744 94 575 94 q 952 147 878 94 q 1063 290 1026 199 l 1210 290 q 1129 133 1190 204 q 969 19 1068 61 q 744 -24 871 -24 q 492 35 599 -24 q 325 197 385 94 q 254 429 265 300 l 219 429 q 96 478 143 429 q 49 603 49 526 l 49 661 l 163 661 l 163 606 q 182 550 163 571 q 235 529 201 529 l 253 529 q 324 765 263 661 q 496 929 386 869 q 751 989 606 989 m 1090 529 q 1045 708 1089 629 q 924 832 1001 788 q 746 876 846 876 q 562 834 643 876 q 435 713 481 792 q 388 529 389 635 l 1090 529 z "},"Ҿ":{"ha":1275,"x_min":49,"x_max":1222,"o":"m 564 1038 q 499 1065 525 1038 q 472 1131 472 1092 q 499 1197 472 1169 q 564 1224 525 1224 q 631 1197 604 1224 q 658 1131 658 1169 q 631 1065 658 1092 q 564 1038 603 1038 m 893 1038 q 827 1065 854 1038 q 800 1131 800 1092 q 827 1197 800 1169 q 893 1224 854 1224 q 959 1197 932 1224 q 986 1131 986 1169 q 959 1065 986 1092 q 893 1038 932 1038 m 751 989 q 993 926 885 989 q 1162 753 1101 864 q 1222 504 1222 642 l 1222 429 l 388 429 q 487 188 399 281 q 744 94 575 94 q 952 147 878 94 q 1063 290 1026 199 l 1210 290 q 1129 133 1190 204 q 969 19 1068 61 q 744 -24 871 -24 q 492 35 599 -24 q 325 197 385 94 q 254 429 265 300 l 219 429 q 96 478 143 429 q 49 603 49 526 l 49 661 l 163 661 l 163 606 q 182 550 163 571 q 235 529 201 529 l 253 529 q 324 765 263 661 q 496 929 386 869 q 751 989 606 989 m 1090 529 q 1045 708 1089 629 q 924 832 1001 788 q 746 876 846 876 q 562 834 643 876 q 435 713 481 792 q 388 529 389 635 l 1090 529 z "},"Ӏ":{"ha":349,"x_min":111,"x_max":238,"o":"m 111 972 l 238 972 l 238 0 l 111 0 l 111 972 z "},"Ӂ":{"ha":1310,"x_min":18,"x_max":1292,"o":"m 654 1019 q 485 1063 553 1019 q 413 1179 418 1106 l 513 1179 q 558 1121 519 1140 q 654 1101 597 1101 q 750 1121 711 1101 q 797 1179 789 1140 l 897 1179 q 823 1063 890 1106 q 654 1019 756 1019 m 1292 0 l 1131 0 l 718 478 l 718 0 l 592 0 l 592 478 l 179 0 l 18 0 l 461 497 l 444 497 q 346 561 385 497 l 211 778 q 157 845 179 828 q 104 863 135 863 l 56 863 l 56 978 l 131 978 q 224 947 186 978 q 307 844 263 917 l 444 628 q 494 572 467 589 q 550 556 522 556 l 592 556 l 592 972 l 718 972 l 718 556 l 760 556 q 815 572 788 556 q 865 628 843 589 l 1003 844 q 1085 947 1047 917 q 1179 978 1124 978 l 1254 978 l 1254 863 l 1206 863 q 1153 845 1175 863 q 1099 778 1131 828 l 964 561 q 865 497 925 497 l 849 497 l 1292 0 z "},"Ӄ":{"ha":856,"x_min":111,"x_max":803,"o":"m 506 581 q 656 545 588 581 q 763 442 724 510 q 803 279 803 374 q 721 56 803 133 q 485 -21 639 -21 q 399 -14 433 -21 l 399 93 q 469 88 426 88 q 629 136 576 88 q 682 276 682 185 q 626 424 682 374 q 483 474 571 474 l 339 474 l 339 475 l 250 474 l 238 556 l 274 556 q 334 572 303 556 q 388 628 365 589 l 524 844 q 607 947 569 917 q 700 978 644 978 l 776 978 l 776 863 l 728 863 q 675 845 697 863 q 621 778 653 828 l 497 581 l 506 581 m 238 972 l 238 0 l 111 0 l 111 972 l 238 972 z "},"Ӆ":{"ha":936,"x_min":29,"x_max":896,"o":"m 896 114 l 789 -167 l 669 -167 l 732 0 l 699 0 l 699 860 l 335 860 l 335 364 q 85 -8 335 -8 l 29 -8 l 29 111 l 65 111 q 172 169 136 111 q 208 367 208 226 l 208 972 l 825 972 l 825 114 l 896 114 z "},"Ӈ":{"ha":928,"x_min":111,"x_max":817,"o":"m 817 972 l 817 -114 q 766 -255 817 -206 q 621 -304 715 -304 q 529 -289 563 -304 l 529 -175 q 601 -185 558 -185 q 669 -159 647 -185 q 690 -76 690 -133 l 690 426 l 238 426 l 238 0 l 111 0 l 111 972 l 238 972 l 238 540 l 690 540 l 690 972 l 817 972 z "},"Ӊ":{"ha":928,"x_min":111,"x_max":888,"o":"m 888 114 l 781 -167 l 661 -167 l 724 0 l 690 0 l 690 426 l 238 426 l 238 0 l 111 0 l 111 972 l 238 972 l 238 540 l 690 540 l 690 972 l 817 972 l 817 114 l 888 114 z "},"Ӌ":{"ha":804,"x_min":63,"x_max":693,"o":"m 693 0 l 626 0 l 626 -167 l 500 -167 l 500 114 l 567 114 l 567 360 q 467 319 519 331 q 356 308 415 308 q 140 393 217 308 q 63 611 63 478 l 63 972 l 189 972 l 189 643 q 389 422 189 422 q 486 432 444 422 q 567 474 528 442 l 567 972 l 693 972 l 693 0 z "},"Ӎ":{"ha":1133,"x_min":111,"x_max":1093,"o":"m 1093 114 l 986 -167 l 867 -167 l 929 0 l 900 0 l 900 710 l 615 0 l 518 0 l 233 714 l 233 0 l 111 0 l 111 972 l 233 972 l 567 179 l 900 972 l 1022 972 l 1022 114 l 1093 114 z "},"Ӑ":{"ha":819,"x_min":25,"x_max":796,"o":"m 411 1019 q 242 1063 310 1019 q 169 1179 175 1106 l 269 1179 q 315 1121 276 1140 q 411 1101 354 1101 q 507 1121 468 1101 q 554 1179 546 1140 l 654 1179 q 580 1063 647 1106 q 411 1019 513 1019 m 613 149 l 208 149 l 163 0 l 25 0 l 354 972 l 467 972 l 796 0 l 658 0 l 613 149 m 576 264 l 410 797 l 244 264 l 576 264 z "},"Ӓ":{"ha":819,"x_min":25,"x_max":796,"o":"m 246 1038 q 181 1065 207 1038 q 154 1131 154 1092 q 181 1197 154 1169 q 246 1224 207 1224 q 313 1197 286 1224 q 340 1131 340 1169 q 313 1065 340 1092 q 246 1038 285 1038 m 575 1038 q 509 1065 536 1038 q 482 1131 482 1092 q 509 1197 482 1169 q 575 1224 536 1224 q 641 1197 614 1224 q 668 1131 668 1169 q 641 1065 668 1092 q 575 1038 614 1038 m 613 149 l 208 149 l 163 0 l 25 0 l 354 972 l 467 972 l 796 0 l 658 0 l 613 149 m 576 264 l 410 797 l 244 264 l 576 264 z "},"Ӕ":{"ha":1168,"x_min":18,"x_max":1074,"o":"m 690 858 l 690 540 l 1074 540 l 1074 426 l 690 426 l 690 114 l 1074 114 l 1074 0 l 564 0 l 564 154 l 229 154 l 156 0 l 18 0 l 501 972 l 1074 972 l 1074 858 l 690 858 m 564 264 l 564 856 l 282 264 l 564 264 z "},"Ӗ":{"ha":757,"x_min":111,"x_max":664,"o":"m 396 1019 q 227 1063 294 1019 q 154 1179 160 1106 l 254 1179 q 300 1121 261 1140 q 396 1101 339 1101 q 492 1121 453 1101 q 539 1179 531 1140 l 639 1179 q 565 1063 632 1106 q 396 1019 497 1019 m 111 972 l 664 972 l 664 858 l 238 858 l 238 540 l 664 540 l 664 426 l 238 426 l 238 114 l 664 114 l 664 0 l 111 0 l 111 972 z "},"Ә":{"ha":1075,"x_min":53,"x_max":1024,"o":"m 524 -17 q 282 46 390 -17 q 113 219 174 108 q 53 468 53 331 l 53 543 l 888 543 q 788 785 876 692 q 531 878 700 878 q 323 826 397 878 q 213 682 249 774 l 65 682 q 146 840 85 768 q 306 953 207 911 q 531 996 404 996 q 797 928 686 996 q 966 746 908 861 q 1024 489 1024 631 q 964 231 1024 346 q 791 50 904 117 q 524 -17 678 -17 m 529 96 q 713 138 632 96 q 840 259 794 181 q 888 443 886 338 l 185 443 q 230 264 186 343 q 351 140 274 185 q 529 96 429 96 z "},"Ӛ":{"ha":1075,"x_min":53,"x_max":1024,"o":"m 357 1038 q 292 1065 318 1038 q 265 1131 265 1092 q 292 1197 265 1169 q 357 1224 318 1224 q 424 1197 397 1224 q 451 1131 451 1169 q 424 1065 451 1092 q 357 1038 396 1038 m 686 1038 q 620 1065 647 1038 q 593 1131 593 1092 q 620 1197 593 1169 q 686 1224 647 1224 q 752 1197 725 1224 q 779 1131 779 1169 q 752 1065 779 1092 q 686 1038 725 1038 m 524 -17 q 282 46 390 -17 q 113 219 174 108 q 53 468 53 331 l 53 543 l 888 543 q 788 785 876 692 q 531 878 700 878 q 323 826 397 878 q 213 682 249 774 l 65 682 q 146 840 85 768 q 306 953 207 911 q 531 996 404 996 q 797 928 686 996 q 966 746 908 861 q 1024 489 1024 631 q 964 231 1024 346 q 791 50 904 117 q 524 -17 678 -17 m 529 96 q 713 138 632 96 q 840 259 794 181 q 888 443 886 338 l 185 443 q 230 264 186 343 q 351 140 274 185 q 529 96 429 96 z "},"Ӝ":{"ha":1310,"x_min":18,"x_max":1292,"o":"m 489 1038 q 424 1065 450 1038 q 397 1131 397 1092 q 424 1197 397 1169 q 489 1224 450 1224 q 556 1197 529 1224 q 583 1131 583 1169 q 556 1065 583 1092 q 489 1038 528 1038 m 818 1038 q 752 1065 779 1038 q 725 1131 725 1092 q 752 1197 725 1169 q 818 1224 779 1224 q 884 1197 857 1224 q 911 1131 911 1169 q 884 1065 911 1092 q 818 1038 857 1038 m 1292 0 l 1131 0 l 718 478 l 718 0 l 592 0 l 592 478 l 179 0 l 18 0 l 461 497 l 444 497 q 346 561 385 497 l 211 778 q 157 845 179 828 q 104 863 135 863 l 56 863 l 56 978 l 131 978 q 224 947 186 978 q 307 844 263 917 l 444 628 q 494 572 467 589 q 550 556 522 556 l 592 556 l 592 972 l 718 972 l 718 556 l 760 556 q 815 572 788 556 q 865 628 843 589 l 1003 844 q 1085 947 1047 917 q 1179 978 1124 978 l 1254 978 l 1254 863 l 1206 863 q 1153 845 1175 863 q 1099 778 1131 828 l 964 561 q 865 497 925 497 l 849 497 l 1292 0 z "},"Ӟ":{"ha":783,"x_min":60,"x_max":719,"o":"m 222 1038 q 157 1065 183 1038 q 131 1131 131 1092 q 157 1197 131 1169 q 222 1224 183 1224 q 290 1197 263 1224 q 317 1131 317 1169 q 289 1065 317 1092 q 222 1038 261 1038 m 551 1038 q 485 1065 513 1038 q 458 1131 458 1092 q 485 1197 458 1169 q 551 1224 513 1224 q 617 1197 590 1224 q 644 1131 644 1169 q 617 1065 644 1092 q 551 1038 590 1038 m 186 297 q 244 147 186 203 q 396 92 301 92 q 539 144 486 92 q 592 272 592 196 q 544 398 592 353 q 394 443 496 443 l 319 443 l 319 556 l 394 556 q 531 601 486 556 q 576 717 576 647 q 526 834 576 788 q 394 881 476 881 q 249 831 306 881 q 193 697 193 782 l 65 697 q 106 852 65 785 q 222 957 147 919 q 390 994 296 994 q 549 963 478 994 q 662 872 621 932 q 703 726 703 811 q 656 582 703 642 q 536 506 610 522 q 668 429 617 492 q 719 272 719 367 q 680 118 719 185 q 567 15 640 51 q 399 -22 494 -22 q 222 16 299 -22 q 103 126 146 54 q 60 297 60 199 l 186 297 z "},"Ӡ":{"ha":785,"x_min":60,"x_max":738,"o":"m 397 -17 q 222 22 299 -17 q 103 131 146 60 q 60 301 60 203 l 186 301 q 247 153 186 208 q 400 97 308 97 q 540 151 488 97 q 592 286 592 206 q 542 430 592 379 q 388 481 493 481 l 269 481 l 529 858 l 129 858 l 129 972 l 738 972 l 451 571 q 590 531 529 567 q 684 433 650 494 q 718 292 718 371 q 676 133 718 203 q 562 23 635 63 q 397 -17 489 -17 z "},"Ӣ":{"ha":926,"x_min":111,"x_max":815,"o":"m 207 1135 l 724 1135 l 724 1039 l 207 1039 l 207 1135 m 238 65 l 238 0 l 111 0 l 111 972 l 238 972 l 238 251 l 689 907 l 689 972 l 815 972 l 815 0 l 689 0 l 689 721 l 238 65 z "},"Ӥ":{"ha":926,"x_min":111,"x_max":815,"o":"m 300 1010 q 235 1037 261 1010 q 208 1103 208 1064 q 235 1169 208 1142 q 300 1196 261 1196 q 367 1169 340 1196 q 394 1103 394 1142 q 367 1037 394 1064 q 300 1010 339 1010 m 629 1010 q 563 1037 590 1010 q 536 1103 536 1064 q 563 1169 536 1142 q 629 1196 590 1196 q 695 1169 668 1196 q 722 1103 722 1142 q 695 1037 722 1064 q 629 1010 668 1010 m 238 65 l 238 0 l 111 0 l 111 972 l 238 972 l 238 251 l 689 907 l 689 972 l 815 972 l 815 0 l 689 0 l 689 721 l 238 65 z "},"Ӧ":{"ha":1107,"x_min":53,"x_max":1056,"o":"m 389 1038 q 324 1065 350 1038 q 297 1131 297 1092 q 324 1197 297 1169 q 389 1224 350 1224 q 456 1197 429 1224 q 483 1131 483 1169 q 456 1065 483 1092 q 389 1038 428 1038 m 718 1038 q 652 1065 679 1038 q 625 1131 625 1092 q 652 1197 625 1169 q 718 1224 679 1224 q 784 1197 757 1224 q 811 1131 811 1169 q 784 1065 811 1092 q 718 1038 757 1038 m 554 -22 q 289 47 403 -22 q 114 231 175 115 q 53 486 53 347 q 114 741 53 625 q 289 926 175 857 q 554 994 403 994 q 819 926 706 994 q 994 741 933 857 q 1056 486 1056 625 q 994 231 1056 347 q 819 47 933 115 q 554 -22 706 -22 m 554 92 q 751 145 668 92 q 879 288 835 199 q 922 486 924 378 q 879 684 924 594 q 751 827 835 774 q 554 881 668 881 q 357 827 440 881 q 229 684 274 774 q 185 486 185 594 q 229 288 185 378 q 357 145 274 199 q 554 92 440 92 z "},"Ө":{"ha":1107,"x_min":53,"x_max":1056,"o":"m 554 994 q 819 926 706 994 q 994 741 933 857 q 1056 486 1056 625 q 994 231 1056 347 q 819 47 933 115 q 554 -22 706 -22 q 289 47 403 -22 q 114 231 175 115 q 53 486 53 347 q 114 741 53 625 q 289 926 175 857 q 554 994 403 994 m 554 881 q 367 834 447 881 q 241 707 288 788 q 186 528 194 626 l 921 528 q 867 707 913 626 q 741 834 821 788 q 554 881 661 881 m 554 92 q 741 139 661 92 q 867 267 821 186 q 921 446 913 347 l 186 446 q 241 267 194 347 q 367 139 288 186 q 554 92 447 92 z "},"Ӫ":{"ha":1107,"x_min":53,"x_max":1056,"o":"m 389 1038 q 324 1065 350 1038 q 297 1131 297 1092 q 324 1197 297 1169 q 389 1224 350 1224 q 456 1197 429 1224 q 483 1131 483 1169 q 456 1065 483 1092 q 389 1038 428 1038 m 718 1038 q 652 1065 679 1038 q 625 1131 625 1092 q 652 1197 625 1169 q 718 1224 679 1224 q 784 1197 757 1224 q 811 1131 811 1169 q 784 1065 811 1092 q 718 1038 757 1038 m 554 994 q 819 926 706 994 q 994 741 933 857 q 1056 486 1056 625 q 994 231 1056 347 q 819 47 933 115 q 554 -22 706 -22 q 289 47 403 -22 q 114 231 175 115 q 53 486 53 347 q 114 741 53 625 q 289 926 175 857 q 554 994 403 994 m 554 881 q 367 834 447 881 q 241 707 288 788 q 186 528 194 626 l 921 528 q 867 707 913 626 q 741 834 821 788 q 554 881 661 881 m 554 92 q 741 139 661 92 q 867 267 821 186 q 921 446 913 347 l 186 446 q 241 267 194 347 q 367 139 288 186 q 554 92 447 92 z "},"Ӭ":{"ha":1026,"x_min":50,"x_max":974,"o":"m 321 1038 q 256 1065 282 1038 q 229 1131 229 1092 q 256 1197 229 1169 q 321 1224 282 1224 q 388 1197 361 1224 q 415 1131 415 1169 q 388 1065 415 1092 q 321 1038 360 1038 m 650 1038 q 584 1065 611 1038 q 557 1131 557 1092 q 584 1197 557 1169 q 650 1224 611 1224 q 716 1197 689 1224 q 743 1131 743 1169 q 716 1065 743 1092 q 650 1038 689 1038 m 488 994 q 741 931 631 994 q 913 751 851 867 q 974 486 974 636 q 913 221 974 336 q 741 42 851 106 q 488 -22 631 -22 q 279 19 372 -22 q 127 134 186 60 q 50 304 68 208 l 188 304 q 289 150 208 208 q 488 92 369 92 q 728 183 633 92 q 839 429 822 274 l 358 429 l 358 544 l 839 544 q 727 790 822 699 q 488 881 632 881 q 290 823 371 881 q 188 671 210 765 l 50 671 q 199 907 81 819 q 488 994 318 994 z "},"Ӯ":{"ha":767,"x_min":-14,"x_max":788,"o":"m 658 1067 l 142 1067 l 142 1163 l 658 1163 l 658 1067 m 788 972 l 299 0 l 158 0 l 354 386 l -14 972 l 133 972 l 418 517 l 649 972 l 788 972 z "},"Ӱ":{"ha":767,"x_min":-14,"x_max":788,"o":"m 235 1038 q 169 1065 196 1038 q 143 1131 143 1092 q 169 1197 143 1169 q 235 1224 196 1224 q 302 1197 275 1224 q 329 1131 329 1169 q 301 1065 329 1092 q 235 1038 274 1038 m 564 1038 q 498 1065 525 1038 q 471 1131 471 1092 q 498 1197 471 1169 q 564 1224 525 1224 q 630 1197 603 1224 q 657 1131 657 1169 q 630 1065 657 1092 q 564 1038 603 1038 m 788 972 l 299 0 l 158 0 l 354 386 l -14 972 l 133 972 l 418 517 l 649 972 l 788 972 z "},"Ӳ":{"ha":767,"x_min":-14,"x_max":788,"o":"m 278 1022 l 210 1051 l 386 1233 l 494 1192 l 278 1022 m 458 1051 l 635 1233 l 742 1189 l 525 1021 l 458 1051 m 788 972 l 299 0 l 158 0 l 354 386 l -14 972 l 133 972 l 418 517 l 649 972 l 788 972 z "},"Ӵ":{"ha":804,"x_min":63,"x_max":693,"o":"m 211 1038 q 146 1065 172 1038 q 119 1131 119 1092 q 146 1197 119 1169 q 211 1224 172 1224 q 278 1197 251 1224 q 306 1131 306 1169 q 278 1065 306 1092 q 211 1038 250 1038 m 540 1038 q 474 1065 501 1038 q 447 1131 447 1092 q 474 1197 447 1169 q 540 1224 501 1224 q 606 1197 579 1224 q 633 1131 633 1169 q 606 1065 633 1092 q 540 1038 579 1038 m 567 360 q 467 319 519 331 q 356 308 415 308 q 140 393 217 308 q 63 611 63 478 l 63 972 l 189 972 l 189 643 q 389 422 189 422 q 486 432 444 422 q 567 474 528 442 l 567 972 l 693 972 l 693 0 l 567 0 l 567 360 z "},"Ӷ":{"ha":665,"x_min":111,"x_max":657,"o":"m 238 853 l 238 114 l 301 114 l 301 -167 l 181 -167 l 181 0 l 111 0 l 111 972 l 657 972 l 657 853 l 238 853 z "},"Ӹ":{"ha":1076,"x_min":111,"x_max":965,"o":"m 386 1038 q 321 1065 347 1038 q 294 1131 294 1092 q 321 1197 294 1169 q 386 1224 347 1224 q 453 1197 426 1224 q 481 1131 481 1169 q 453 1065 481 1092 q 386 1038 425 1038 m 715 1038 q 649 1065 676 1038 q 622 1131 622 1092 q 649 1197 622 1169 q 715 1224 676 1224 q 781 1197 754 1224 q 808 1131 808 1169 q 781 1065 808 1092 q 715 1038 754 1038 m 111 972 l 238 972 l 238 556 l 472 556 q 614 518 551 556 q 711 417 676 481 q 746 278 746 353 q 710 139 746 203 q 613 38 675 75 q 471 0 550 0 l 111 0 l 111 972 m 839 972 l 965 972 l 965 0 l 839 0 l 839 972 m 471 114 q 577 162 535 114 q 619 278 619 210 q 578 394 619 346 q 472 442 536 442 l 238 442 l 238 114 l 471 114 z "},"Ӽ":{"ha":839,"x_min":28,"x_max":811,"o":"m 601 -300 q 514 -285 547 -300 l 514 -171 q 583 -181 543 -181 q 653 -158 632 -181 q 675 -89 675 -136 q 653 7 675 -40 q 576 138 631 54 l 419 381 l 171 0 l 28 0 l 347 486 l 28 972 l 171 972 l 419 590 l 668 972 l 811 972 l 492 486 l 678 203 q 776 28 750 92 q 801 -99 801 -36 q 601 -300 801 -300 z "},"Ԑ":{"ha":783,"x_min":64,"x_max":724,"o":"m 724 297 q 681 126 724 199 q 561 16 638 54 q 385 -22 485 -22 q 216 15 289 -22 q 103 118 143 51 q 64 272 64 185 q 115 429 64 367 q 247 506 167 492 q 127 582 174 522 q 81 726 81 642 q 122 872 81 811 q 234 963 163 932 q 393 994 306 994 q 562 957 488 994 q 677 852 636 919 q 718 697 718 785 l 590 697 q 534 831 590 782 q 389 881 478 881 q 257 834 307 881 q 207 717 207 788 q 252 601 207 647 q 389 556 297 556 l 464 556 l 464 443 l 389 443 q 240 398 288 443 q 192 272 192 353 q 244 144 192 196 q 388 92 297 92 q 540 147 482 92 q 597 297 597 203 l 724 297 z "},"Ԓ":{"ha":936,"x_min":29,"x_max":825,"o":"m 825 972 l 825 -114 q 774 -255 825 -206 q 629 -304 724 -304 q 538 -289 571 -304 l 538 -175 q 610 -185 567 -185 q 677 -159 656 -185 q 699 -76 699 -133 l 699 860 l 335 860 l 335 364 q 85 -8 335 -8 l 29 -8 l 29 111 l 65 111 q 172 169 136 111 q 208 367 208 226 l 208 972 l 825 972 z "},"Ԝ":{"ha":1331,"x_min":4,"x_max":1328,"o":"m 4 972 l 138 972 l 386 208 l 618 972 l 714 972 l 944 208 l 1194 972 l 1328 972 l 994 0 l 901 0 l 665 753 l 431 0 l 336 0 l 4 972 z "},"Ҍ":{"ha":793,"x_min":40,"x_max":746,"o":"m 472 556 q 614 518 551 556 q 711 417 676 481 q 746 278 746 353 q 710 139 746 203 q 613 38 675 75 q 471 0 550 0 l 111 0 l 111 747 l 40 747 l 40 844 l 111 844 l 111 972 l 238 972 l 238 844 l 496 844 l 496 747 l 238 747 l 238 556 l 472 556 m 471 114 q 577 162 535 114 q 619 278 619 210 q 578 394 619 346 q 472 442 536 442 l 238 442 l 238 114 l 471 114 z "},"Ҏ":{"ha":806,"x_min":111,"x_max":786,"o":"m 786 636 q 749 473 786 546 q 646 356 713 400 l 728 275 l 669 217 l 568 318 q 460 301 518 301 l 238 301 l 238 0 l 111 0 l 111 972 l 460 972 q 628 929 554 972 q 744 810 703 886 q 786 636 786 733 m 469 415 l 374 511 l 432 569 l 558 443 q 633 522 606 472 q 660 636 660 572 q 633 751 660 700 q 558 830 606 801 q 453 858 511 858 l 238 858 l 238 415 l 453 415 l 469 415 z "},"а":{"ha":821,"x_min":53,"x_max":717,"o":"m 369 -17 q 199 27 271 -17 q 90 147 126 71 q 53 319 53 224 q 92 491 53 414 q 203 613 131 568 q 372 657 275 657 q 507 622 447 657 q 597 528 567 588 l 597 640 l 717 640 l 717 0 l 597 0 l 597 113 q 504 19 567 54 q 369 -17 442 -17 m 386 92 q 545 158 488 92 q 603 319 603 224 q 545 483 603 417 q 386 549 488 549 q 231 484 289 549 q 172 319 172 419 q 231 156 172 219 q 386 92 289 92 z "},"б":{"ha":794,"x_min":69,"x_max":743,"o":"m 417 -18 q 158 103 247 -18 q 69 421 69 224 q 183 836 69 700 q 549 972 297 972 l 679 972 l 679 856 l 515 856 q 272 765 350 856 q 185 490 194 675 q 281 613 213 568 q 432 657 350 657 q 599 611 528 657 q 706 489 669 565 q 743 321 743 413 q 701 151 743 229 q 585 28 660 74 q 417 -18 511 -18 m 410 90 q 523 122 475 90 q 597 205 571 153 q 622 319 622 257 q 565 481 622 415 q 410 547 507 547 q 253 483 310 547 q 196 319 196 419 q 253 155 196 219 q 410 90 310 90 z "},"в":{"ha":681,"x_min":104,"x_max":617,"o":"m 406 640 q 560 590 514 640 q 606 474 606 540 q 565 378 606 418 q 463 331 524 338 q 572 285 526 328 q 617 175 617 242 q 596 94 617 135 q 526 27 575 54 q 399 0 478 0 l 104 0 l 104 640 l 406 640 m 397 369 q 460 397 435 369 q 485 461 485 424 q 460 527 485 500 q 396 554 435 554 l 222 554 l 222 369 l 397 369 m 222 86 l 401 86 q 468 115 440 86 q 496 183 496 143 q 468 253 496 224 q 401 283 440 283 l 222 283 l 222 86 z "},"г":{"ha":521,"x_min":104,"x_max":490,"o":"m 490 528 l 225 528 l 225 0 l 104 0 l 104 640 l 490 640 l 490 528 z "},"ѓ":{"ha":521,"x_min":104,"x_max":546,"o":"m 490 528 l 225 528 l 225 0 l 104 0 l 104 640 l 490 640 l 490 528 m 125 797 l 506 956 l 546 865 l 165 703 l 125 797 z "},"ґ":{"ha":521,"x_min":104,"x_max":490,"o":"m 490 769 l 490 528 l 225 528 l 225 0 l 104 0 l 104 640 l 364 640 l 364 769 l 490 769 z "},"д":{"ha":778,"x_min":28,"x_max":718,"o":"m 718 114 l 718 -167 l 597 -167 l 597 0 l 154 0 l 154 -167 l 28 -167 l 28 114 l 92 114 q 151 278 151 147 l 151 640 l 654 640 l 654 114 l 718 114 m 533 101 l 533 539 l 272 539 l 272 283 q 225 101 272 174 l 533 101 z "},"е":{"ha":724,"x_min":53,"x_max":672,"o":"m 672 357 q 668 285 672 331 l 172 285 q 228 141 174 193 q 374 89 282 89 q 480 113 436 89 q 543 183 524 138 l 664 183 q 567 39 647 94 q 374 -17 486 -17 q 140 74 226 -17 q 53 321 53 165 q 92 498 53 422 q 202 615 131 574 q 368 657 274 657 q 527 619 458 657 q 634 513 596 581 q 672 357 672 444 m 553 378 q 503 511 553 463 q 367 560 454 560 q 228 510 281 560 q 172 378 176 460 l 553 378 z "},"ё":{"ha":724,"x_min":53,"x_max":672,"o":"m 672 357 q 668 285 672 331 l 172 285 q 228 141 174 193 q 374 89 282 89 q 480 113 436 89 q 543 183 524 138 l 664 183 q 567 39 647 94 q 374 -17 486 -17 q 140 74 226 -17 q 53 321 53 165 q 92 498 53 422 q 202 615 131 574 q 368 657 274 657 q 527 619 458 657 q 634 513 596 581 q 672 357 672 444 m 553 378 q 503 511 553 463 q 367 560 454 560 q 228 510 281 560 q 172 378 176 460 l 553 378 m 231 749 q 165 776 192 749 q 138 842 138 803 q 165 908 138 881 q 231 935 192 935 q 297 908 269 935 q 324 842 324 882 q 297 776 324 803 q 231 749 269 749 m 508 749 q 442 776 469 749 q 415 842 415 803 q 442 908 415 881 q 508 935 469 935 q 574 908 547 935 q 601 842 601 882 q 574 776 601 803 q 508 749 547 749 z "},"ж":{"ha":1068,"x_min":50,"x_max":1018,"o":"m 867 0 l 594 301 l 594 0 l 474 0 l 474 301 l 201 0 l 50 0 l 353 332 l 344 332 q 290 347 313 332 q 239 404 267 361 l 181 489 q 144 527 160 517 q 103 538 128 538 l 75 538 l 75 647 l 126 647 q 202 629 174 647 q 263 564 231 611 l 367 418 q 407 375 388 388 q 450 363 426 363 l 474 363 l 474 640 l 594 640 l 594 363 l 618 363 q 661 375 642 363 q 701 418 681 388 l 806 564 q 866 629 838 611 q 942 647 894 647 l 993 647 l 993 538 l 965 538 q 924 527 940 538 q 888 489 908 517 l 829 404 q 778 347 801 361 q 724 332 756 332 l 715 332 l 1018 0 l 867 0 z "},"з":{"ha":664,"x_min":64,"x_max":600,"o":"m 185 190 q 226 113 185 142 q 340 83 267 83 q 445 110 408 83 q 482 185 482 136 q 450 251 482 225 q 361 278 418 278 l 265 278 l 265 368 l 356 368 q 437 394 406 368 q 468 464 468 419 q 433 533 468 506 q 338 560 397 560 q 233 531 268 560 q 197 456 197 503 l 76 456 q 148 601 76 546 q 336 657 219 657 q 517 608 449 657 q 586 481 586 558 q 549 378 586 418 q 447 329 511 339 q 558 281 515 322 q 600 171 600 239 q 524 34 600 85 q 332 -17 447 -17 q 136 40 208 -17 q 64 190 64 97 l 185 190 z "},"и":{"ha":779,"x_min":104,"x_max":675,"o":"m 225 51 l 225 0 l 104 0 l 104 640 l 225 640 l 225 188 l 554 586 l 554 640 l 675 640 l 675 0 l 554 0 l 554 447 l 225 51 z "},"й":{"ha":779,"x_min":104,"x_max":675,"o":"m 386 682 q 216 735 282 682 q 144 881 150 789 l 247 881 q 290 800 251 828 q 386 772 328 772 q 484 800 446 772 q 526 881 522 828 l 629 881 q 556 735 622 789 q 386 682 490 682 m 225 51 l 225 0 l 104 0 l 104 640 l 225 640 l 225 188 l 554 586 l 554 640 l 675 640 l 675 0 l 554 0 l 554 447 l 225 51 z "},"ҋ":{"ha":799,"x_min":104,"x_max":738,"o":"m 386 682 q 216 735 282 682 q 144 881 150 789 l 247 881 q 290 800 251 828 q 386 772 328 772 q 484 800 446 772 q 526 881 522 828 l 629 881 q 556 735 622 789 q 386 682 490 682 m 738 114 l 738 -167 l 617 -167 l 617 0 l 554 0 l 554 447 l 225 51 l 225 0 l 104 0 l 104 640 l 225 640 l 225 188 l 554 586 l 554 640 l 675 640 l 675 114 l 738 114 z "},"к":{"ha":699,"x_min":104,"x_max":649,"o":"m 497 0 l 225 301 l 225 0 l 104 0 l 104 640 l 225 640 l 225 363 l 249 363 q 292 375 272 363 q 332 418 311 388 l 436 564 q 497 629 468 611 q 572 647 525 647 l 624 647 l 624 538 l 596 538 q 555 527 571 538 q 518 489 539 517 l 460 404 q 409 347 432 361 q 354 332 386 332 l 346 332 l 649 0 l 497 0 z "},"ќ":{"ha":699,"x_min":104,"x_max":649,"o":"m 497 0 l 225 301 l 225 0 l 104 0 l 104 640 l 225 640 l 225 363 l 249 363 q 292 375 272 363 q 332 418 311 388 l 436 564 q 497 629 468 611 q 572 647 525 647 l 624 647 l 624 538 l 596 538 q 555 527 571 538 q 518 489 539 517 l 460 404 q 409 347 432 361 q 354 332 386 332 l 346 332 l 649 0 l 497 0 m 153 797 l 533 956 l 574 865 l 193 703 l 153 797 z "},"л":{"ha":764,"x_min":42,"x_max":660,"o":"m 67 110 q 144 147 117 110 q 171 269 171 185 l 171 640 l 660 640 l 660 0 l 540 0 l 540 528 l 290 528 l 290 275 q 238 67 290 139 q 92 -6 186 -6 l 42 -6 l 42 110 l 67 110 z "},"м":{"ha":983,"x_min":104,"x_max":879,"o":"m 104 640 l 286 640 l 492 164 l 697 640 l 879 640 l 878 0 l 763 0 l 763 522 l 532 0 l 451 0 l 219 522 l 219 0 l 104 0 l 104 640 z "},"н":{"ha":783,"x_min":104,"x_max":679,"o":"m 104 640 l 225 640 l 225 374 l 560 374 l 560 640 l 679 640 l 679 0 l 560 0 l 560 272 l 225 272 l 225 0 l 104 0 l 104 640 z "},"о":{"ha":772,"x_min":53,"x_max":719,"o":"m 386 -17 q 209 28 285 -17 q 93 149 133 72 q 53 321 53 226 q 93 491 53 414 q 209 613 133 568 q 386 657 285 657 q 563 613 488 657 q 678 491 638 568 q 719 321 719 414 q 679 149 719 226 q 563 28 639 72 q 386 -17 488 -17 m 386 92 q 542 156 485 92 q 599 321 599 221 q 542 484 599 419 q 386 549 485 549 q 230 484 288 549 q 172 319 172 419 q 230 156 172 221 q 386 92 288 92 z "},"п":{"ha":779,"x_min":104,"x_max":675,"o":"m 554 0 l 554 539 l 225 539 l 225 0 l 104 0 l 104 640 l 675 640 l 675 0 l 554 0 z "},"р":{"ha":821,"x_min":104,"x_max":769,"o":"m 460 657 q 621 615 550 657 q 731 495 692 572 q 769 319 769 418 q 729 146 769 222 q 617 26 689 69 q 453 -17 544 -17 q 317 18 379 -17 q 225 113 256 53 l 225 -296 l 104 -296 l 104 640 l 225 640 l 225 528 q 319 622 256 588 q 460 657 382 657 m 436 92 q 589 156 529 92 q 649 319 649 219 q 622 438 649 385 q 546 519 594 490 q 436 549 497 549 q 280 485 340 549 q 219 319 219 421 q 280 156 219 219 q 436 92 340 92 z "},"с":{"ha":722,"x_min":53,"x_max":669,"o":"m 371 -17 q 202 26 274 -17 q 92 144 131 68 q 53 319 53 221 q 92 494 53 418 q 202 613 131 571 q 371 656 274 656 q 579 591 500 656 q 669 418 658 526 l 549 418 q 491 515 536 482 q 371 547 446 547 q 225 487 278 547 q 172 319 172 426 q 225 152 172 213 q 371 92 278 92 q 491 124 446 92 q 549 217 536 156 l 669 217 q 579 47 658 110 q 371 -17 500 -17 z "},"т":{"ha":600,"x_min":43,"x_max":557,"o":"m 557 528 l 360 528 l 360 0 l 239 0 l 239 528 l 43 528 l 43 640 l 557 640 l 557 528 z "},"у":{"ha":788,"x_min":97,"x_max":683,"o":"m 683 640 l 683 -12 q 596 -243 683 -164 q 386 -312 518 -312 q 169 -246 247 -312 q 97 -81 99 -186 l 219 -81 q 385 -211 226 -211 q 516 -160 469 -211 q 563 -4 563 -110 l 563 115 q 476 19 533 54 q 340 -17 419 -17 q 158 58 219 -17 q 97 258 97 132 l 97 640 l 218 640 l 218 283 q 255 141 218 190 q 381 92 292 92 q 515 155 468 92 q 563 311 563 218 l 563 640 l 683 640 z "},"ў":{"ha":788,"x_min":97,"x_max":683,"o":"m 385 696 q 215 749 281 696 q 143 894 149 803 l 246 894 q 288 814 250 842 q 385 786 326 786 q 483 814 444 786 q 525 894 521 842 l 628 894 q 555 749 621 803 q 385 696 489 696 m 683 640 l 683 -12 q 596 -243 683 -164 q 386 -312 518 -312 q 169 -246 247 -312 q 97 -81 99 -186 l 219 -81 q 385 -211 226 -211 q 516 -160 469 -211 q 563 -4 563 -110 l 563 115 q 476 19 533 54 q 340 -17 419 -17 q 158 58 219 -17 q 97 258 97 132 l 97 640 l 218 640 l 218 283 q 255 141 218 190 q 381 92 292 92 q 515 155 468 92 q 563 311 563 218 l 563 640 l 683 640 z "},"ф":{"ha":851,"x_min":53,"x_max":799,"o":"m 799 321 q 758 158 799 235 q 647 35 718 82 q 486 -15 576 -12 l 486 -296 l 365 -296 l 365 -15 q 203 35 275 -12 q 92 158 132 82 q 53 321 53 233 q 93 483 53 407 q 204 606 133 560 q 365 656 275 653 l 365 972 l 486 972 l 486 656 q 648 606 576 653 q 759 483 719 558 q 799 321 799 407 m 172 321 q 196 206 172 260 q 265 119 219 153 q 372 86 311 86 l 372 554 q 265 522 310 554 q 196 435 219 489 q 172 321 172 382 m 479 86 q 585 119 540 86 q 654 206 631 153 q 678 321 678 260 q 654 435 678 382 q 585 522 631 489 q 479 554 540 554 l 479 86 z "},"х":{"ha":664,"x_min":21,"x_max":643,"o":"m 261 322 l 24 640 l 172 640 l 332 411 l 490 640 l 639 640 l 401 322 l 643 0 l 493 0 l 332 235 l 169 0 l 21 0 l 261 322 z "},"ч":{"ha":699,"x_min":60,"x_max":594,"o":"m 474 238 q 390 206 438 217 q 301 196 343 196 q 119 250 179 196 q 60 415 60 304 l 60 640 l 179 640 l 179 429 q 216 330 179 363 q 328 297 253 297 q 407 306 371 297 q 474 342 443 315 l 474 640 l 594 640 l 594 0 l 474 0 l 474 238 z "},"ц":{"ha":796,"x_min":104,"x_max":736,"o":"m 736 114 l 736 -167 l 615 -167 l 615 0 l 104 0 l 104 640 l 225 640 l 225 101 l 551 101 l 551 640 l 672 640 l 672 114 l 736 114 z "},"ш":{"ha":1090,"x_min":104,"x_max":986,"o":"m 867 101 l 867 640 l 986 640 l 986 0 l 104 0 l 104 640 l 225 640 l 225 101 l 485 101 l 485 640 l 606 640 l 606 101 l 867 101 z "},"щ":{"ha":1111,"x_min":104,"x_max":1050,"o":"m 1050 114 l 1050 -167 l 929 -167 l 929 0 l 104 0 l 104 640 l 225 640 l 225 101 l 485 101 l 485 640 l 606 640 l 606 101 l 867 101 l 867 640 l 986 640 l 986 114 l 1050 114 z "}}}
